{
.formatVersion = 3;
DisplayStrings = (
"/uni1362.vs17"
);
familyName = "ዋልድባ - የብሰ";
customParameters = (
{
name = glyphOrder;
value = (
.notdef,
NULL,
CR,
space,
exclam,
quotedbl,
numbersign,
dollar,
percent,
ampersand,
quotesingle,
parenleft,
parenright,
asterisk,
plus,
comma,
hyphen,
period,
slash,
zero,
one,
two,
three,
four,
five,
six,
seven,
eight,
nine,
colon,
semicolon,
less,
equal,
greater,
question,
at,
A,
B,
C,
D,
E,
F,
G,
H,
I,
J,
K,
L,
M,
N,
O,
P,
Q,
R,
S,
T,
U,
V,
W,
X,
Y,
Z,
bracketleft,
backslash,
bracketright,
asciicircum,
underscore,
grave,
a,
b,
c,
d,
e,
f,
g,
h,
i,
j,
k,
l,
m,
n,
o,
p,
q,
r,
s,
t,
u,
v,
w,
x,
y,
z,
braceleft,
bar,
braceright,
asciitilde,
exclamdown,
cent,
sterling,
currency,
yen,
brokenbar,
section,
dieresis,
copyright,
ordfeminine,
guillemotleft,
logicalnot,
uni00AD,
registered,
overscore,
degree,
plusminus,
twosuperior,
threesuperior,
acute,
mu,
paragraph,
middot,
cedilla,
onesuperior,
ordmasculine,
guillemotright,
onequarter,
onehalf,
threequarters,
questiondown,
Agrave,
Aacute,
Acircumflex,
Atilde,
Adieresis,
Aring,
AE,
Ccedilla,
Egrave,
Eacute,
Ecircumflex,
Edieresis,
Igrave,
Iacute,
Icircumflex,
Idieresis,
Eth,
Ntilde,
Ograve,
Oacute,
Ocircumflex,
Otilde,
Odieresis,
multiply,
Oslash,
Ugrave,
Uacute,
Ucircumflex,
Udieresis,
Yacute,
Thorn,
germandbls,
agrave,
aacute,
acircumflex,
atilde,
adieresis,
aring,
ae,
ccedilla,
egrave,
eacute,
ecircumflex,
edieresis,
igrave,
iacute,
icircumflex,
idieresis,
eth,
ntilde,
ograve,
oacute,
ocircumflex,
otilde,
odieresis,
divide,
oslash,
ugrave,
uacute,
ucircumflex,
udieresis,
yacute,
thorn,
ydieresis,
OE,
oe,
Scaron,
scaron,
Ydieresis,
Zcaron,
zcaron,
florin,
circumflex,
tilde,
uni1200,
uni1201,
uni1202,
uni1203,
uni1204,
uni1205,
uni1206,
uni1208,
uni1209,
uni120A,
uni120B,
uni120C,
uni120D,
uni120E,
uni120F,
uni1210,
uni1211,
uni1212,
uni1213,
uni1214,
uni1215,
uni1216,
uni1217,
uni1218,
uni1219,
uni121A,
uni121B,
uni121C,
uni121D,
uni121E,
uni121F,
uni1220,
uni1221,
uni1222,
uni1223,

glyphs = (
{
glyphname = .notdef;
layers = (
{
layerId = "F01671F1-619E-4C0E-98FE-F2F10EEA5364";
shapes = (
{
closed = 1;
nodes = (
(825,-279,l),
(1483,-279,l),
(1556,-279,o),
(1614,-242,o),
(1614,-176,q),
(1614,-23,l),
(1614,37,o),
(1571,80,o),
(1526,80,q),
(1085,80,l),
(1020,80,o),
(946,68,o),
(907,43,o),
(897,4,o),
(897,-23,q),
(897,-207,l),
(825,-207,l)
);
},
{
closed = 1;
nodes = (
(1307,-176,l),
(1307,-215,o),
(1255,-215,q),
(1235,-215,o),
(1204,-195,o),
(1204,-176,q),
(1204,-23,l),
(1204,-4,o),
(1237,16,o),
(1255,16,q),
(1276,16,o),
(1307,-4,o),
(1307,-23,q)
);
},
{
closed = 1;
nodes = (
(1907,612,l),
(2030,612,l),
(2030,408,l),
(2132,408,l),
(2206,408,o),
(2286,498,o),
(2286,561,q),
(2286,625,o),
(2206,715,o),
(2132,715,q),
(1909,715,l),
(1855,672,l),
(1907,610,l)
);
},
{
closed = 1;
nodes = (
(1104,647,l),
(1104,545,l),
(1206,545,l),
(1280,545,o),
(1360,635,o),
(1360,698,q),
(1360,762,o),
(1280,852,o),
(1206,852,q),
(1104,852,l),
(1104,750,l),
(950,750,l),
(950,877,l),
(643,877,l),
(643,799,l),
(645,727,o),
(735,647,o),
(797,647,q)
);
},
{
closed = 1;
nodes = (
(1864,1024,l),
(1929,1024,o),
(1972,1098,o),
(1972,1180,q),
(1972,1274,l),
(1972,1319,o),
(1958,1370,o),
(1923,1395,o),
(1864,1399,o),
(1821,1399,q),
(1663,1399,l),
(1663,1446,l),
(1350,1411,l),
(1356,1401,o),
(1356,1384,q),
(1356,1178,l),
(1356,1126,o),
(1380,1065,o),
(1419,1034,o),
(1468,1024,o),
(1493,1024,q)
);
},
{
closed = 1;
nodes = (
(1800,1190,l),
(1800,1159,o),
(1792,1122,o),
(1763,1102,o),
(1710,1096,o),
(1667,1096,q),
(1667,1331,l),
(1751,1331,o),
(1800,1305,o),
(1800,1260,q)
);
},
{
closed = 1;
nodes = (
(444,57,l),
(510,57,o),
(553,131,o),
(553,213,q),
(553,436,l),
(553,481,o),
(522,532,o),
(467,557,o),
(391,561,o),
(348,561,q),
(190,561,l),
(190,598,l),
(-119,598,l),
(-119,209,l),
(-119,158,o),
(-94,96,o),
(-53,66,o),
(-4,57,o),
(20,57,q)
);
},
{
closed = 1;
nodes = (
(328,223,l),
(328,193,o),
(319,156,o),
(291,135,o),
(238,129,o),
(195,129,q),
(195,494,l),
(279,494,o),
(328,467,o),
(328,422,q)
);
}
);
width = 1024;
}
);
},
{
glyphname = exclam;
layers = (
{
layerId = "F01671F1-619E-4C0E-98FE-F2F10EEA5364";
shapes = (
{
closed = 1;
nodes = (
(802,1313,l),
(534,1313,l),
(575,416,l),
(758,416,l)
);
},
{
closed = 1;
nodes = (
(587,314,o),
(473,212,o),
(473,140,q),
(473,68,o),
(583,-36,o),
(666,-36,q),
(751,-36,o),
(861,68,o),
(861,140,q),
(861,212,o),
(747,314,o),
(666,314,q)
);
}
);
width = 1334;
}
);
unicode = 33;
},
{
glyphname = quotedbl;
layers = (
{
layerId = "F01671F1-619E-4C0E-98FE-F2F10EEA5364";
shapes = (
{
closed = 1;
nodes = (
(316,1296,l),
(342,605,l),
(585,605,l),
(609,1296,l)
);
},
{
closed = 1;
nodes = (
(725,1296,l),
(751,605,l),
(993,605,l),
(1018,1296,l)
);
}
);
width = 1334;
}
);
unicode = 34;
},
{
glyphname = numbersign;
layers = (
{
layerId = "F01671F1-619E-4C0E-98FE-F2F10EEA5364";
shapes = (
{
closed = 1;
nodes = (
(378,1463,l),
(354,1052,l),
(118,1052,l),
(118,834,l),
(340,834,l),
(320,487,l),
(111,487,l),
(111,269,l),
(314,269,l),
(282,-163,l),
(471,-163,l),
(503,269,l),
(840,269,l),
(816,-163,l),
(1005,-163,l),
(1029,269,l),
(1264,269,l),
(1264,487,l),
(1043,487,l),
(1058,834,l),
(1276,834,l),
(1276,1052,l),
(1073,1052,l),
(1098,1463,l),
(910,1463,l),
(885,1052,l),
(547,1052,l),
(571,1463,l)
);
},
{
closed = 1;
nodes = (
(869,834,l),
(851,487,l),
(511,487,l),
(534,834,l)
);
}
);
width = 1334;
}
);
unicode = 35;
},
{
glyphname = dollar;
layers = (
{
layerId = "F01671F1-619E-4C0E-98FE-F2F10EEA5364";
shapes = (
{
closed = 1;
nodes = (
(900,1160,l),
(865,1211,o),
(785,1254,o),
(742,1262,q),
(742,1494,l),
(585,1494,l),
(585,1262,l),
(522,1256,o),
(401,1205,o),
(303,1118,o),
(242,993,o),
(242,914,q),
(242,823,o),
(316,702,o),
(420,624,o),
(538,585,o),
(585,571,q),
(585,227,l),
(524,231,o),
(449,297,o),
(407,386,o),
(389,484,o),
(384,522,q),
(206,522,l),
(216,460,o),
(233,305,o),
(233,223,q),
(233,153,o),
(223,62,o),
(218,17,q),
(398,17,l),
(418,138,l),
(456,93,o),
(524,51,o),
(585,34,q),
(585,-291,l),
(742,-291,l),
(742,34,l),
(859,51,o),
(1001,134,o),
(1078,233,o),
(1105,335,o),
(1105,376,q),
(1105,469,o),
(1035,587,o),
(929,662,o),
(800,702,o),
(742,719,q),
(742,1065,l),
(789,1052,o),
(851,987,o),
(889,905,o),
(910,804,o),
(916,755,q),
(1090,776,l),
(1082,827,o),
(1067,974,o),
(1067,1050,q),
(1067,1107,o),
(1076,1218,o),
(1080,1262,q),
(916,1262,l)
);
},
{
closed = 1;
nodes = (
(585,767,l),
(520,787,o),
(424,851,o),
(424,923,q),
(424,980,o),
(500,1063,o),
(585,1073,q)
);
},
{
closed = 1;
nodes = (
(742,531,l),
(821,513,o),
(923,449,o),
(923,378,q),
(923,329,o),
(880,271,o),
(821,240,o),
(760,227,o),
(742,225,q)
);
}
);
width = 1334;
}
);
unicode = 36;
},
{
glyphname = percent;
layers = (
{
layerId = "F01671F1-619E-4C0E-98FE-F2F10EEA5364";
shapes = (
{
closed = 1;
nodes = (
(869,609,o),
(742,551,o),
(656,460,o),
(611,346,o),
(611,289,q),
(611,229,o),
(658,115,o),
(745,25,o),
(869,-31,o),
(949,-31,q),
(1029,-31,o),
(1154,27,o),
(1241,118,o),
(1287,231,o),
(1287,289,q),
(1287,344,o),
(1243,458,o),
(1156,551,o),
(1031,609,o),
(949,609,q)
);
},
{
closed = 1;
nodes = (
(1033,458,o),
(1120,352,o),
(1120,289,q),
(1120,260,o),
(1101,200,o),
(1056,151,o),
(991,120,o),
(949,120,q),
(905,120,o),
(840,151,o),
(798,202,o),
(778,263,o),
(778,289,q),
(778,318,o),
(798,378,o),
(842,427,o),
(905,458,o),
(949,458,q)
);
},
{
closed = 1;
nodes = (
(307,1409,o),
(182,1356,o),
(96,1264,o),
(47,1149,o),
(47,1090,q),
(47,1031,o),
(91,918,o),
(176,827,o),
(303,770,o),
(384,770,q),
(467,770,o),
(592,827,o),
(678,918,o),
(723,1031,o),
(723,1090,q),
(723,1149,o),
(674,1264,o),
(587,1353,o),
(460,1409,o),
(384,1409,q)
);
},
{
closed = 1;
nodes = (
(465,1258,o),
(556,1154,o),
(556,1090,q),
(556,1020,o),
(462,920,o),
(384,920,q),
(305,920,o),
(214,1022,o),
(214,1090,q),
(214,1154,o),
(303,1258,o),
(384,1258,q)
);
},
{
closed = 1;
nodes = (
(1127,974,l),
(182,556,l),
(244,433,l),
(1190,851,l)
);
}
);
width = 1334;
}
);
unicode = 37;
},
{
glyphname = ampersand;
layers = (
{
layerId = "F01671F1-619E-4C0E-98FE-F2F10EEA5364";
shapes = (
{
closed = 1;
nodes = (
(923,687,l),
(923,683,o),
(914,660,o),
(914,656,q),
(905,624,o),
(893,587,o),
(880,554,o),
(865,513,o),
(851,480,q),
(656,774,l),
(651,778,o),
(634,806,o),
(609,840,o),
(589,869,o),
(587,876,q),
(583,880,o),
(543,952,o),
(543,987,q),
(543,1005,o),
(575,1058,o),
(636,1058,q),
(674,1058,o),
(787,1020,o),
(885,949,q),
(1033,1178,l),
(1009,1173,o),
(974,1167,o),
(958,1167,q),
(933,1167,o),
(885,1180,o),
(865,1190,q),
(861,1194,o),
(814,1209,o),
(809,1213,q),
(767,1232,o),
(689,1247,o),
(645,1247,q),
(571,1247,o),
(452,1200,o),
(367,1120,o),
(322,1018,o),
(322,963,q),
(322,891,o),
(380,776,o),
(427,707,q),
(338,660,o),
(242,545,o),
(198,437,o),
(191,354,o),
(191,338,q),
(191,278,o),
(233,153,o),
(322,51,o),
(454,-15,o),
(545,-15,q),
(605,-15,o),
(696,9,o),
(767,45,o),
(818,87,o),
(836,104,q),
(910,0,l),
(1230,0,l),
(1230,182,l),
(1054,182,l),
(976,300,l),
(993,331,o),
(1016,373,o),
(1031,414,o),
(1050,462,o),
(1060,498,q),
(1200,498,l),
(1200,687,l)
);
},
{
closed = 1;
nodes = (
(727,263,l),
(704,238,o),
(636,182,o),
(581,182,q),
(545,182,o),
(487,216,o),
(447,271,o),
(424,340,o),
(424,373,q),
(424,418,o),
(469,513,o),
(534,551,q)
);
}
);
width = 1334;
}
);
unicode = 38;
},
{
glyphname = quotesingle;
layers = (
{
layerId = "F01671F1-619E-4C0E-98FE-F2F10EEA5364";
shapes = (
{
closed = 1;
nodes = (
(498,1296,l),
(547,605,l),
(787,605,l),
(836,1296,l)
);
}
);
width = 1334;
}
);
unicode = 39;
},
{
glyphname = parenleft;
layers = (
{
layerId = "F01671F1-619E-4C0E-98FE-F2F10EEA5364";
shapes = (
{
closed = 1;
nodes = (
(885,1480,l),
(878,1472,l),
(874,1467,o),
(855,1438,o),
(851,1434,q),
(814,1376,o),
(723,1196,o),
(647,982,o),
(596,749,o),
(596,638,q),
(596,543,o),
(636,329,o),
(709,113,o),
(809,-96,o),
(869,-185,q),
(876,-193,o),
(880,-200,o),
(885,-206,q),
(1090,-206,l),
(1038,-109,o),
(938,91,o),
(861,297,o),
(812,518,o),
(812,638,q),
(812,758,o),
(863,982,o),
(942,1192,o),
(1040,1389,o),
(1090,1480,q)
);
}
);
width = 1334;
}
);
unicode = 40;
},
{
glyphname = parenright;
layers = (
{
layerId = "F01671F1-619E-4C0E-98FE-F2F10EEA5364";
shapes = (
{
closed = 1;
nodes = (
(452,-206,l),
(471,-174,o),
(509,-113,o),
(547,-47,o),
(587,31,o),
(609,82,q),
(664,212,o),
(738,500,o),
(738,638,q),
(738,691,o),
(719,863,o),
(658,1080,o),
(547,1334,o),
(458,1472,q),
(452,1472,o),
(452,1480,q),
(244,1480,l),
(297,1376,o),
(401,1175,o),
(475,971,o),
(522,755,o),
(522,638,q),
(522,518,o),
(471,293,o),
(393,87,o),
(303,-98,o),
(260,-176,q),
(258,-180,o),
(246,-202,o),
(244,-206,q)
);
}
);
width = 1334;
}
);
unicode = 41;
},
{
glyphname = asterisk;
layers = (
{
layerId = "F01671F1-619E-4C0E-98FE-F2F10EEA5364";
shapes = (
{
closed = 1;
nodes = (
(547,1296,l),
(560,993,l),
(280,1096,l),
(206,872,l),
(498,793,l),
(309,558,l),
(498,418,l),
(666,669,l),
(836,418,l),
(1025,558,l),
(836,793,l),
(1127,872,l),
(1056,1096,l),
(774,993,l),
(787,1296,l)
);
}
);
width = 1334;
}
);
unicode = 42;
},
{
glyphname = plus;
layers = (
{
layerId = "F01671F1-619E-4C0E-98FE-F2F10EEA5364";
shapes = (
{
closed = 1;
nodes = (
(569,1230,l),
(569,791,l),
(120,791,l),
(120,596,l),
(569,596,l),
(569,157,l),
(765,157,l),
(765,596,l),
(1213,596,l),
(1213,791,l),
(765,791,l),
(765,1230,l)
);
}
);
width = 1334;
}
);
unicode = 43;
},
{
glyphname = comma;
layers = (
{
layerId = "F01671F1-619E-4C0E-98FE-F2F10EEA5364";
shapes = (
{
closed = 1;
nodes = (
(536,373,l),
(342,-236,l),
(583,-236,l),
(855,373,l)
);
}
);
width = 1334;
}
);
unicode = 44;
},
{
glyphname = hyphen;
layers = (
{
layerId = "F01671F1-619E-4C0E-98FE-F2F10EEA5364";
shapes = (
{
closed = 1;
nodes = (
(420,767,l),
(420,562,l),
(914,562,l),
(914,767,l)
);
}
);
width = 1334;
}
);
unicode = 45;
},
{
glyphname = period;
layers = (
{
layerId = "F01671F1-619E-4C0E-98FE-F2F10EEA5364";
shapes = (
{
closed = 1;
nodes = (
(630,342,o),
(556,316,o),
(496,267,o),
(458,198,o),
(458,153,q),
(458,109,o),
(496,38,o),
(556,-11,o),
(630,-36,o),
(666,-36,q),
(704,-36,o),
(780,-9,o),
(840,40,o),
(876,109,o),
(876,153,q),
(876,198,o),
(838,269,o),
(778,318,o),
(702,342,o),
(666,342,q)
);
}
);
width = 1334;
}
);
unicode = 46;
},
{
glyphname = slash;
layers = (
{
layerId = "F01671F1-619E-4C0E-98FE-F2F10EEA5364";
shapes = (
{
closed = 1;
nodes = (
(1001,1610,l),
(160,-218,l),
(331,-295,l),
(1173,1536,l)
);
}
);
width = 1334;
}
);
unicode = 47;
},
{
glyphname = zero;
layers = (
{
layerId = "F01671F1-619E-4C0E-98FE-F2F10EEA5364";
shapes = (
{
closed = 1;
nodes = (
(567,1421,o),
(424,1351,o),
(325,1236,o),
(263,1084,o),
(227,925,o),
(216,762,o),
(216,696,q),
(216,596,o),
(244,344,o),
(340,120,o),
(518,-31,o),
(666,-31,q),
(816,-31,o),
(996,120,o),
(1090,344,o),
(1118,596,o),
(1118,696,q),
(1118,762,o),
(1107,923,o),
(1073,1084,o),
(1012,1234,o),
(912,1351,o),
(767,1421,o),
(666,1421,q)
);
},
{
closed = 1;
nodes = (
(751,1236,o),
(851,1118,o),
(902,949,o),
(916,765,o),
(916,696,q),
(916,634,o),
(902,449,o),
(853,276,o),
(753,153,o),
(666,153,q),
(583,153,o),
(484,269,o),
(433,437,o),
(418,624,o),
(418,696,q),
(418,840,o),
(467,1092,o),
(507,1149,q),
(551,1207,o),
(643,1236,o),
(666,1236,q)
);
}
);
width = 1334;
}
);
unicode = 48;
},
{
glyphname = one;
layers = (
{
layerId = "F01671F1-619E-4C0E-98FE-F2F10EEA5364";
shapes = (
{
closed = 1;
nodes = (
(189,1209,l),
(267,1035,l),
(589,1180,l),
(589,182,l),
(216,182,l),
(216,0,l),
(1152,0,l),
(1152,182,l),
(783,182,l),
(783,1421,l),
(662,1421,l)
);
}
);
width = 1334;
}
);
unicode = 49;
},
{
glyphname = two;
layers = (
{
layerId = "F01671F1-619E-4C0E-98FE-F2F10EEA5364";
shapes = (
{
closed = 1;
nodes = (
(893,401,l),
(893,182,l),
(454,182,l),
(669,378,l),
(783,480,o),
(940,636,o),
(1038,770,o),
(1082,898,o),
(1082,978,q),
(1082,1069,o),
(1012,1232,o),
(891,1351,o),
(727,1421,o),
(634,1421,q),
(607,1421,o),
(513,1409,o),
(396,1368,o),
(263,1279,o),
(198,1200,q),
(198,1007,l),
(398,1007,l),
(393,1029,o),
(393,1054,q),
(393,1107,o),
(447,1173,o),
(522,1211,o),
(600,1224,o),
(627,1224,q),
(687,1224,o),
(780,1187,o),
(847,1120,o),
(880,1033,o),
(880,984,q),
(880,920,o),
(834,806,o),
(696,669,o),
(520,507,o),
(346,349,o),
(198,218,o),
(155,182,q),
(155,0,l),
(1080,0,l),
(1080,401,l)
);
}
);
width = 1334;
}
);
unicode = 50;
},
{
glyphname = three;
layers = (
{
layerId = "F01671F1-619E-4C0E-98FE-F2F10EEA5364";
shapes = (
{
closed = 1;
nodes = (
(236,60,l),
(320,25,o),
(487,-31,o),
(594,-31,q),
(691,-31,o),
(865,31,o),
(993,147,o),
(1069,309,o),
(1069,411,q),
(1069,518,o),
(969,704,o),
(876,758,q),
(893,776,o),
(938,825,o),
(976,893,o),
(1003,984,o),
(1003,1047,q),
(1003,1133,o),
(931,1271,o),
(818,1370,o),
(669,1421,o),
(594,1421,q),
(471,1421,o),
(276,1321,o),
(169,1249,q),
(267,1090,l),
(329,1127,o),
(418,1180,o),
(490,1213,o),
(554,1227,o),
(592,1227,q),
(627,1227,o),
(702,1207,o),
(765,1162,o),
(804,1090,o),
(804,1038,q),
(804,961,o),
(736,874,o),
(636,834,o),
(526,825,o),
(484,825,q),
(484,640,l),
(536,645,o),
(564,645,q),
(594,645,o),
(600,645,q),
(727,645,o),
(872,522,o),
(872,409,q),
(872,344,o),
(823,249,o),
(745,187,o),
(649,157,o),
(600,157,q),
(496,157,o),
(295,236,o),
(223,274,q),
(147,96,l)
);
}
);
width = 1334;
}
);
unicode = 51;
},
{
glyphname = four;
layers = (
{
layerId = "F01671F1-619E-4C0E-98FE-F2F10EEA5364";
shapes = (
{
closed = 1;
nodes = (
(905,1421,l),
(636,1421,l),
(98,545,l),
(98,367,l),
(711,367,l),
(711,182,l),
(422,182,l),
(422,0,l),
(1118,0,l),
(1118,182,l),
(905,182,l),
(905,367,l),
(1118,367,l),
(1118,556,l),
(905,556,l)
);
},
{
closed = 1;
nodes = (
(293,556,l),
(707,1245,l),
(711,1245,l),
(711,556,l)
);
}
);
width = 1334;
}
);
unicode = 52;
},
{
glyphname = five;
layers = (
{
layerId = "F01671F1-619E-4C0E-98FE-F2F10EEA5364";
shapes = (
{
closed = 1;
nodes = (
(249,1389,l),
(249,669,l),
(352,611,l),
(373,630,o),
(429,671,o),
(498,704,o),
(583,727,o),
(634,727,q),
(698,727,o),
(800,683,o),
(874,607,o),
(914,503,o),
(914,443,q),
(914,398,o),
(887,300,o),
(821,218,o),
(702,163,o),
(611,163,q),
(556,163,o),
(452,182,o),
(358,212,o),
(280,242,o),
(251,256,q),
(249,258,o),
(236,263,o),
(231,265,q),
(163,85,l),
(231,58,o),
(346,15,o),
(454,-15,o),
(560,-31,o),
(622,-31,q),
(760,-31,o),
(949,62,o),
(1067,206,o),
(1118,376,o),
(1118,449,q),
(1118,545,o),
(1050,713,o),
(927,840,o),
(753,912,o),
(649,912,q),
(569,912,o),
(456,880,o),
(433,872,q),
(433,1198,l),
(1054,1198,l),
(1054,1389,l)
);
}
);
width = 1334;
}
);
unicode = 53;
},
{
glyphname = six;
layers = (
{
layerId = "F01671F1-619E-4C0E-98FE-F2F10EEA5364";
shapes = (
{
closed = 1;
nodes = (
(1114,1414,l),
(1078,1416,o),
(989,1421,o),
(944,1421,q),
(914,1421,o),
(793,1416,o),
(647,1383,o),
(494,1313,o),
(429,1249,q),
(354,1173,o),
(263,993,o),
(214,814,o),
(198,653,o),
(198,598,q),
(198,416,o),
(291,174,o),
(433,27,o),
(600,-34,o),
(674,-34,q),
(765,-34,o),
(918,38,o),
(1031,163,o),
(1096,327,o),
(1096,418,q),
(1096,511,o),
(1031,678,o),
(920,804,o),
(765,878,o),
(676,878,q),
(664,878,o),
(615,876,o),
(547,861,o),
(462,825,o),
(420,793,q),
(445,956,o),
(575,1131,o),
(734,1213,o),
(889,1227,o),
(940,1227,q),
(952,1227,o),
(996,1227,q),
(1043,1227,o),
(1114,1222,q)
);
},
{
closed = 1;
nodes = (
(431,554,o),
(509,632,o),
(589,674,o),
(658,685,o),
(678,685,q),
(727,685,o),
(804,640,o),
(861,567,o),
(891,469,o),
(891,418,q),
(891,297,o),
(762,160,o),
(671,160,q),
(632,160,o),
(543,195,o),
(465,274,o),
(411,398,o),
(405,487,q)
);
}
);
width = 1334;
}
);
unicode = 54;
},
{
glyphname = seven;
layers = (
{
layerId = "F01671F1-619E-4C0E-98FE-F2F10EEA5364";
shapes = (
{
closed = 1;
nodes = (
(200,1389,l),
(200,1007,l),
(391,1007,l),
(391,1200,l),
(916,1200,l),
(484,0,l),
(700,0,l),
(1129,1238,l),
(1129,1389,l)
);
}
);
width = 1334;
}
);
unicode = 55;
},
{
glyphname = eight;
layers = (
{
layerId = "F01671F1-619E-4C0E-98FE-F2F10EEA5364";
shapes = (
{
closed = 1;
nodes = (
(303,653,o),
(209,475,o),
(209,382,q),
(209,312,o),
(267,165,o),
(382,45,o),
(554,-31,o),
(666,-31,q),
(780,-31,o),
(954,47,o),
(1067,167,o),
(1124,314,o),
(1124,384,q),
(1124,422,o),
(1105,509,o),
(1063,596,o),
(996,678,o),
(946,711,q),
(1035,783,o),
(1101,954,o),
(1101,1025,q),
(1101,1109,o),
(1031,1254,o),
(914,1360,o),
(755,1421,o),
(666,1421,q),
(575,1421,o),
(418,1358,o),
(303,1251,o),
(233,1107,o),
(233,1025,q),
(233,1001,o),
(242,929,o),
(274,844,o),
(333,753,o),
(386,711,q)
);
},
{
closed = 1;
nodes = (
(713,1232,o),
(798,1203,o),
(863,1149,o),
(900,1071,o),
(900,1022,q),
(900,974,o),
(861,891,o),
(796,831,o),
(711,798,o),
(666,798,q),
(620,798,o),
(536,834,o),
(471,893,o),
(433,976,o),
(433,1022,q),
(433,1118,o),
(571,1232,o),
(666,1232,q)
);
},
{
closed = 1;
nodes = (
(729,605,o),
(825,564,o),
(891,500,o),
(925,420,o),
(925,378,q),
(925,333,o),
(885,251,o),
(816,189,o),
(723,153,o),
(666,153,q),
(611,153,o),
(518,191,o),
(449,253,o),
(409,333,o),
(409,378,q),
(409,418,o),
(443,498,o),
(507,564,o),
(602,605,o),
(666,605,q)
);
}
);
width = 1334;
}
);
unicode = 56;
},
{
glyphname = nine;
layers = (
{
layerId = "F01671F1-619E-4C0E-98FE-F2F10EEA5364";
shapes = (
{
closed = 1;
nodes = (
(149,-27,l),
(185,-29,o),
(274,-34,o),
(318,-34,q),
(349,-34,o),
(469,-29,o),
(615,4,o),
(770,74,o),
(834,138,q),
(910,214,o),
(1001,393,o),
(1050,573,o),
(1065,734,o),
(1065,789,q),
(1065,971,o),
(971,1213,o),
(829,1360,o),
(662,1421,o),
(589,1421,q),
(498,1421,o),
(344,1347,o),
(231,1224,o),
(167,1060,o),
(167,969,q),
(167,876,o),
(231,709,o),
(342,583,o),
(496,509,o),
(587,509,q),
(596,509,o),
(647,511,o),
(715,526,o),
(798,562,o),
(842,594,q),
(818,431,o),
(687,256,o),
(529,174,o),
(373,160,o),
(322,160,q),
(312,160,o),
(271,160,q),
(233,160,o),
(163,165,q)
);
},
{
closed = 1;
nodes = (
(831,834,o),
(753,755,o),
(674,713,o),
(605,702,o),
(585,702,q),
(536,702,o),
(458,747,o),
(403,821,o),
(371,918,o),
(371,969,q),
(371,1090,o),
(500,1227,o),
(592,1227,q),
(632,1227,o),
(721,1192,o),
(798,1114,o),
(851,989,o),
(859,900,q)
);
}
);
width = 1334;
}
);
unicode = 57;
},
{
glyphname = colon;
layers = (
{
layerId = "F01671F1-619E-4C0E-98FE-F2F10EEA5364";
shapes = (
{
closed = 1;
nodes = (
(585,925,o),
(458,821,o),
(458,736,q),
(458,691,o),
(496,622,o),
(556,573,o),
(630,547,o),
(666,547,q),
(702,547,o),
(778,573,o),
(838,622,o),
(876,691,o),
(876,736,q),
(876,778,o),
(840,847,o),
(783,898,o),
(707,925,o),
(666,925,q)
);
},
{
closed = 1;
nodes = (
(632,342,o),
(558,318,o),
(498,269,o),
(458,200,o),
(458,153,q),
(458,109,o),
(496,38,o),
(556,-11,o),
(630,-36,o),
(666,-36,q),
(704,-36,o),
(778,-11,o),
(838,38,o),
(876,109,o),
(876,153,q),
(876,200,o),
(838,269,o),
(778,318,o),
(702,342,o),
(666,342,q)
);
}
);
width = 1334;
}
);
unicode = 58;
},
{
glyphname = semicolon;
layers = (
{
layerId = "F01671F1-619E-4C0E-98FE-F2F10EEA5364";
shapes = (
{
closed = 1;
nodes = (
(545,376,l),
(354,-233,l),
(594,-233,l),
(865,376,l)
);
},
{
closed = 1;
nodes = (
(585,931,o),
(460,827,o),
(460,742,q),
(460,698,o),
(496,630,o),
(554,581,o),
(630,554,o),
(666,554,q),
(704,554,o),
(778,581,o),
(838,630,o),
(876,698,o),
(876,742,q),
(876,787,o),
(840,855,o),
(780,905,o),
(707,931,o),
(666,931,q)
);
}
);
width = 1334;
}
);
unicode = 59;
},
{
glyphname = less;
layers = (
{
layerId = "F01671F1-619E-4C0E-98FE-F2F10EEA5364";
shapes = (
{
closed = 1;
nodes = (
(1147,1236,l),
(11,709,l),
(1147,167,l),
(1227,344,l),
(454,707,l),
(1230,1060,l)
);
}
);
width = 1334;
}
);
unicode = 60;
},
{
glyphname = equal;
layers = (
{
layerId = "F01671F1-619E-4C0E-98FE-F2F10EEA5364";
shapes = (
{
closed = 1;
nodes = (
(120,987,l),
(120,791,l),
(1213,791,l),
(1213,987,l)
);
},
{
closed = 1;
nodes = (
(120,598,l),
(120,403,l),
(1213,403,l),
(1213,598,l)
);
}
);
width = 1334;
}
);
unicode = 61;
},
{
glyphname = greater;
layers = (
{
layerId = "F01671F1-619E-4C0E-98FE-F2F10EEA5364";
shapes = (
{
closed = 1;
nodes = (
(153,1236,l),
(72,1060,l),
(844,707,l),
(74,344,l),
(151,167,l),
(1289,709,l)
);
}
);
width = 1334;
}
);
unicode = 62;
},
{
glyphname = question;
layers = (
{
layerId = "F01671F1-619E-4C0E-98FE-F2F10EEA5364";
shapes = (
{
closed = 1;
nodes = (
(238,933,l),
(431,933,l),
(431,1084,l),
(475,1101,l),
(492,1107,o),
(536,1114,o),
(587,1120,o),
(634,1122,o),
(651,1122,q),
(694,1122,o),
(778,1098,o),
(844,1047,o),
(887,974,o),
(887,925,q),
(887,863,o),
(829,783,o),
(740,732,o),
(632,700,o),
(581,687,q),
(567,685,o),
(534,678,o),
(520,674,q),
(516,674,o),
(505,669,o),
(503,669,q),
(503,398,l),
(694,398,l),
(694,522,l),
(740,536,o),
(876,585,o),
(999,674,o),
(1084,814,o),
(1084,920,q),
(1084,999,o),
(1025,1141,o),
(910,1251,o),
(738,1316,o),
(627,1316,q),
(547,1316,o),
(407,1287,o),
(303,1251,q),
(269,1241,o),
(249,1234,o),
(238,1230,q)
);
},
{
closed = 1;
nodes = (
(509,316,o),
(403,212,o),
(403,140,q),
(403,68,o),
(511,-36,o),
(594,-36,q),
(674,-36,o),
(787,66,o),
(787,140,q),
(787,214,o),
(674,316,o),
(594,316,q)
);
}
);
width = 1334;
}
);
unicode = 63;
},
{
glyphname = at;
layers = (
{
layerId = "F01671F1-619E-4C0E-98FE-F2F10EEA5364";
shapes = (
{
closed = 1;
nodes = (
(1147,280,l),
(1092,251,o),
(978,195,o),
(859,151,o),
(725,125,o),
(649,125,q),
(503,125,o),
(327,240,o),
(233,403,o),
(204,575,o),
(204,634,q),
(204,707,o),
(244,893,o),
(349,1058,o),
(536,1169,o),
(683,1169,q),
(770,1169,o),
(931,1120,o),
(1056,1018,o),
(1129,861,o),
(1129,751,q),
(1129,687,o),
(1101,575,o),
(1052,494,o),
(984,445,o),
(949,445,q),
(912,445,o),
(872,492,o),
(872,511,q),
(872,520,o),
(878,554,o),
(885,585,o),
(891,609,o),
(893,613,q),
(996,989,l),
(834,989,l),
(823,942,l),
(800,965,o),
(749,1001,o),
(702,1001,q),
(630,1001,o),
(503,914,o),
(409,778,o),
(356,613,o),
(356,536,q),
(356,465,o),
(398,369,o),
(458,312,o),
(524,287,o),
(551,287,q),
(560,287,o),
(600,291,o),
(656,312,o),
(723,352,o),
(758,389,q),
(785,354,o),
(842,314,o),
(895,295,o),
(938,293,o),
(944,293,q),
(1007,293,o),
(1129,352,o),
(1224,462,o),
(1283,630,o),
(1283,740,q),
(1283,874,o),
(1194,1086,o),
(1033,1236,o),
(816,1316,o),
(687,1316,q),
(577,1316,o),
(352,1247,o),
(167,1086,o),
(49,823,o),
(49,624,q),
(49,469,o),
(138,227,o),
(293,60,o),
(511,-27,o),
(640,-27,q),
(793,-27,o),
(1082,68,o),
(1216,147,q)
);
},
{
closed = 1;
nodes = (
(547,443,o),
(529,465,o),
(518,494,o),
(513,522,o),
(513,529,q),
(513,577,o),
(547,689,o),
(600,783,o),
(662,844,o),
(691,844,q),
(711,844,o),
(747,798,o),
(747,755,q),
(747,709,o),
(715,600,o),
(662,505,o),
(596,443,o),
(562,443,q)
);
}
);
width = 1334;
}
);
unicode = 64;
},
{
glyphname = A;
layers = (
{
layerId = "F01671F1-619E-4C0E-98FE-F2F10EEA5364";
shapes = (
{
closed = 1;
nodes = (
(223,1296,l),
(223,1114,l),
(509,1114,l),
(129,182,l),
(0,182,l),
(0,0,l),
(526,0,l),
(526,182,l),
(329,182,l),
(416,401,l),
(916,401,l),
(1003,182,l),
(806,182,l),
(806,0,l),
(1334,0,l),
(1334,182,l),
(1209,182,l),
(758,1296,l)
);
},
{
closed = 1;
nodes = (
(844,583,l),
(492,583,l),
(666,1007,l)
);
}
);
width = 1334;
}
);
unicode = 65;
},
{
glyphname = B;
layers = (
{
layerId = "F01671F1-619E-4C0E-98FE-F2F10EEA5364";
shapes = (
{
closed = 1;
nodes = (
(76,1296,l),
(76,1114,l),
(256,1114,l),
(256,182,l),
(76,182,l),
(76,0,l),
(687,0,l),
(749,0,o),
(936,11,o),
(1111,82,o),
(1236,238,o),
(1236,380,q),
(1236,456,o),
(1190,564,o),
(1127,636,o),
(1058,676,o),
(1038,687,q),
(1082,721,o),
(1131,798,o),
(1154,869,o),
(1158,927,o),
(1158,940,q),
(1158,1022,o),
(1094,1154,o),
(1040,1200,q),
(989,1245,o),
(842,1296,o),
(707,1296,q)
);
},
{
closed = 1;
nodes = (
(702,1114,l),
(723,1114,o),
(806,1109,o),
(893,1078,o),
(961,1012,o),
(961,952,q),
(961,882,o),
(900,806,o),
(818,772,o),
(725,765,o),
(691,765,q),
(449,765,l),
(449,1114,l)
);
},
{
closed = 1;
nodes = (
(674,583,l),
(713,583,o),
(836,573,o),
(954,534,o),
(1035,447,o),
(1035,369,q),
(1035,305,o),
(982,231,o),
(889,193,o),
(760,182,o),
(683,182,q),
(449,182,l),
(449,583,l)
);
}
);
width = 1334;
}
);
unicode = 66;
},
{
glyphname = C;
layers = (
{
layerId = "F01671F1-619E-4C0E-98FE-F2F10EEA5364";
shapes = (
{
closed = 1;
nodes = (
(1230,396,l),
(1194,363,o),
(1096,280,o),
(974,206,o),
(825,155,o),
(738,155,q),
(630,155,o),
(471,242,o),
(369,386,o),
(320,569,o),
(320,664,q),
(320,780,o),
(386,961,o),
(500,1080,o),
(649,1143,o),
(729,1143,q),
(829,1143,o),
(944,1076,o),
(1009,976,o),
(1035,853,o),
(1045,800,q),
(1230,825,l),
(1220,882,o),
(1207,1007,o),
(1207,1103,q),
(1207,1169,o),
(1213,1276,o),
(1218,1318,q),
(1033,1318,l),
(1020,1194,l),
(991,1220,o),
(929,1269,o),
(851,1309,o),
(758,1334,o),
(698,1334,q),
(598,1334,o),
(391,1245,o),
(223,1076,o),
(115,825,o),
(115,662,q),
(115,518,o),
(200,265,o),
(360,74,o),
(594,-36,o),
(740,-36,q),
(861,-36,o),
(1060,34,o),
(1218,127,o),
(1330,225,o),
(1358,253,q)
);
}
);
width = 1334;
}
);
unicode = 67;
},
{
glyphname = D;
layers = (
{
layerId = "F01671F1-619E-4C0E-98FE-F2F10EEA5364";
shapes = (
{
closed = 1;
nodes = (
(51,1296,l),
(51,1114,l),
(223,1114,l),
(223,182,l),
(51,182,l),
(51,0,l),
(624,0,l),
(656,0,o),
(760,4,o),
(880,29,o),
(1005,85,o),
(1058,136,q),
(1094,169,o),
(1160,269,o),
(1213,401,o),
(1247,567,o),
(1247,669,q),
(1247,700,o),
(1241,802,o),
(1213,923,o),
(1156,1056,o),
(1058,1180,o),
(949,1251,o),
(831,1287,o),
(702,1296,o),
(632,1296,q)
);
},
{
closed = 1;
nodes = (
(634,1114,l),
(694,1114,o),
(787,1107,o),
(863,1080,o),
(927,1031,o),
(956,989,q),
(993,933,o),
(1043,776,o),
(1043,666,q),
(1043,526,o),
(971,329,o),
(916,274,q),
(882,240,o),
(802,202,o),
(723,185,o),
(651,182,o),
(624,182,q),
(416,182,l),
(416,1114,l)
);
}
);
width = 1334;
}
);
unicode = 68;
},
{
glyphname = E;
layers = (
{
layerId = "F01671F1-619E-4C0E-98FE-F2F10EEA5364";
shapes = (
{
closed = 1;
nodes = (
(100,1296,l),
(100,1114,l),
(284,1114,l),
(284,182,l),
(100,182,l),
(100,0,l),
(1230,0,l),
(1230,482,l),
(1045,482,l),
(1033,182,l),
(478,182,l),
(478,592,l),
(740,592,l),
(740,433,l),
(925,433,l),
(925,933,l),
(740,933,l),
(740,774,l),
(478,774,l),
(478,1114,l),
(1014,1114,l),
(1033,816,l),
(1218,816,l),
(1207,1296,l)
);
}
);
width = 1334;
}
);
unicode = 69;
},
{
glyphname = F;
layers = (
{
layerId = "F01671F1-619E-4C0E-98FE-F2F10EEA5364";
shapes = (
{
closed = 1;
nodes = (
(138,1296,l),
(138,1114,l),
(307,1114,l),
(307,182,l),
(138,182,l),
(138,0,l),
(783,0,l),
(783,182,l),
(500,182,l),
(500,592,l),
(762,592,l),
(762,433,l),
(946,433,l),
(946,933,l),
(762,933,l),
(762,774,l),
(500,774,l),
(500,1114,l),
(1033,1114,l),
(1060,818,l),
(1241,818,l),
(1227,1296,l)
);
}
);
width = 1334;
}
);
unicode = 70;
},
{
glyphname = G;
layers = (
{
layerId = "F01671F1-619E-4C0E-98FE-F2F10EEA5364";
shapes = (
{
closed = 1;
nodes = (
(1001,1318,l),
(987,1196,l),
(946,1241,o),
(863,1294,o),
(780,1325,o),
(707,1334,o),
(681,1334,q),
(560,1334,o),
(342,1232,o),
(178,1050,o),
(82,796,o),
(82,643,q),
(82,516,o),
(157,274,o),
(314,82,o),
(554,-36,o),
(719,-36,q),
(796,-36,o),
(938,-11,o),
(1063,27,o),
(1165,66,o),
(1203,82,q),
(1203,435,l),
(1307,435,l),
(1307,618,l),
(689,618,l),
(689,435,l),
(1009,435,l),
(1009,216,l),
(893,171,o),
(738,155,o),
(721,155,q),
(609,155,o),
(447,231,o),
(340,363,o),
(287,541,o),
(287,645,q),
(287,760,o),
(349,944,o),
(460,1073,o),
(607,1143,o),
(694,1143,q),
(796,1143,o),
(916,1071,o),
(980,967,o),
(1003,847,o),
(1009,800,q),
(1196,825,l),
(1187,867,o),
(1169,993,o),
(1169,1101,q),
(1169,1169,o),
(1173,1276,o),
(1178,1318,q)
);
}
);
width = 1334;
}
);
unicode = 71;
},
{
glyphname = H;
layers = (
{
layerId = "F01671F1-619E-4C0E-98FE-F2F10EEA5364";
shapes = (
{
closed = 1;
nodes = (
(62,1296,l),
(62,1114,l),
(225,1114,l),
(225,182,l),
(62,182,l),
(62,0,l),
(577,0,l),
(577,182,l),
(418,182,l),
(418,577,l),
(916,577,l),
(916,182,l),
(755,182,l),
(755,0,l),
(1271,0,l),
(1271,182,l),
(1109,182,l),
(1109,1114,l),
(1271,1114,l),
(1271,1296,l),
(755,1296,l),
(755,1114,l),
(916,1114,l),
(916,760,l),
(418,760,l),
(418,1114,l),
(577,1114,l),
(577,1296,l)
);
}
);
width = 1334;
}
);
unicode = 72;
},
{
glyphname = I;
layers = (
{
layerId = "F01671F1-619E-4C0E-98FE-F2F10EEA5364";
shapes = (
{
closed = 1;
nodes = (
(195,1296,l),
(195,1114,l),
(571,1114,l),
(571,182,l),
(195,182,l),
(195,0,l),
(1141,0,l),
(1141,182,l),
(765,182,l),
(765,1114,l),
(1141,1114,l),
(1141,1296,l)
);
}
);
width = 1334;
}
);
unicode = 73;
},
{
glyphname = J;
layers = (
{
layerId = "F01671F1-619E-4C0E-98FE-F2F10EEA5364";
shapes = (
{
closed = 1;
nodes = (
(420,1296,l),
(420,1114,l),
(842,1114,l),
(842,482,l),
(842,414,o),
(834,295,o),
(791,206,o),
(700,155,o),
(618,155,q),
(569,155,o),
(454,178,o),
(403,206,q),
(344,238,o),
(312,325,o),
(307,403,q),
(295,653,l),
(104,653,l),
(127,109,l),
(212,64,o),
(356,7,o),
(478,-25,o),
(583,-36,o),
(624,-36,q),
(640,-36,o),
(725,-29,o),
(825,0,o),
(929,64,o),
(967,123,q),
(1016,198,o),
(1035,393,o),
(1035,482,q),
(1035,1114,l),
(1311,1114,l),
(1311,1296,l)
);
}
);
width = 1334;
}
);
unicode = 74;
},
{
glyphname = K;
layers = (
{
layerId = "F01671F1-619E-4C0E-98FE-F2F10EEA5364";
shapes = (
{
closed = 1;
nodes = (
(106,1296,l),
(106,1114,l),
(289,1114,l),
(289,182,l),
(106,182,l),
(106,0,l),
(664,0,l),
(664,182,l),
(482,182,l),
(482,467,l),
(596,573,l),
(715,503,o),
(898,214,o),
(980,0,q),
(1330,0,l),
(1330,182,l),
(1116,182,l),
(1078,260,o),
(1003,411,o),
(914,545,o),
(804,662,o),
(734,707,q),
(1145,1114,l),
(1267,1114,l),
(1267,1296,l),
(760,1296,l),
(760,1114,l),
(893,1114,l),
(482,713,l),
(482,1114,l),
(664,1114,l),
(664,1296,l)
);
}
);
width = 1334;
}
);
unicode = 75;
},
{
glyphname = L;
layers = (
{
layerId = "F01671F1-619E-4C0E-98FE-F2F10EEA5364";
shapes = (
{
closed = 1;
nodes = (
(106,1296,l),
(106,1114,l),
(320,1114,l),
(320,182,l),
(106,182,l),
(106,0,l),
(1227,0,l),
(1256,622,l),
(1067,622,l),
(1038,182,l),
(513,182,l),
(513,1114,l),
(780,1114,l),
(780,1296,l)
);
}
);
width = 1334;
}
);
unicode = 76;
},
{
glyphname = M;
layers = (
{
layerId = "F01671F1-619E-4C0E-98FE-F2F10EEA5364";
shapes = (
{
closed = 1;
nodes = (
(653,643,l),
(433,1296,l),
(7,1296,l),
(7,1114,l),
(149,1114,l),
(136,182,l),
(7,182,l),
(7,0,l),
(556,0,l),
(556,182,l),
(322,182,l),
(333,974,l),
(360,974,l),
(569,342,l),
(765,342,l),
(976,974,l),
(1003,974,l),
(1014,182,l),
(780,182,l),
(780,0,l),
(1330,0,l),
(1330,182,l),
(1200,182,l),
(1187,1114,l),
(1325,1114,l),
(1325,1296,l),
(898,1296,l),
(694,643,l)
);
}
);
width = 1334;
}
);
unicode = 77;
},
{
glyphname = N;
layers = (
{
layerId = "F01671F1-619E-4C0E-98FE-F2F10EEA5364";
shapes = (
{
closed = 1;
nodes = (
(11,1296,l),
(11,1114,l),
(185,1114,l),
(185,182,l),
(11,182,l),
(11,0,l),
(587,0,l),
(587,182,l),
(363,182,l),
(363,952,l),
(403,952,l),
(933,-27,l),
(1171,-27,l),
(1171,1114,l),
(1321,1114,l),
(1321,1296,l),
(772,1296,l),
(772,1114,l),
(993,1114,l),
(993,333,l),
(956,333,l),
(435,1296,l)
);
}
);
width = 1334;
}
);
unicode = 78;
},
{
glyphname = O;
layers = (
{
layerId = "F01671F1-619E-4C0E-98FE-F2F10EEA5364";
shapes = (
{
closed = 1;
nodes = (
(72,505,o),
(155,256,o),
(314,72,o),
(534,-36,o),
(666,-36,q),
(802,-36,o),
(1022,72,o),
(1178,258,o),
(1262,507,o),
(1262,649,q),
(1262,789,o),
(1178,1038,o),
(1022,1224,o),
(802,1334,o),
(666,1334,q),
(531,1334,o),
(312,1224,o),
(155,1038,o),
(72,787,o),
(72,647,q)
);
},
{
closed = 1;
nodes = (
(276,745,o),
(329,925,o),
(429,1060,o),
(573,1143,o),
(666,1143,q),
(762,1143,o),
(907,1058,o),
(1007,920,o),
(1058,742,o),
(1058,649,q),
(1058,551,o),
(1005,371,o),
(905,236,o),
(760,155,o),
(666,155,q),
(575,155,o),
(429,236,o),
(329,373,o),
(276,551,o),
(276,649,q)
);
}
);
width = 1334;
}
);
unicode = 79;
},
{
glyphname = P;
layers = (
{
layerId = "F01671F1-619E-4C0E-98FE-F2F10EEA5364";
shapes = (
{
closed = 1;
nodes = (
(180,1296,l),
(180,1114,l),
(352,1114,l),
(352,182,l),
(180,182,l),
(180,0,l),
(861,0,l),
(861,182,l),
(545,182,l),
(545,473,l),
(622,473,l),
(721,473,o),
(853,478,o),
(956,492,o),
(1038,520,o),
(1082,547,q),
(1160,592,o),
(1258,776,o),
(1258,876,q),
(1258,987,o),
(1143,1183,o),
(1050,1234,q),
(984,1269,o),
(829,1296,o),
(711,1296,q)
);
},
{
closed = 1;
nodes = (
(713,1114,l),
(770,1114,o),
(842,1109,o),
(895,1098,o),
(931,1084,o),
(949,1076,q),
(989,1054,o),
(1054,952,o),
(1054,882,q),
(1054,812,o),
(989,715,o),
(965,702,q),
(944,691,o),
(900,674,o),
(827,662,o),
(713,656,o),
(624,656,q),
(545,656,l),
(545,1114,l)
);
}
);
width = 1334;
}
);
unicode = 80;
},
{
glyphname = Q;
layers = (
{
layerId = "F01671F1-619E-4C0E-98FE-F2F10EEA5364";
shapes = (
{
closed = 1;
nodes = (
(1145,-7,l),
(1105,-38,o),
(1016,-85,o),
(976,-85,q),
(938,-85,o),
(825,-45,o),
(787,-13,q),
(758,-13,l),
(758,-9,l),
(783,-9,o),
(876,13,o),
(989,66,o),
(1105,160,o),
(1200,305,o),
(1260,509,o),
(1260,647,q),
(1260,809,o),
(1165,1063,o),
(1003,1241,o),
(785,1334,o),
(664,1334,q),
(547,1334,o),
(333,1243,o),
(171,1069,o),
(74,818,o),
(74,656,q),
(74,536,o),
(138,284,o),
(229,171,q),
(284,102,o),
(386,42,o),
(437,17,q),
(409,-13,o),
(371,-49,o),
(335,-78,o),
(297,-102,o),
(269,-118,q),
(363,-278,l),
(365,-276,o),
(378,-269,o),
(380,-267,q),
(424,-240,o),
(492,-204,o),
(547,-182,o),
(598,-174,o),
(632,-174,q),
(664,-174,o),
(727,-187,o),
(780,-212,q),
(838,-236,o),
(925,-265,o),
(982,-265,q),
(1067,-265,o),
(1185,-200,o),
(1241,-163,q),
(1260,-149,l)
);
},
{
closed = 1;
nodes = (
(585,163,o),
(447,220,o),
(340,340,o),
(278,526,o),
(278,656,q),
(278,802,o),
(363,991,o),
(482,1101,o),
(615,1143,o),
(664,1143,q),
(704,1143,o),
(836,1109,o),
(963,1003,o),
(1056,806,o),
(1056,645,q),
(1056,526,o),
(1005,365,o),
(927,256,o),
(834,198,o),
(745,169,o),
(674,163,o),
(658,163,q)
);
}
);
width = 1334;
}
);
unicode = 81;
},
{
glyphname = R;
layers = (
{
layerId = "F01671F1-619E-4C0E-98FE-F2F10EEA5364";
shapes = (
{
closed = 1;
nodes = (
(78,1296,l),
(78,1114,l),
(251,1114,l),
(251,182,l),
(78,182,l),
(78,0,l),
(638,0,l),
(638,182,l),
(445,182,l),
(445,554,l),
(558,554,l),
(585,554,o),
(624,541,o),
(664,505,o),
(713,441,o),
(749,386,q),
(751,384,o),
(793,316,o),
(859,206,o),
(931,72,o),
(965,0,q),
(1307,0,l),
(1307,182,l),
(1098,182,l),
(1040,278,o),
(965,405,o),
(910,492,o),
(869,549,o),
(849,575,q),
(956,607,o),
(1071,713,o),
(1127,823,o),
(1136,914,o),
(1136,931,q),
(1136,1020,o),
(1054,1185,o),
(989,1230,q),
(923,1276,o),
(776,1296,o),
(671,1296,q)
);
},
{
closed = 1;
nodes = (
(671,1114,l),
(732,1114,o),
(827,1101,o),
(895,1063,o),
(931,993,o),
(931,938,q),
(931,859,o),
(851,774,o),
(745,738,o),
(638,736,o),
(609,736,q),
(445,736,l),
(445,1114,l)
);
}
);
width = 1334;
}
);
unicode = 82;
},
{
glyphname = S;
layers = (
{
layerId = "F01671F1-619E-4C0E-98FE-F2F10EEA5364";
shapes = (
{
closed = 1;
nodes = (
(967,1318,l),
(949,1194,l),
(936,1207,o),
(889,1254,o),
(816,1300,o),
(713,1334,o),
(647,1334,q),
(564,1334,o),
(401,1271,o),
(271,1162,o),
(189,1012,o),
(189,923,q),
(189,840,o),
(244,723,o),
(333,640,o),
(445,589,o),
(560,560,o),
(664,547,o),
(704,543,q),
(755,538,o),
(849,520,o),
(923,480,o),
(967,416,o),
(967,365,q),
(967,307,o),
(912,227,o),
(825,178,o),
(721,155,o),
(671,155,q),
(592,155,o),
(480,204,o),
(409,289,o),
(376,401,o),
(369,462,q),
(191,462,l),
(195,409,o),
(209,209,o),
(209,106,q),
(209,51,o),
(206,-9,o),
(202,-42,q),
(382,-42,l),
(401,91,l),
(420,68,o),
(469,25,o),
(538,-13,o),
(634,-36,o),
(700,-36,q),
(798,-36,o),
(967,27,o),
(1094,136,o),
(1167,282,o),
(1167,369,q),
(1167,478,o),
(1069,620,o),
(1009,658,q),
(942,700,o),
(793,727,o),
(683,740,q),
(647,745,o),
(547,760,o),
(454,798,o),
(389,869,o),
(389,927,q),
(389,963,o),
(420,1038,o),
(492,1101,o),
(598,1143,o),
(676,1143,q),
(774,1143,o),
(887,1069,o),
(949,963,o),
(971,844,o),
(978,800,q),
(1154,825,l),
(1154,829,o),
(1152,874,o),
(1149,878,q),
(1145,918,o),
(1136,1056,o),
(1136,1127,q),
(1136,1185,o),
(1141,1281,o),
(1145,1318,q)
);
}
);
width = 1334;
}
);
unicode = 83;
},
{
glyphname = T;
layers = (
{
layerId = "F01671F1-619E-4C0E-98FE-F2F10EEA5364";
shapes = (
{
closed = 1;
nodes = (
(111,1296,l),
(68,709,l),
(260,683,l),
(289,1114,l),
(571,1114,l),
(571,182,l),
(314,182,l),
(314,0,l),
(1027,0,l),
(1027,182,l),
(765,182,l),
(765,1114,l),
(1047,1114,l),
(1076,683,l),
(1267,709,l),
(1224,1296,l)
);
}
);
width = 1334;
}
);
unicode = 84;
},
{
glyphname = U;
layers = (
{
layerId = "F01671F1-619E-4C0E-98FE-F2F10EEA5364";
shapes = (
{
closed = 1;
nodes = (
(34,1296,l),
(34,1114,l),
(187,1114,l),
(187,547,l),
(187,511,o),
(189,414,o),
(204,305,o),
(236,195,o),
(267,151,q),
(303,98,o),
(403,25,o),
(509,-17,o),
(620,-36,o),
(666,-36,q),
(742,-36,o),
(859,-17,o),
(952,25,o),
(1029,96,o),
(1067,151,q),
(1098,198,o),
(1131,307,o),
(1145,414,o),
(1147,511,o),
(1147,547,q),
(1147,1114,l),
(1300,1114,l),
(1300,1296,l),
(736,1296,l),
(736,1114,l),
(954,1114,l),
(954,547,l),
(954,475,o),
(942,335,o),
(887,225,o),
(772,155,o),
(666,155,q),
(562,155,o),
(447,225,o),
(391,335,o),
(380,475,o),
(380,547,q),
(380,1114,l),
(598,1114,l),
(598,1296,l)
);
}
);
width = 1334;
}
);
unicode = 85;
},
{
glyphname = V;
layers = (
{
layerId = "F01671F1-619E-4C0E-98FE-F2F10EEA5364";
shapes = (
{
closed = 1;
nodes = (
(674,276,l),
(365,1114,l),
(547,1114,l),
(547,1296,l),
(0,1296,l),
(0,1114,l),
(160,1114,l),
(575,0,l),
(767,0,l),
(1187,1114,l),
(1334,1114,l),
(1334,1296,l),
(789,1296,l),
(789,1114,l),
(989,1114,l)
);
}
);
width = 1334;
}
);
unicode = 86;
},
{
glyphname = W;
layers = (
{
layerId = "F01671F1-619E-4C0E-98FE-F2F10EEA5364";
shapes = (
{
closed = 1;
nodes = (
(0,1296,l),
(0,1114,l),
(106,1114,l),
(240,0,l),
(416,0,l),
(656,683,l),
(660,683,l),
(910,0,l),
(1084,0,l),
(1230,1114,l),
(1334,1114,l),
(1334,1296,l),
(827,1296,l),
(827,1114,l),
(1043,1114,l),
(963,435,l),
(958,435,l),
(738,1022,l),
(605,1022,l),
(378,435,l),
(373,435,l),
(297,1114,l),
(511,1114,l),
(511,1296,l)
);
}
);
width = 1334;
}
);
unicode = 87;
},
{
glyphname = X;
layers = (
{
layerId = "F01671F1-619E-4C0E-98FE-F2F10EEA5364";
shapes = (
{
closed = 1;
nodes = (
(91,1296,l),
(91,1114,l),
(227,1114,l),
(554,678,l),
(180,182,l),
(49,182,l),
(49,0,l),
(594,0,l),
(594,182,l),
(411,182,l),
(669,526,l),
(914,182,l),
(762,182,l),
(762,0,l),
(1285,0,l),
(1285,182,l),
(1152,182,l),
(783,678,l),
(1111,1114,l),
(1243,1114,l),
(1243,1296,l),
(762,1296,l),
(762,1114,l),
(880,1114,l),
(669,825,l),
(462,1114,l),
(594,1114,l),
(594,1296,l)
);
}
);
width = 1334;
}
);
unicode = 88;
},
{
glyphname = Y;
layers = (
{
layerId = "F01671F1-619E-4C0E-98FE-F2F10EEA5364";
shapes = (
{
closed = 1;
nodes = (
(47,1296,l),
(47,1114,l),
(202,1114,l),
(573,498,l),
(573,182,l),
(316,182,l),
(316,0,l),
(1018,0,l),
(1018,182,l),
(765,182,l),
(765,498,l),
(1131,1114,l),
(1287,1114,l),
(1287,1296,l),
(783,1296,l),
(783,1114,l),
(916,1114,l),
(674,702,l),
(427,1114,l),
(556,1114,l),
(556,1296,l)
);
}
);
width = 1334;
}
);
unicode = 89;
},
{
glyphname = Z;
layers = (
{
layerId = "F01671F1-619E-4C0E-98FE-F2F10EEA5364";
shapes = (
{
closed = 1;
nodes = (
(174,1296,l),
(174,796,l),
(367,796,l),
(367,1114,l),
(859,1114,l),
(160,155,l),
(160,0,l),
(1173,0,l),
(1173,534,l),
(980,534,l),
(980,182,l),
(418,182,l),
(1124,1149,l),
(1124,1296,l)
);
}
);
width = 1334;
}
);
unicode = 90;
},
{
glyphname = bracketleft;
layers = (
{
layerId = "F01671F1-619E-4C0E-98FE-F2F10EEA5364";
shapes = (
{
closed = 1;
nodes = (
(645,1494,l),
(645,-202,l),
(1107,-202,l),
(1107,-9,l),
(838,-9,l),
(838,1296,l),
(1107,1296,l),
(1107,1494,l)
);
}
);
width = 1334;
}
);
unicode = 91;
},
{
glyphname = backslash;
layers = (
{
layerId = "F01671F1-619E-4C0E-98FE-F2F10EEA5364";
shapes = (
{
closed = 1;
nodes = (
(331,1616,l),
(160,1540,l),
(1001,-309,l),
(1173,-231,l)
);
}
);
width = 1334;
}
);
unicode = 92;
},
{
glyphname = bracketright;
layers = (
{
layerId = "F01671F1-619E-4C0E-98FE-F2F10EEA5364";
shapes = (
{
closed = 1;
nodes = (
(689,-202,l),
(689,1494,l),
(227,1494,l),
(227,1296,l),
(496,1296,l),
(496,-9,l),
(227,-9,l),
(227,-202,l)
);
}
);
width = 1334;
}
);
unicode = 93;
},
{
glyphname = asciicircum;
layers = (
{
layerId = "F01671F1-619E-4C0E-98FE-F2F10EEA5364";
shapes = (
{
closed = 1;
nodes = (
(1194,340,l),
(809,1296,l),
(511,1296,l),
(140,340,l),
(378,340,l),
(660,1069,l),
(956,340,l)
);
}
);
width = 1334;
}
);
unicode = 94;
},
{
glyphname = underscore;
layers = (
{
layerId = "F01671F1-619E-4C0E-98FE-F2F10EEA5364";
shapes = (
{
closed = 1;
nodes = (
(-106,-167,l),
(-106,-278,l),
(1440,-278,l),
(1440,-167,l)
);
}
);
width = 1334;
}
);
unicode = 95;
},
{
glyphname = grave;
layers = (
{
layerId = "F01671F1-619E-4C0E-98FE-F2F10EEA5364";
shapes = (
{
closed = 1;
nodes = (
(346,1419,l),
(719,1209,l),
(912,1209,l),
(678,1427,l),
(346,1427,l)
);
}
);
width = 1334;
}
);
unicode = 96;
},
{
glyphname = a;
layers = (
{
layerId = "F01671F1-619E-4C0E-98FE-F2F10EEA5364";
shapes = (
{
closed = 1;
nodes = (
(1056,683,l),
(1056,853,o),
(861,1054,o),
(647,1054,q),
(511,1054,o),
(282,980,o),
(180,938,q),
(256,760,l),
(287,774,o),
(371,809,o),
(473,840,o),
(587,863,o),
(645,863,q),
(727,863,o),
(816,823,o),
(855,762,o),
(863,694,o),
(863,664,q),
(802,671,o),
(685,683,o),
(609,683,q),
(462,683,o),
(269,607,o),
(153,494,o),
(106,367,o),
(106,316,q),
(106,251,o),
(163,127,o),
(265,29,o),
(407,-31,o),
(496,-31,q),
(562,-31,o),
(674,-2,o),
(762,38,o),
(836,87,o),
(863,106,q),
(863,0,l),
(1247,0,l),
(1247,182,l),
(1056,182,l)
);
},
{
closed = 1;
nodes = (
(863,360,l),
(798,289,o),
(681,209,o),
(583,169,o),
(509,160,o),
(494,160,q),
(458,160,o),
(391,185,o),
(338,227,o),
(307,282,o),
(307,314,q),
(307,322,o),
(320,384,o),
(382,449,o),
(513,500,o),
(632,500,q),
(696,500,o),
(804,484,o),
(863,475,q)
);
}
);
width = 1334;
}
);
unicode = 97;
},
{
glyphname = b;
layers = (
{
layerId = "F01671F1-619E-4C0E-98FE-F2F10EEA5364";
shapes = (
{
closed = 1;
nodes = (
(0,1419,l),
(13,1230,l),
(185,1238,l),
(185,182,l),
(13,182,l),
(13,0,l),
(378,0,l),
(378,98,l),
(431,55,o),
(529,9,o),
(615,-15,o),
(689,-22,o),
(713,-22,q),
(829,-22,o),
(1018,66,o),
(1156,212,o),
(1232,398,o),
(1232,496,q),
(1232,602,o),
(1147,793,o),
(1005,933,o),
(814,1016,o),
(704,1016,q),
(611,1016,o),
(452,954,o),
(378,893,q),
(378,1440,l)
);
},
{
closed = 1;
nodes = (
(378,562,o),
(429,681,o),
(520,772,o),
(640,825,o),
(709,825,q),
(776,825,o),
(893,774,o),
(978,683,o),
(1027,562,o),
(1027,496,q),
(1027,429,o),
(980,312,o),
(898,223,o),
(780,169,o),
(711,169,q),
(640,169,o),
(518,223,o),
(429,314,o),
(378,431,o),
(378,498,q)
);
}
);
width = 1334;
}
);
unicode = 98;
},
{
glyphname = c;
layers = (
{
layerId = "F01671F1-619E-4C0E-98FE-F2F10EEA5364";
shapes = (
{
closed = 1;
nodes = (
(1009,1038,l),
(989,916,l),
(905,987,o),
(758,1038,o),
(674,1038,q),
(543,1038,o),
(340,944,o),
(202,791,o),
(131,600,o),
(131,503,q),
(131,389,o),
(212,195,o),
(358,51,o),
(560,-31,o),
(681,-31,q),
(778,-31,o),
(956,22,o),
(1105,98,o),
(1220,180,o),
(1260,212,q),
(1154,363,l),
(1105,329,o),
(996,256,o),
(878,198,o),
(753,160,o),
(689,160,q),
(592,160,o),
(458,225,o),
(373,327,o),
(335,447,o),
(335,505,q),
(335,541,o),
(363,656,o),
(443,767,o),
(587,847,o),
(704,847,q),
(800,847,o),
(910,802,o),
(967,727,o),
(989,630,o),
(996,577,q),
(1183,602,l),
(1178,640,o),
(1169,734,o),
(1169,798,q),
(1169,859,o),
(1178,976,o),
(1183,1020,q)
);
}
);
width = 1334;
}
);
unicode = 99;
},
{
glyphname = d;
layers = (
{
layerId = "F01671F1-619E-4C0E-98FE-F2F10EEA5364";
shapes = (
{
closed = 1;
nodes = (
(602,1394,l),
(583,1205,l),
(940,1232,l),
(940,900,l),
(869,958,o),
(694,1016,o),
(611,1016,q),
(513,1016,o),
(329,942,o),
(187,804,o),
(98,613,o),
(98,498,q),
(98,393,o),
(178,204,o),
(316,62,o),
(505,-22,o),
(615,-22,q),
(638,-22,o),
(711,-15,o),
(798,9,o),
(893,53,o),
(940,93,q),
(940,0,l),
(1313,0,l),
(1313,182,l),
(1133,182,l),
(1133,1440,l)
);
},
{
closed = 1;
nodes = (
(936,424,o),
(882,305,o),
(796,218,o),
(681,169,o),
(618,169,q),
(554,169,o),
(441,218,o),
(354,307,o),
(303,427,o),
(303,500,q),
(303,573,o),
(354,694,o),
(441,778,o),
(556,825,o),
(618,825,q),
(698,825,o),
(818,762,o),
(895,666,o),
(936,549,o),
(936,496,q)
);
}
);
width = 1334;
}
);
unicode = 100;
},
{
glyphname = e;
layers = (
{
layerId = "F01671F1-619E-4C0E-98FE-F2F10EEA5364";
shapes = (
{
closed = 1;
nodes = (
(1192,320,l),
(1147,293,o),
(1033,236,o),
(907,189,o),
(770,160,o),
(700,160,q),
(592,160,o),
(458,223,o),
(380,309,o),
(346,401,o),
(340,431,q),
(1211,431,l),
(1213,447,o),
(1218,529,o),
(1218,567,q),
(1218,649,o),
(1152,816,o),
(1018,952,o),
(821,1038,o),
(689,1038,q),
(560,1038,o),
(356,949,o),
(212,800,o),
(136,605,o),
(136,498,q),
(136,393,o),
(209,202,o),
(352,55,o),
(564,-31,o),
(704,-31,q),
(836,-31,o),
(1129,62,o),
(1281,149,q)
);
},
{
closed = 1;
nodes = (
(354,613,l),
(363,636,o),
(401,713,o),
(475,791,o),
(598,847,o),
(691,847,q),
(713,847,o),
(804,838,o),
(902,793,o),
(991,700,o),
(1014,613,q)
);
}
);
width = 1334;
}
);
unicode = 101;
},
{
glyphname = f;
layers = (
{
layerId = "F01671F1-619E-4C0E-98FE-F2F10EEA5364";
shapes = (
{
closed = 1;
nodes = (
(187,984,l),
(187,802,l),
(411,802,l),
(411,182,l),
(187,182,l),
(187,0,l),
(1063,0,l),
(1063,182,l),
(605,182,l),
(605,802,l),
(1063,802,l),
(1063,984,l),
(605,984,l),
(605,1060,l),
(605,1105,o),
(609,1171,o),
(638,1216,o),
(704,1238,o),
(767,1238,q),
(804,1238,o),
(961,1224,o),
(1080,1200,q),
(1158,1391,l),
(1107,1400,o),
(902,1429,o),
(791,1429,q),
(653,1429,o),
(503,1360,o),
(427,1251,o),
(411,1122,o),
(411,1063,q),
(411,984,l)
);
}
);
width = 1334;
}
);
unicode = 102;
},
{
glyphname = g;
layers = (
{
layerId = "F01671F1-619E-4C0E-98FE-F2F10EEA5364";
shapes = (
{
closed = 1;
nodes = (
(885,1007,l),
(885,912,l),
(814,969,o),
(647,1016,o),
(583,1016,q),
(484,1016,o),
(303,940,o),
(163,806,o),
(80,624,o),
(80,516,q),
(80,416,o),
(157,233,o),
(291,98,o),
(473,17,o),
(581,17,q),
(645,17,o),
(745,42,o),
(821,78,o),
(872,115,o),
(885,127,q),
(885,82,o),
(880,4,o),
(859,-62,o),
(809,-115,o),
(762,-131,q),
(745,-138,o),
(698,-147,o),
(613,-153,o),
(473,-155,o),
(360,-155,q),
(360,-338,l),
(592,-338,l),
(698,-338,o),
(876,-303,o),
(1005,-204,o),
(1078,-34,o),
(1078,100,q),
(1078,825,l),
(1254,825,l),
(1254,1007,l)
);
},
{
closed = 1;
nodes = (
(885,454,o),
(840,344,o),
(762,260,o),
(653,209,o),
(587,209,q),
(524,209,o),
(414,258,o),
(331,340,o),
(284,454,o),
(284,518,q),
(284,585,o),
(335,698,o),
(420,780,o),
(531,825,o),
(589,825,q),
(647,825,o),
(753,780,o),
(836,698,o),
(885,583,o),
(885,513,q)
);
}
);
width = 1334;
}
);
unicode = 103;
},
{
glyphname = h;
layers = (
{
layerId = "F01671F1-619E-4C0E-98FE-F2F10EEA5364";
shapes = (
{
closed = 1;
nodes = (
(27,1409,l),
(42,1222,l),
(242,1236,l),
(242,182,l),
(58,182,l),
(58,0,l),
(605,0,l),
(605,182,l),
(435,182,l),
(435,696,l),
(503,745,o),
(602,804,o),
(683,836,o),
(740,847,o),
(762,847,q),
(806,847,o),
(869,809,o),
(910,749,o),
(929,671,o),
(929,632,q),
(929,182,l),
(742,182,l),
(742,0,l),
(1302,0,l),
(1302,182,l),
(1122,182,l),
(1122,640,l),
(1122,727,o),
(1071,874,o),
(976,980,o),
(840,1038,o),
(758,1038,q),
(702,1038,o),
(607,1014,o),
(526,976,o),
(462,931,o),
(435,914,q),
(435,1440,l)
);
}
);
width = 1334;
}
);
unicode = 104;
},
{
glyphname = i;
layers = (
{
layerId = "F01671F1-619E-4C0E-98FE-F2F10EEA5364";
shapes = (
{
closed = 1;
nodes = (
(256,1007,l),
(256,825,l),
(573,825,l),
(573,182,l),
(195,182,l),
(195,0,l),
(1139,0,l),
(1139,182,l),
(767,182,l),
(767,1007,l)
);
},
{
closed = 1;
nodes = (
(531,1200,l),
(767,1200,l),
(767,1494,l),
(531,1494,l)
);
}
);
width = 1334;
}
);
unicode = 105;
},
{
glyphname = j;
layers = (
{
layerId = "F01671F1-619E-4C0E-98FE-F2F10EEA5364";
shapes = (
{
closed = 1;
nodes = (
(160,1007,l),
(160,825,l),
(711,825,l),
(711,140,l),
(711,93,o),
(702,-4,o),
(656,-82,o),
(554,-134,o),
(462,-134,q),
(380,-134,o),
(229,-104,o),
(160,-91,q),
(115,-278,l),
(187,-293,o),
(360,-325,o),
(460,-325,q),
(571,-325,o),
(725,-274,o),
(823,-189,o),
(876,-87,o),
(900,13,o),
(905,104,o),
(905,131,q),
(905,1007,l)
);
},
{
closed = 1;
nodes = (
(627,1200,l),
(863,1200,l),
(863,1494,l),
(627,1494,l)
);
}
);
width = 1334;
}
);
unicode = 106;
},
{
glyphname = k;
layers = (
{
layerId = "F01671F1-619E-4C0E-98FE-F2F10EEA5364";
shapes = (
{
closed = 1;
nodes = (
(53,1405,l),
(72,1218,l),
(271,1236,l),
(271,182,l),
(93,182,l),
(93,0,l),
(465,0,l),
(465,416,l),
(538,471,l),
(556,454,o),
(632,382,o),
(715,295,o),
(798,212,o),
(825,182,q),
(742,182,l),
(742,0,l),
(1274,0,l),
(1274,182,l),
(1071,182,l),
(929,349,o),
(742,541,o),
(691,585,q),
(1047,825,l),
(1194,825,l),
(1194,1007,l),
(645,1007,l),
(645,825,l),
(745,825,l),
(745,821,l),
(465,647,l),
(465,1440,l)
);
}
);
width = 1334;
}
);
unicode = 107;
},
{
glyphname = l;
layers = (
{
layerId = "F01671F1-619E-4C0E-98FE-F2F10EEA5364";
shapes = (
{
closed = 1;
nodes = (
(204,1402,l),
(223,1218,l),
(569,1241,l),
(569,182,l),
(195,182,l),
(195,0,l),
(1136,0,l),
(1136,182,l),
(762,182,l),
(762,1440,l)
);
}
);
width = 1334;
}
);
unicode = 108;
},
{
glyphname = m;
layers = (
{
layerId = "F01671F1-619E-4C0E-98FE-F2F10EEA5364";
shapes = (
{
closed = 1;
nodes = (
(0,1007,l),
(0,825,l),
(127,825,l),
(127,182,l),
(0,182,l),
(0,0,l),
(473,0,l),
(473,182,l),
(320,182,l),
(320,751,l),
(358,789,o),
(437,847,o),
(484,847,q),
(520,847,o),
(560,804,o),
(581,740,o),
(583,666,o),
(583,636,q),
(583,0,l),
(907,0,l),
(907,182,l),
(776,182,l),
(776,732,l),
(806,770,o),
(882,847,o),
(940,847,q),
(976,847,o),
(1016,814,o),
(1035,755,o),
(1038,676,o),
(1038,627,q),
(1038,0,l),
(1334,0,l),
(1334,182,l),
(1232,182,l),
(1232,627,l),
(1232,669,o),
(1222,809,o),
(1169,942,o),
(1054,1038,o),
(949,1038,q),
(865,1038,o),
(751,965,o),
(713,933,q),
(707,942,o),
(681,978,o),
(636,1012,o),
(573,1038,o),
(531,1038,q),
(492,1038,o),
(427,1016,o),
(373,982,o),
(331,946,o),
(318,933,q),
(318,1007,l)
);
}
);
width = 1334;
}
);
unicode = 109;
},
{
glyphname = n;
layers = (
{
layerId = "F01671F1-619E-4C0E-98FE-F2F10EEA5364";
shapes = (
{
closed = 1;
nodes = (
(51,1007,l),
(51,825,l),
(231,825,l),
(231,182,l),
(47,182,l),
(47,0,l),
(594,0,l),
(594,182,l),
(424,182,l),
(424,696,l),
(460,723,o),
(536,776,o),
(618,818,o),
(704,847,o),
(751,847,q),
(834,847,o),
(918,721,o),
(918,630,q),
(918,182,l),
(732,182,l),
(732,0,l),
(1292,0,l),
(1292,182,l),
(1111,182,l),
(1111,638,l),
(1111,725,o),
(1060,872,o),
(965,978,o),
(829,1038,o),
(747,1038,q),
(694,1038,o),
(598,1014,o),
(518,976,o),
(452,933,o),
(424,914,q),
(424,1007,l)
);
}
);
width = 1334;
}
);
unicode = 110;
},
{
glyphname = o;
layers = (
{
layerId = "F01671F1-619E-4C0E-98FE-F2F10EEA5364";
shapes = (
{
closed = 1;
nodes = (
(91,407,o),
(165,212,o),
(312,60,o),
(526,-31,o),
(666,-31,q),
(812,-31,o),
(1027,62,o),
(1171,216,o),
(1243,411,o),
(1243,511,q),
(1243,615,o),
(1167,812,o),
(1022,963,o),
(806,1054,o),
(666,1054,q),
(531,1054,o),
(318,967,o),
(169,818,o),
(91,620,o),
(91,511,q)
);
},
{
closed = 1;
nodes = (
(295,581,o),
(342,707,o),
(435,804,o),
(575,863,o),
(666,863,q),
(760,863,o),
(900,802,o),
(993,702,o),
(1038,575,o),
(1038,511,q),
(1038,447,o),
(993,320,o),
(900,220,o),
(760,160,o),
(666,160,q),
(575,160,o),
(435,220,o),
(342,318,o),
(295,445,o),
(295,511,q)
);
}
);
width = 1334;
}
);
unicode = 111;
},
{
glyphname = p;
layers = (
{
layerId = "F01671F1-619E-4C0E-98FE-F2F10EEA5364";
shapes = (
{
closed = 1;
nodes = (
(22,1007,l),
(22,825,l),
(198,825,l),
(198,-155,l),
(22,-155,l),
(22,-338,l),
(711,-338,l),
(711,-155,l),
(391,-155,l),
(391,106,l),
(435,68,o),
(531,20,o),
(622,-7,o),
(698,-15,o),
(725,-15,q),
(821,-15,o),
(1005,60,o),
(1152,200,o),
(1243,396,o),
(1243,516,q),
(1243,615,o),
(1169,802,o),
(1033,949,o),
(840,1038,o),
(723,1038,q),
(707,1038,o),
(638,1033,o),
(547,1014,o),
(443,965,o),
(391,923,q),
(391,1007,l)
);
},
{
closed = 1;
nodes = (
(382,587,o),
(433,704,o),
(522,793,o),
(649,847,o),
(723,847,q),
(802,847,o),
(923,787,o),
(1001,691,o),
(1038,573,o),
(1038,516,q),
(1038,443,o),
(987,318,o),
(900,227,o),
(785,176,o),
(721,176,q),
(664,176,o),
(547,220,o),
(447,307,o),
(382,435,o),
(382,520,q)
);
}
);
width = 1334;
}
);
unicode = 112;
},
{
glyphname = q;
layers = (
{
layerId = "F01671F1-619E-4C0E-98FE-F2F10EEA5364";
shapes = (
{
closed = 1;
nodes = (
(1313,1007,l),
(944,1007,l),
(944,923,l),
(893,965,o),
(789,1014,o),
(698,1033,o),
(630,1038,o),
(613,1038,q),
(496,1038,o),
(303,949,o),
(167,802,o),
(93,615,o),
(93,516,q),
(93,396,o),
(185,200,o),
(331,60,o),
(516,-15,o),
(611,-15,q),
(638,-15,o),
(713,-7,o),
(804,20,o),
(900,68,o),
(944,106,q),
(944,-155,l),
(624,-155,l),
(624,-338,l),
(1313,-338,l),
(1313,-155,l),
(1139,-155,l),
(1139,825,l),
(1313,825,l)
);
},
{
closed = 1;
nodes = (
(954,435,o),
(889,307,o),
(789,220,o),
(671,176,o),
(615,176,q),
(551,176,o),
(435,227,o),
(349,318,o),
(297,443,o),
(297,516,q),
(297,573,o),
(335,691,o),
(414,787,o),
(534,847,o),
(613,847,q),
(687,847,o),
(814,793,o),
(902,704,o),
(954,587,o),
(954,520,q)
);
}
);
width = 1334;
}
);
unicode = 113;
},
{
glyphname = r;
layers = (
{
layerId = "F01671F1-619E-4C0E-98FE-F2F10EEA5364";
shapes = (
{
closed = 1;
nodes = (
(157,1007,l),
(157,825,l),
(405,825,l),
(405,182,l),
(138,182,l),
(138,0,l),
(1009,0,l),
(1009,182,l),
(598,182,l),
(598,598,l),
(605,605,o),
(681,685,o),
(787,774,o),
(910,847,o),
(963,847,q),
(1020,847,o),
(1086,783,o),
(1105,751,q),
(1302,902,l),
(1285,920,o),
(1234,967,o),
(1160,1009,o),
(1063,1038,o),
(1001,1038,q),
(929,1038,o),
(812,1003,o),
(713,944,o),
(634,876,o),
(598,842,q),
(598,1007,l)
);
}
);
width = 1334;
}
);
unicode = 114;
},
{
glyphname = s;
layers = (
{
layerId = "F01671F1-619E-4C0E-98FE-F2F10EEA5364";
shapes = (
{
closed = 1;
nodes = (
(925,1058,l),
(895,933,l),
(878,946,o),
(825,982,o),
(751,1016,o),
(658,1038,o),
(600,1038,q),
(538,1038,o),
(393,1003,o),
(271,927,o),
(191,812,o),
(191,729,q),
(191,651,o),
(274,522,o),
(338,484,q),
(365,469,o),
(424,445,o),
(503,429,o),
(609,416,o),
(683,411,q),
(747,407,o),
(847,398,o),
(916,378,o),
(952,340,o),
(952,307,q),
(952,236,o),
(796,160,o),
(674,160,q),
(594,160,o),
(487,195,o),
(418,256,o),
(380,338,o),
(371,382,q),
(198,363,l),
(206,327,o),
(220,253,o),
(220,189,q),
(220,118,o),
(204,17,o),
(198,-22,q),
(371,-34,l),
(398,82,l),
(420,64,o),
(473,25,o),
(547,-9,o),
(643,-31,o),
(709,-31,q),
(806,-31,o),
(969,20,o),
(1086,111,o),
(1152,231,o),
(1152,303,q),
(1152,352,o),
(1103,471,o),
(1045,516,q),
(1014,538,o),
(944,564,o),
(853,581,o),
(740,589,o),
(666,594,q),
(620,596,o),
(522,607,o),
(443,632,o),
(391,681,o),
(391,723,q),
(391,762,o),
(441,812,o),
(511,838,o),
(592,847,o),
(624,847,q),
(638,847,o),
(715,842,o),
(802,823,o),
(880,774,o),
(895,732,q),
(914,681,l),
(916,674,o),
(923,656,o),
(925,651,q),
(1098,676,l),
(1090,709,o),
(1076,783,o),
(1076,836,q),
(1076,887,o),
(1090,987,o),
(1098,1029,q)
);
}
);
width = 1334;
}
);
unicode = 115;
},
{
glyphname = t;
layers = (
{
layerId = "F01671F1-619E-4C0E-98FE-F2F10EEA5364";
shapes = (
{
closed = 1;
nodes = (
(354,1296,l),
(354,984,l),
(206,984,l),
(206,802,l),
(354,802,l),
(354,429,l),
(354,378,o),
(358,280,o),
(376,189,o),
(414,104,o),
(447,68,q),
(498,17,o),
(664,-31,o),
(738,-31,q),
(804,-31,o),
(942,-2,o),
(1071,42,o),
(1185,91,o),
(1230,111,q),
(1156,287,l),
(1084,258,l),
(987,218,o),
(821,160,o),
(721,160,q),
(653,160,o),
(585,200,o),
(551,274,o),
(547,371,o),
(547,429,q),
(547,802,l),
(1054,802,l),
(1054,984,l),
(547,984,l),
(547,1296,l)
);
}
);
width = 1334;
}
);
unicode = 116;
},
{
glyphname = u;
layers = (
{
layerId = "F01671F1-619E-4C0E-98FE-F2F10EEA5364";
shapes = (
{
closed = 1;
nodes = (
(49,1007,l),
(49,825,l),
(223,825,l),
(223,398,l),
(223,274,o),
(271,140,o),
(314,89,q),
(358,34,o),
(516,-31,o),
(600,-31,q),
(651,-31,o),
(806,9,o),
(891,68,q),
(891,0,l),
(1258,0,l),
(1258,182,l),
(1084,182,l),
(1084,1007,l),
(709,1007,l),
(709,825,l),
(891,825,l),
(891,325,l),
(861,293,o),
(800,236,o),
(729,189,o),
(649,160,o),
(598,160,q),
(536,160,o),
(465,212,o),
(427,284,o),
(416,367,o),
(416,398,q),
(416,1007,l)
);
}
);
width = 1334;
}
);
unicode = 117;
},
{
glyphname = v;
layers = (
{
layerId = "F01671F1-619E-4C0E-98FE-F2F10EEA5364";
shapes = (
{
closed = 1;
nodes = (
(25,1007,l),
(25,825,l),
(200,825,l),
(589,0,l),
(747,0,l),
(1136,825,l),
(1309,825,l),
(1309,1007,l),
(787,1007,l),
(787,825,l),
(931,825,l),
(674,271,l),
(420,825,l),
(569,825,l),
(569,1007,l)
);
}
);
width = 1334;
}
);
unicode = 118;
},
{
glyphname = w;
layers = (
{
layerId = "F01671F1-619E-4C0E-98FE-F2F10EEA5364";
shapes = (
{
closed = 1;
nodes = (
(0,1007,l),
(0,825,l),
(102,825,l),
(329,0,l),
(498,0,l),
(664,484,l),
(669,484,l),
(840,0,l),
(1016,0,l),
(1241,825,l),
(1334,825,l),
(1334,1007,l),
(882,1007,l),
(882,825,l),
(1050,825,l),
(925,354,l),
(920,354,l),
(742,825,l),
(607,825,l),
(433,354,l),
(429,354,l),
(307,825,l),
(471,825,l),
(471,1007,l)
);
}
);
width = 1334;
}
);
unicode = 119;
},
{
glyphname = x;
layers = (
{
layerId = "F01671F1-619E-4C0E-98FE-F2F10EEA5364";
shapes = (
{
closed = 1;
nodes = (
(66,1007,l),
(66,825,l),
(218,825,l),
(531,526,l),
(193,182,l),
(34,182,l),
(34,0,l),
(547,0,l),
(547,182,l),
(445,182,l),
(662,396,l),
(878,182,l),
(776,182,l),
(776,0,l),
(1300,0,l),
(1300,182,l),
(1149,182,l),
(793,526,l),
(1098,825,l),
(1245,825,l),
(1245,1007,l),
(749,1007,l),
(749,825,l),
(849,825,l),
(662,658,l),
(490,825,l),
(583,825,l),
(583,1007,l)
);
}
);
width = 1334;
}
);
unicode = 120;
},
{
glyphname = y;
layers = (
{
layerId = "F01671F1-619E-4C0E-98FE-F2F10EEA5364";
shapes = (
{
closed = 1;
nodes = (
(31,1007,l),
(31,825,l),
(178,825,l),
(556,104,l),
(409,-147,l),
(64,-147,l),
(64,-329,l),
(798,-329,l),
(798,-147,l),
(632,-147,l),
(1190,825,l),
(1330,825,l),
(1330,1007,l),
(851,1007,l),
(851,825,l),
(967,825,l),
(669,305,l),
(398,825,l),
(518,825,l),
(518,1007,l)
);
}
);
width = 1334;
}
);
unicode = 121;
},
{
glyphname = z;
layers = (
{
layerId = "F01671F1-619E-4C0E-98FE-F2F10EEA5364";
shapes = (
{
closed = 1;
nodes = (
(225,1007,l),
(225,632,l),
(418,632,l),
(418,825,l),
(834,825,l),
(202,160,l),
(202,0,l),
(1131,0,l),
(1131,386,l),
(938,386,l),
(938,182,l),
(494,182,l),
(1131,859,l),
(1131,1007,l)
);
}
);
width = 1334;
}
);
unicode = 122;
},
{
glyphname = braceleft;
layers = (
{
layerId = "F01671F1-619E-4C0E-98FE-F2F10EEA5364";
shapes = (
{
closed = 1;
nodes = (
(1056,1485,l),
(1025,1485,o),
(989,1487,o),
(974,1487,q),
(865,1487,o),
(725,1425,o),
(645,1332,o),
(615,1220,o),
(615,1171,q),
(615,1152,o),
(618,1118,o),
(624,1076,o),
(636,1018,o),
(647,971,q),
(647,971,o),
(649,956,q),
(653,942,o),
(660,900,o),
(666,853,o),
(666,836,q),
(666,804,o),
(634,767,o),
(581,747,o),
(516,738,o),
(484,736,q),
(484,547,l),
(509,545,o),
(573,538,o),
(630,518,o),
(666,482,o),
(666,452,q),
(666,414,o),
(651,329,o),
(647,312,q),
(636,265,o),
(624,206,o),
(618,165,o),
(615,127,o),
(615,104,q),
(615,9,o),
(723,-153,o),
(823,-185,q),
(882,-202,o),
(987,-206,o),
(1056,-202,q),
(1056,-15,l),
(1003,-15,o),
(912,-11,o),
(849,11,o),
(814,60,o),
(814,104,q),
(814,134,o),
(827,200,o),
(853,338,o),
(869,418,o),
(869,449,q),
(869,524,o),
(804,615,o),
(780,640,q),
(804,664,o),
(869,753,o),
(869,829,q),
(869,859,o),
(859,923,o),
(855,933,q),
(840,1012,l),
(831,1054,o),
(823,1107,o),
(816,1141,o),
(814,1162,o),
(814,1175,q),
(814,1220,o),
(847,1267,o),
(910,1292,o),
(999,1296,o),
(1056,1296,q)
);
}
);
width = 1334;
}
);
unicode = 123;
},
{
glyphname = bar;
layers = (
{
layerId = "F01671F1-619E-4C0E-98FE-F2F10EEA5364";
shapes = (
{
closed = 1;
nodes = (
(776,1496,l),
(558,1496,l),
(558,-409,l),
(776,-409,l)
);
}
);
width = 1334;
}
);
unicode = 124;
},
{
glyphname = braceright;
layers = (
{
layerId = "F01671F1-619E-4C0E-98FE-F2F10EEA5364";
shapes = (
{
closed = 1;
nodes = (
(849,736,l),
(823,738,o),
(758,747,o),
(704,767,o),
(666,800,o),
(666,831,q),
(666,869,o),
(683,958,o),
(687,974,q),
(696,1018,o),
(709,1076,o),
(715,1118,o),
(719,1154,o),
(719,1178,q),
(719,1281,o),
(607,1438,o),
(511,1467,q),
(454,1485,o),
(352,1489,o),
(278,1487,q),
(278,1296,l),
(333,1296,o),
(424,1292,o),
(487,1269,o),
(520,1220,o),
(520,1178,q),
(520,1160,o),
(505,1063,o),
(482,952,o),
(465,853,o),
(465,834,q),
(465,758,o),
(531,669,o),
(554,645,q),
(529,620,o),
(465,526,o),
(465,452,q),
(465,422,o),
(475,360,o),
(478,349,q),
(484,318,o),
(500,244,o),
(511,176,o),
(520,120,o),
(520,104,q),
(520,60,o),
(484,11,o),
(422,-11,o),
(331,-15,o),
(278,-15,q),
(278,-202,l),
(342,-206,o),
(449,-202,o),
(511,-185,q),
(547,-174,o),
(620,-129,o),
(681,-55,o),
(719,45,o),
(719,111,q),
(719,131,o),
(715,165,o),
(709,206,o),
(696,265,o),
(687,312,q),
(678,344,o),
(666,414,o),
(666,447,q),
(666,480,o),
(702,518,o),
(758,538,o),
(823,545,o),
(849,547,q)
);
}
);
width = 1334;
}
);
unicode = 125;
},
{
glyphname = asciitilde;
layers = (
{
layerId = "F01671F1-619E-4C0E-98FE-F2F10EEA5364";
shapes = (
{
closed = 1;
nodes = (
(1031,916,l),
(987,842,o),
(920,755,o),
(869,755,q),
(844,755,o),
(776,783,o),
(707,814,q),
(647,840,o),
(569,867,o),
(516,880,o),
(484,882,o),
(473,882,q),
(414,882,o),
(322,836,o),
(251,767,o),
(198,683,o),
(178,647,q),
(178,645,o),
(171,636,o),
(171,634,q),
(303,480,l),
(318,509,l),
(356,581,o),
(424,656,o),
(473,656,q),
(498,656,o),
(607,613,o),
(696,577,o),
(760,551,o),
(806,536,o),
(847,529,o),
(869,529,q),
(925,529,o),
(1014,573,o),
(1082,640,o),
(1133,719,o),
(1156,753,q),
(1156,755,o),
(1162,765,o),
(1162,767,q)
);
}
);
width = 1334;
}
);
unicode = 126;
},
{
glyphname = exclamdown;
layers = (
{
layerId = "F01671F1-619E-4C0E-98FE-F2F10EEA5364";
shapes = (
{
closed = 1;
nodes = (
(802,-293,l),
(758,602,l),
(575,602,l),
(534,-293,l)
);
},
{
closed = 1;
nodes = (
(751,704,o),
(861,809,o),
(861,880,q),
(861,952,o),
(751,1054,o),
(666,1054,q),
(581,1054,o),
(473,946,o),
(473,880,q),
(473,814,o),
(577,704,o),
(666,704,q)
);
}
);
width = 1334;
}
);
unicode = 161;
},
{
glyphname = cent;
layers = (
{
layerId = "F01671F1-619E-4C0E-98FE-F2F10EEA5364";
shapes = (
{
closed = 1;
nodes = (
(762,914,l),
(809,914,o),
(867,878,o),
(900,816,o),
(916,725,o),
(925,666,q),
(1092,691,l),
(1084,780,o),
(1084,844,q),
(1084,898,o),
(1096,1020,o),
(1105,1114,q),
(942,1127,l),
(925,1007,l),
(889,1052,o),
(821,1101,o),
(762,1114,q),
(762,1400,l),
(605,1400,l),
(605,1101,l),
(541,1086,o),
(409,1016,o),
(303,902,o),
(236,745,o),
(236,645,q),
(236,571,o),
(280,424,o),
(373,300,o),
(511,212,o),
(605,193,q),
(605,-123,l),
(762,-123,l),
(762,193,l),
(907,218,o),
(1096,322,o),
(1156,367,q),
(1063,526,l),
(1056,522,o),
(1025,505,o),
(989,480,o),
(958,460,o),
(952,458,q),
(914,437,o),
(861,411,o),
(818,398,o),
(783,389,o),
(762,386,q)
);
},
{
closed = 1;
nodes = (
(605,386,l),
(545,403,o),
(471,471,o),
(431,551,o),
(418,630,o),
(418,649,q),
(418,669,o),
(429,738,o),
(469,816,o),
(543,889,o),
(605,910,q)
);
}
);
width = 1334;
}
);
unicode = 162;
},
{
glyphname = sterling;
layers = (
{
layerId = "F01671F1-619E-4C0E-98FE-F2F10EEA5364";
shapes = (
{
closed = 1;
nodes = (
(185,816,l),
(185,630,l),
(422,630,l),
(427,607,o),
(437,545,o),
(437,507,q),
(437,427,o),
(391,291,o),
(327,189,o),
(263,118,o),
(242,98,q),
(360,-55,l),
(437,-11,o),
(556,45,o),
(613,45,q),
(645,45,o),
(696,29,o),
(753,7,q),
(809,-13,o),
(885,-27,o),
(916,-27,q),
(969,-27,o),
(1054,0,o),
(1122,40,o),
(1178,87,o),
(1200,109,q),
(1205,111,o),
(1213,120,o),
(1216,123,q),
(1101,267,l),
(1082,251,l),
(1022,202,o),
(954,160,o),
(912,160,q),
(893,160,o),
(849,171,o),
(804,189,q),
(745,214,o),
(669,231,o),
(630,231,q),
(605,231,o),
(564,223,o),
(551,218,q),
(589,287,o),
(624,441,o),
(624,518,q),
(624,560,o),
(620,607,o),
(615,630,q),
(1101,630,l),
(1101,816,l),
(564,816,l),
(538,889,o),
(518,967,o),
(518,1007,q),
(518,1045,o),
(549,1118,o),
(609,1175,o),
(698,1211,o),
(753,1211,q),
(770,1211,o),
(838,1205,o),
(907,1187,o),
(958,1160,o),
(958,1141,q),
(958,1131,o),
(956,1096,o),
(954,1060,o),
(949,1029,o),
(949,1027,q),
(1124,1007,l),
(1129,1060,o),
(1141,1149,o),
(1156,1230,o),
(1178,1311,o),
(1192,1362,q),
(1009,1372,l),
(1001,1340,l),
(900,1385,o),
(774,1402,o),
(745,1402,q),
(669,1402,o),
(520,1347,o),
(401,1243,o),
(325,1096,o),
(325,1005,q),
(325,946,o),
(346,859,o),
(360,816,q)
);
}
);
width = 1334;
}
);
unicode = 163;
},
{
glyphname = currency;
layers = (
{
layerId = "F01671F1-619E-4C0E-98FE-F2F10EEA5364";
shapes = (
{
closed = 1;
nodes = (
(1027,429,l),
(1086,505,o),
(1094,638,q),
(1098,696,o),
(1067,823,o),
(1029,878,q),
(1211,1056,l),
(1073,1190,l),
(893,1014,l),
(847,1038,l),
(802,1063,o),
(702,1078,o),
(651,1078,q),
(587,1078,o),
(496,1043,o),
(487,1038,q),
(437,1014,l),
(258,1190,l),
(120,1056,l),
(305,876,l),
(276,825,l),
(253,780,o),
(240,687,o),
(240,638,q),
(240,577,o),
(271,494,o),
(276,482,q),
(305,429,l),
(120,249,l),
(258,115,l),
(437,293,l),
(482,269,o),
(583,227,o),
(666,227,q),
(749,227,o),
(849,269,o),
(893,293,q),
(1073,115,l),
(1211,249,l)
);
},
{
closed = 1;
nodes = (
(905,607,o),
(872,520,o),
(809,456,o),
(721,416,o),
(666,416,q),
(611,416,o),
(524,456,o),
(462,520,o),
(429,607,o),
(429,653,q),
(429,694,o),
(458,778,o),
(518,847,o),
(607,889,o),
(666,889,q),
(723,889,o),
(812,849,o),
(874,783,o),
(905,698,o),
(905,653,q)
);
}
);
width = 1334;
}
);
unicode = 164;
},
{
glyphname = yen;
layers = (
{
layerId = "F01671F1-619E-4C0E-98FE-F2F10EEA5364";
shapes = (
{
closed = 1;
nodes = (
(767,307,l),
(1078,307,l),
(1078,449,l),
(767,449,l),
(767,556,l),
(1078,556,l),
(1078,698,l),
(780,698,l),
(1133,1178,l),
(1285,1178,l),
(1285,1360,l),
(780,1360,l),
(780,1178,l),
(923,1178,l),
(678,825,l),
(437,1178,l),
(558,1178,l),
(558,1360,l),
(49,1360,l),
(49,1178,l),
(202,1178,l),
(567,698,l),
(263,698,l),
(263,556,l),
(577,556,l),
(577,449,l),
(263,449,l),
(263,307,l),
(577,307,l),
(577,182,l),
(322,182,l),
(322,0,l),
(1025,0,l),
(1025,182,l),
(767,182,l)
);
}
);
width = 1334;
}
);
unicode = 165;
},
{
glyphname = brokenbar;
layers = (
{
layerId = "F01671F1-619E-4C0E-98FE-F2F10EEA5364";
shapes = (
{
closed = 1;
nodes = (
(776,1496,l),
(558,1496,l),
(558,662,l),
(776,662,l)
);
},
{
closed = 1;
nodes = (
(776,424,l),
(558,424,l),
(558,-409,l),
(776,-409,l)
);
}
);
width = 1334;
}
);
unicode = 166;
},
{
glyphname = section;
layers = (
{
layerId = "F01671F1-619E-4C0E-98FE-F2F10EEA5364";
shapes = (
{
closed = 1;
nodes = (
(1071,1296,l),
(664,1296,l),
(634,1296,o),
(524,1289,o),
(418,1243,o),
(338,1145,o),
(338,1056,q),
(338,989,o),
(373,920,o),
(396,889,q),
(384,889,o),
(373,887,o),
(363,876,q),
(322,834,o),
(276,783,o),
(253,740,o),
(246,698,o),
(246,664,q),
(246,620,o),
(269,549,o),
(314,490,o),
(378,431,o),
(422,398,q),
(709,174,l),
(762,131,o),
(800,78,o),
(800,49,q),
(800,11,o),
(747,0,o),
(685,0,q),
(445,0,l),
(445,198,l),
(260,198,l),
(260,-202,l),
(685,-202,l),
(719,-202,o),
(827,-195,o),
(927,-151,o),
(1001,-53,o),
(1001,36,q),
(1001,74,o),
(993,102,o),
(982,123,q),
(965,157,o),
(956,180,o),
(956,198,q),
(971,198,o),
(1009,204,o),
(1027,229,q),
(1058,265,o),
(1094,312,o),
(1114,349,o),
(1118,386,o),
(1118,416,q),
(1118,505,o),
(1018,627,o),
(925,700,q),
(627,931,l),
(569,976,o),
(538,1025,o),
(538,1047,q),
(538,1086,o),
(592,1101,o),
(656,1101,q),
(882,1101,l),
(882,916,l),
(1071,916,l)
);
},
{
closed = 1;
nodes = (
(802,554,l),
(818,543,o),
(859,509,o),
(893,473,o),
(920,437,o),
(920,424,q),
(920,401,o),
(893,371,o),
(859,352,o),
(823,342,o),
(814,340,q),
(538,554,l),
(503,581,o),
(462,613,o),
(445,636,o),
(443,651,o),
(443,660,q),
(443,681,o),
(465,715,o),
(494,740,o),
(526,755,o),
(538,758,q)
);
}
);
width = 1334;
}
);
unicode = 167;
},
{
glyphname = dieresis;
layers = (
{
layerId = "F01671F1-619E-4C0E-98FE-F2F10EEA5364";
shapes = (
{
closed = 1;
nodes = (
(396,1185,l),
(609,1185,l),
(609,1440,l),
(396,1440,l)
);
},
{
closed = 1;
nodes = (
(725,1185,l),
(938,1185,l),
(938,1440,l),
(725,1440,l)
);
}
);
width = 1334;
}
);
unicode = 168;
},
{
glyphname = copyright;
layers = (
{
layerId = "F01671F1-619E-4C0E-98FE-F2F10EEA5364";
shapes = (
{
closed = 1;
nodes = (
(963,999,l),
(916,1016,o),
(778,1054,o),
(694,1054,q),
(596,1054,o),
(452,991,o),
(352,887,o),
(303,749,o),
(303,674,q),
(303,596,o),
(352,458,o),
(443,356,o),
(577,293,o),
(664,293,q),
(681,293,o),
(762,300,o),
(863,338,o),
(958,420,o),
(989,496,q),
(905,529,l),
(898,516,o),
(874,475,o),
(829,435,o),
(765,407,o),
(721,407,q),
(634,407,o),
(505,556,o),
(505,698,q),
(505,825,o),
(620,952,o),
(704,952,q),
(747,952,o),
(806,916,o),
(842,865,o),
(859,802,o),
(861,776,q),
(963,776,l)
);
},
{
closed = 1;
nodes = (
(800,29,o),
(1038,131,o),
(1213,307,o),
(1318,545,o),
(1318,681,q),
(1318,814,o),
(1216,1052,o),
(1040,1230,o),
(802,1332,o),
(666,1332,q),
(531,1332,o),
(293,1230,o),
(118,1052,o),
(15,814,o),
(15,681,q),
(15,543,o),
(120,307,o),
(295,129,o),
(534,29,o),
(666,29,q)
);
},
{
closed = 1;
nodes = (
(560,157,o),
(371,240,o),
(227,380,o),
(144,571,o),
(144,681,q),
(144,789,o),
(227,978,o),
(369,1120,o),
(560,1203,o),
(666,1203,q),
(774,1203,o),
(965,1120,o),
(1107,978,o),
(1190,789,o),
(1190,681,q),
(1190,571,o),
(1107,380,o),
(963,240,o),
(774,157,o),
(666,157,q)
);
}
);
width = 1334;
}
);
unicode = 169;
},
{
glyphname = ordfeminine;
layers = (
{
layerId = "F01671F1-619E-4C0E-98FE-F2F10EEA5364";
shapes = (
{
closed = 1;
nodes = (
(445,1156,l),
(516,1187,o),
(607,1213,o),
(649,1213,q),
(704,1213,o),
(749,1178,o),
(751,1136,q),
(711,1141,o),
(662,1143,o),
(632,1143,q),
(511,1143,o),
(363,1033,o),
(363,944,q),
(363,865,o),
(484,755,o),
(573,755,q),
(662,755,o),
(751,814,q),
(751,772,l),
(969,772,l),
(969,889,l),
(872,889,l),
(872,1131,l),
(872,1334,o),
(651,1334,q),
(622,1334,o),
(571,1327,o),
(513,1313,o),
(445,1289,o),
(398,1269,q)
);
},
{
closed = 1;
nodes = (
(751,971,l),
(656,876,o),
(573,876,q),
(541,876,o),
(487,916,o),
(487,942,q),
(487,980,o),
(571,1025,o),
(643,1025,q),
(666,1025,o),
(713,1020,o),
(751,1016,q)
);
},
{
closed = 1;
nodes = (
(376,678,l),
(376,558,l),
(958,558,l),
(958,678,l)
);
}
);
width = 1334;
}
);
unicode = 170;
},
{
glyphname = guillemotleft;
layers = (
{
layerId = "F01671F1-619E-4C0E-98FE-F2F10EEA5364";
shapes = (
{
closed = 1;
nodes = (
(669,220,l),
(96,816,l),
(669,1432,l),
(789,1289,l),
(382,816,l),
(798,363,l)
);
},
{
closed = 1;
nodes = (
(1107,220,l),
(534,816,l),
(1107,1432,l),
(1227,1289,l),
(821,816,l),
(1236,363,l)
);
}
);
width = 1334;
}
);
unicode = 171;
},
{
glyphname = logicalnot;
layers = (
{
layerId = "F01671F1-619E-4C0E-98FE-F2F10EEA5364";
shapes = (
{
closed = 1;
nodes = (
(171,1027,l),
(171,831,l),
(984,831,l),
(984,363,l),
(1180,363,l),
(1180,1027,l)
);
}
);
width = 1334;
}
);
unicode = 172;
},
{
glyphname = uni00AD;
layers = (
{
layerId = "F01671F1-619E-4C0E-98FE-F2F10EEA5364";
shapes = (
{
closed = 1;
nodes = (
(431,749,l),
(431,583,l),
(902,583,l),
(902,749,l)
);
}
);
width = 1334;
}
);
unicode = 173;
},
{
glyphname = registered;
layers = (
{
layerId = "F01671F1-619E-4C0E-98FE-F2F10EEA5364";
shapes = (
{
closed = 1;
nodes = (
(356,961,l),
(391,961,l),
(420,961,o),
(433,949,o),
(433,923,q),
(433,452,l),
(433,424,o),
(407,416,o),
(356,416,q),
(356,340,l),
(671,340,l),
(671,416,l),
(653,416,o),
(634,416,q),
(615,416,o),
(611,418,q),
(600,420,o),
(598,433,o),
(598,462,q),
(598,638,l),
(634,638,o),
(651,636,o),
(662,630,q),
(676,620,o),
(702,571,o),
(734,496,q),
(755,445,o),
(789,382,o),
(825,349,o),
(872,340,o),
(905,340,q),
(1007,340,l),
(1007,416,l),
(978,416,o),
(963,418,o),
(956,427,q),
(942,437,o),
(910,505,o),
(893,538,q),
(876,575,o),
(849,622,o),
(827,651,o),
(806,669,o),
(798,676,q),
(847,696,o),
(902,751,o),
(927,806,o),
(931,849,o),
(931,855,q),
(931,925,o),
(867,1001,o),
(780,1033,o),
(694,1040,o),
(671,1040,q),
(356,1040,l)
);
},
{
closed = 1;
nodes = (
(598,920,l),
(598,942,o),
(605,958,o),
(630,958,q),
(647,958,o),
(696,954,o),
(738,933,o),
(767,885,o),
(767,842,q),
(767,798,o),
(738,749,o),
(689,727,o),
(630,721,o),
(598,721,q)
);
},
{
closed = 1;
nodes = (
(800,29,o),
(1038,131,o),
(1213,307,o),
(1318,545,o),
(1318,681,q),
(1318,814,o),
(1216,1052,o),
(1040,1230,o),
(802,1332,o),
(666,1332,q),
(531,1332,o),
(293,1230,o),
(118,1052,o),
(15,814,o),
(15,681,q),
(15,543,o),
(120,307,o),
(295,129,o),
(534,29,o),
(666,29,q)
);
},
{
closed = 1;
nodes = (
(560,157,o),
(371,240,o),
(227,380,o),
(144,571,o),
(144,681,q),
(144,789,o),
(227,978,o),
(369,1120,o),
(560,1203,o),
(666,1203,q),
(774,1203,o),
(965,1120,o),
(1107,978,o),
(1190,789,o),
(1190,681,q),
(1190,571,o),
(1107,380,o),
(963,240,o),
(774,157,o),
(666,157,q)
);
}
);
width = 1334;
}
);
unicode = 174;
},
{
glyphname = overscore;
layers = (
{
layerId = "F01671F1-619E-4C0E-98FE-F2F10EEA5364";
shapes = (
{
closed = 1;
nodes = (
(287,1411,l),
(287,1222,l),
(1047,1222,l),
(1047,1411,l)
);
}
);
width = 1334;
}
);
unicode = 175;
},
{
glyphname = degree;
layers = (
{
layerId = "F01671F1-619E-4C0E-98FE-F2F10EEA5364";
shapes = (
{
closed = 1;
nodes = (
(320,1001,o),
(376,874,o),
(469,778,o),
(596,725,o),
(666,725,q),
(740,725,o),
(867,780,o),
(961,874,o),
(1014,1001,o),
(1014,1073,q),
(1014,1145,o),
(958,1271,o),
(865,1364,o),
(738,1421,o),
(666,1421,q),
(596,1421,o),
(469,1368,o),
(376,1274,o),
(320,1147,o),
(320,1073,q)
);
},
{
closed = 1;
nodes = (
(498,1143,o),
(596,1243,o),
(666,1243,q),
(738,1243,o),
(836,1143,o),
(836,1073,q),
(836,1003,o),
(738,902,o),
(666,902,q),
(596,902,o),
(498,1003,o),
(498,1073,q)
);
}
);
width = 1334;
}
);
unicode = 176;
},
{
glyphname = plusminus;
layers = (
{
layerId = "F01671F1-619E-4C0E-98FE-F2F10EEA5364";
shapes = (
{
closed = 1;
nodes = (
(569,1336,l),
(569,918,l),
(120,918,l),
(120,723,l),
(569,723,l),
(569,305,l),
(765,305,l),
(765,723,l),
(1213,723,l),
(1213,918,l),
(765,918,l),
(765,1336,l)
);
},
{
closed = 1;
nodes = (
(120,246,l),
(120,51,l),
(1213,51,l),
(1213,246,l)
);
}
);
width = 1334;
}
);
unicode = 177;
},
{
glyphname = twosuperior;
layers = (
{
layerId = "F01671F1-619E-4C0E-98FE-F2F10EEA5364";
shapes = (
{
closed = 1;
nodes = (
(798,802,l),
(798,676,l),
(556,676,l),
(674,783,l),
(749,851,o),
(849,946,o),
(869,976,q),
(925,1058,o),
(925,1147,q),
(925,1203,o),
(880,1302,o),
(804,1378,o),
(702,1421,o),
(645,1421,q),
(490,1421,o),
(376,1283,q),
(376,1154,l),
(513,1154,l),
(507,1194,l),
(507,1232,o),
(587,1289,o),
(643,1289,q),
(702,1289,o),
(789,1207,o),
(789,1149,q),
(789,1120,o),
(780,1076,o),
(747,1027,o),
(683,961,o),
(627,912,q),
(605,891,o),
(543,834,o),
(473,770,o),
(405,709,o),
(378,687,q),
(352,664,l),
(352,547,l),
(923,547,l),
(923,802,l)
);
}
);
width = 1334;
}
);
unicode = 178;
},
{
glyphname = threesuperior;
layers = (
{
layerId = "F01671F1-619E-4C0E-98FE-F2F10EEA5364";
shapes = (
{
closed = 1;
nodes = (
(422,1203,l),
(475,1236,l),
(526,1267,o),
(589,1289,o),
(624,1289,q),
(676,1289,o),
(742,1230,o),
(742,1183,q),
(742,1122,o),
(696,1090,q),
(674,1071,o),
(620,1063,o),
(551,1063,q),
(551,933,l),
(622,936,l),
(700,938,o),
(785,865,o),
(785,800,q),
(785,736,o),
(698,656,o),
(627,656,q),
(581,656,o),
(478,687,o),
(393,727,q),
(342,609,l),
(403,583,l),
(480,547,o),
(571,529,o),
(622,529,q),
(687,529,o),
(796,569,o),
(874,643,o),
(918,742,o),
(918,802,q),
(918,938,o),
(804,1014,q),
(844,1058,o),
(876,1133,o),
(876,1187,q),
(876,1236,o),
(836,1321,o),
(770,1385,o),
(676,1421,o),
(622,1421,q),
(592,1421,o),
(538,1411,o),
(478,1387,o),
(405,1345,o),
(356,1311,q)
);
}
);
width = 1334;
}
);
unicode = 179;
},
{
glyphname = acute;
layers = (
{
layerId = "F01671F1-619E-4C0E-98FE-F2F10EEA5364";
shapes = (
{
closed = 1;
nodes = (
(1031,1419,l),
(1031,1427,l),
(700,1427,l),
(467,1209,l),
(660,1209,l)
);
}
);
width = 1334;
}
);
unicode = 180;
},
{
glyphname = mu;
layers = (
{
layerId = "F01671F1-619E-4C0E-98FE-F2F10EEA5364";
shapes = (
{
closed = 1;
nodes = (
(51,1016,l),
(51,847,l),
(233,847,l),
(233,-318,l),
(427,-318,l),
(427,49,l),
(469,17,o),
(564,-15,o),
(645,-31,o),
(698,-34,o),
(702,-34,q),
(770,-34,o),
(814,0,q),
(842,20,o),
(887,49,o),
(907,49,q),
(907,0,l),
(1285,0,l),
(1285,169,l),
(1101,169,l),
(1101,1016,l),
(725,1016,l),
(725,847,l),
(907,847,l),
(907,462,l),
(907,380,o),
(885,289,o),
(853,249,q),
(825,209,o),
(709,160,o),
(658,160,q),
(607,160,o),
(505,209,o),
(469,253,q),
(456,271,o),
(437,307,o),
(429,354,o),
(427,416,o),
(427,462,q),
(427,1016,l)
);
}
);
width = 1334;
}
);
unicode = 181;
},
{
glyphname = paragraph;
layers = (
{
layerId = "F01671F1-619E-4C0E-98FE-F2F10EEA5364";
shapes = (
{
closed = 1;
nodes = (
(1056,1187,l),
(1173,1187,l),
(1173,1296,l),
(649,1296,l),
(560,1296,o),
(378,1283,o),
(307,1238,q),
(233,1192,o),
(160,1033,o),
(160,949,q),
(160,916,o),
(176,829,o),
(212,745,o),
(274,669,o),
(320,645,q),
(405,600,o),
(551,592,o),
(600,596,q),
(600,-64,l),
(456,-64,l),
(456,-176,l),
(774,-176,l),
(774,1187,l),
(885,1187,l),
(885,-176,l),
(1173,-176,l),
(1173,-64,l),
(1056,-64,l)
);
},
{
closed = 1;
nodes = (
(600,696,l),
(585,698,o),
(545,707,o),
(511,738,o),
(487,800,o),
(487,855,q),
(487,1029,l),
(487,1045,o),
(492,1098,o),
(511,1149,o),
(558,1187,o),
(600,1187,q)
);
}
);
width = 1334;
}
);
unicode = 182;
},
{
glyphname = middot;
layers = (
{
layerId = "F01671F1-619E-4C0E-98FE-F2F10EEA5364";
shapes = (
{
closed = 1;
nodes = (
(630,885,o),
(556,859,o),
(496,809,o),
(458,740,o),
(458,696,q),
(458,651,o),
(496,581,o),
(556,531,o),
(630,507,o),
(666,507,q),
(704,507,o),
(780,534,o),
(840,583,o),
(876,651,o),
(876,696,q),
(876,740,o),
(838,812,o),
(778,861,o),
(702,885,o),
(666,885,q)
);
}
);
width = 1334;
}
);
unicode = 183;
},
{
glyphname = cedilla;
layers = (
{
layerId = "F01671F1-619E-4C0E-98FE-F2F10EEA5364";
shapes = (
{
closed = 1;
nodes = (
(838,13,l),
(676,13,l),
(653,-174,l),
(685,-178,l),
(698,-180,o),
(745,-185,o),
(789,-195,o),
(816,-206,o),
(809,-216,q),
(806,-218,o),
(787,-225,o),
(770,-225,q),
(740,-225,o),
(660,-214,o),
(585,-200,o),
(526,-187,o),
(520,-185,q),
(496,-338,l),
(498,-338,o),
(511,-342,o),
(516,-342,q),
(543,-349,o),
(696,-380,o),
(783,-380,q),
(855,-380,o),
(940,-340,o),
(984,-284,o),
(999,-229,o),
(999,-214,q),
(999,-167,o),
(954,-100,o),
(898,-60,o),
(842,-40,o),
(831,-40,q)
);
}
);
width = 1334;
}
);
unicode = 184;
},
{
glyphname = onesuperior;
layers = (
{
layerId = "F01671F1-619E-4C0E-98FE-F2F10EEA5364";
shapes = (
{
closed = 1;
nodes = (
(369,1289,l),
(420,1171,l),
(613,1258,l),
(613,674,l),
(386,674,l),
(386,547,l),
(967,547,l),
(967,674,l),
(742,674,l),
(742,1421,l),
(662,1421,l)
);
}
);
width = 1334;
}
);
unicode = 185;
},
{
glyphname = ordmasculine;
layers = (
{
layerId = "F01671F1-619E-4C0E-98FE-F2F10EEA5364";
shapes = (
{
closed = 1;
nodes = (
(360,980,o),
(407,876,o),
(487,798,o),
(600,755,o),
(666,755,q),
(734,755,o),
(847,798,o),
(927,876,o),
(974,980,o),
(974,1045,q),
(974,1107,o),
(927,1213,o),
(847,1292,o),
(734,1334,o),
(666,1334,q),
(600,1334,o),
(487,1292,o),
(405,1213,o),
(360,1107,o),
(360,1045,q)
);
},
{
closed = 1;
nodes = (
(490,1120,o),
(589,1213,o),
(666,1213,q),
(747,1213,o),
(844,1120,o),
(844,1045,q),
(844,969,o),
(745,876,o),
(666,876,q),
(589,876,o),
(490,969,o),
(490,1045,q)
);
},
{
closed = 1;
nodes = (
(376,681,l),
(376,558,l),
(958,558,l),
(958,681,l)
);
}
);
width = 1334;
}
);
unicode = 186;
},
{
glyphname = guillemotright;
layers = (
{
layerId = "F01671F1-619E-4C0E-98FE-F2F10EEA5364";
shapes = (
{
closed = 1;
nodes = (
(227,1429,l),
(800,809,l),
(227,216,l),
(106,358,l),
(513,809,l),
(98,1287,l)
);
},
{
closed = 1;
nodes = (
(664,1429,l),
(1238,809,l),
(664,216,l),
(545,358,l),
(952,809,l),
(536,1287,l)
);
}
);
width = 1334;
}
);
unicode = 187;
},
{
glyphname = onequarter;
layers = (
{
layerId = "F01671F1-619E-4C0E-98FE-F2F10EEA5364";
shapes = (
{
closed = 1;
nodes = (
(1213,676,l),
(1076,676,l),
(742,125,l),
(742,9,l),
(1086,9,l),
(1086,-53,l),
(914,-53,l),
(914,-176,l),
(1330,-176,l),
(1330,-53,l),
(1213,-53,l),
(1213,9,l),
(1330,9,l),
(1330,136,l),
(1213,136,l)
);
},
{
closed = 1;
nodes = (
(1086,136,l),
(893,136,l),
(1082,492,l),
(1086,492,l)
);
},
{
closed = 1;
nodes = (
(2,1323,l),
(55,1207,l),
(193,1269,l),
(193,702,l),
(27,702,l),
(27,575,l),
(469,575,l),
(469,702,l),
(322,702,l),
(322,1429,l),
(242,1429,l)
);
},
{
closed = 1;
nodes = (
(1236,1461,l),
(80,-129,l),
(182,-209,l),
(1343,1387,l)
);
}
);
width = 1334;
}
);
unicode = 188;
},
{
glyphname = onehalf;
layers = (
{
layerId = "F01671F1-619E-4C0E-98FE-F2F10EEA5364";
shapes = (
{
closed = 1;
nodes = (
(2,1323,l),
(55,1207,l),
(193,1269,l),
(193,702,l),
(27,702,l),
(27,575,l),
(469,575,l),
(469,702,l),
(322,702,l),
(322,1429,l),
(242,1429,l)
);
},
{
closed = 1;
nodes = (
(1192,1461,l),
(36,-129,l),
(138,-209,l),
(1298,1387,l)
);
},
{
closed = 1;
nodes = (
(1203,76,l),
(1203,-49,l),
(965,-49,l),
(1078,53,l),
(1154,120,o),
(1251,214,o),
(1309,293,o),
(1330,365,o),
(1330,409,q),
(1330,465,o),
(1285,562,o),
(1209,634,o),
(1109,676,o),
(1052,676,q),
(898,676,o),
(785,543,q),
(785,414,l),
(920,414,l),
(918,435,l),
(916,460,l),
(916,494,o),
(999,547,o),
(1050,547,q),
(1109,547,o),
(1194,469,o),
(1194,411,q),
(1194,384,o),
(1185,342,o),
(1152,293,o),
(1086,229,o),
(1031,180,q),
(1009,160,o),
(944,100,o),
(876,40,o),
(809,-17,o),
(787,-38,q),
(760,-60,l),
(760,-176,l),
(1327,-176,l),
(1327,76,l)
);
}
);
width = 1334;
}
);
unicode = 189;
},
{
glyphname = threequarters;
layers = (
{
layerId = "F01671F1-619E-4C0E-98FE-F2F10EEA5364";
shapes = (
{
closed = 1;
nodes = (
(1243,676,l),
(1105,676,l),
(772,125,l),
(772,9,l),
(1116,9,l),
(1116,-53,l),
(942,-53,l),
(942,-176,l),
(1360,-176,l),
(1360,-53,l),
(1243,-53,l),
(1243,9,l),
(1360,9,l),
(1360,136,l),
(1243,136,l)
);
},
{
closed = 1;
nodes = (
(1116,136,l),
(925,136,l),
(1111,492,l),
(1116,492,l)
);
},
{
closed = 1;
nodes = (
(87,1216,l),
(138,1247,l),
(187,1279,o),
(249,1300,o),
(282,1300,q),
(335,1300,o),
(403,1243,o),
(403,1198,q),
(403,1141,o),
(356,1107,q),
(335,1090,o),
(291,1082,o),
(231,1080,q),
(212,1080,l),
(212,954,l),
(233,954,l),
(284,956,l),
(363,956,o),
(445,889,o),
(445,825,q),
(445,762,o),
(358,685,o),
(287,685,q),
(240,685,o),
(142,713,o),
(58,753,q),
(7,636,l),
(66,611,l),
(142,581,o),
(233,558,o),
(284,558,q),
(346,558,o),
(456,598,o),
(531,669,o),
(575,767,o),
(575,825,q),
(575,958,o),
(465,1031,q),
(536,1103,o),
(536,1200,q),
(536,1298,o),
(391,1429,o),
(282,1429,q),
(253,1429,o),
(200,1421,o),
(140,1396,o),
(68,1353,o),
(20,1323,q)
);
},
{
closed = 1;
nodes = (
(1274,1461,l),
(118,-129,l),
(220,-209,l),
(1378,1387,l)
);
}
);
width = 1334;
}
);
unicode = 190;
},
{
glyphname = questiondown;
layers = (
{
layerId = "F01671F1-619E-4C0E-98FE-F2F10EEA5364";
shapes = (
{
closed = 1;
nodes = (
(1082,87,l),
(889,87,l),
(889,-64,l),
(844,-80,l),
(829,-85,o),
(783,-93,o),
(734,-100,o),
(685,-102,o),
(669,-102,q),
(627,-102,o),
(543,-78,o),
(475,-27,o),
(433,47,o),
(433,96,q),
(433,157,o),
(492,238,o),
(581,289,o),
(689,320,o),
(740,333,q),
(753,335,o),
(787,342,o),
(800,346,q),
(804,346,o),
(816,352,o),
(818,352,q),
(818,622,l),
(627,622,l),
(627,498,l),
(581,484,o),
(445,435,o),
(322,346,o),
(236,206,o),
(236,100,q),
(236,22,o),
(295,-120,o),
(411,-231,o),
(583,-295,o),
(694,-295,q),
(774,-295,o),
(914,-269,o),
(1018,-231,q),
(1052,-220,o),
(1071,-214,o),
(1082,-209,q)
);
},
{
closed = 1;
nodes = (
(812,704,o),
(918,809,o),
(918,880,q),
(918,952,o),
(809,1056,o),
(727,1056,q),
(647,1056,o),
(534,954,o),
(534,880,q),
(534,806,o),
(647,704,o),
(727,704,q)
);
}
);
width = 1334;
}
);
unicode = 191;
},
{
glyphname = Agrave;
layers = (
{
layerId = "F01671F1-619E-4C0E-98FE-F2F10EEA5364";
shapes = (
{
closed = 1;
nodes = (
(223,1296,l),
(223,1114,l),
(509,1114,l),
(129,182,l),
(0,182,l),
(0,0,l),
(526,0,l),
(526,182,l),
(329,182,l),
(416,401,l),
(916,401,l),
(1003,182,l),
(806,182,l),
(806,0,l),
(1334,0,l),
(1334,182,l),
(1209,182,l),
(758,1296,l)
);
},
{
closed = 1;
nodes = (
(844,583,l),
(492,583,l),
(666,1007,l)
);
},
{
closed = 1;
nodes = (
(346,1707,l),
(719,1498,l),
(912,1498,l),
(678,1716,l),
(346,1716,l)
);
}
);
width = 1334;
}
);
unicode = 192;
},
{
glyphname = Aacute;
layers = (
{
layerId = "F01671F1-619E-4C0E-98FE-F2F10EEA5364";
shapes = (
{
closed = 1;
nodes = (
(223,1296,l),
(223,1114,l),
(509,1114,l),
(129,182,l),
(0,182,l),
(0,0,l),
(526,0,l),
(526,182,l),
(329,182,l),
(416,401,l),
(916,401,l),
(1003,182,l),
(806,182,l),
(806,0,l),
(1334,0,l),
(1334,182,l),
(1209,182,l),
(758,1296,l)
);
},
{
closed = 1;
nodes = (
(844,583,l),
(492,583,l),
(666,1007,l)
);
},
{
closed = 1;
nodes = (
(1031,1707,l),
(1031,1716,l),
(700,1716,l),
(467,1498,l),
(660,1498,l)
);
}
);
width = 1334;
}
);
unicode = 193;
},
{
glyphname = Acircumflex;
layers = (
{
layerId = "F01671F1-619E-4C0E-98FE-F2F10EEA5364";
shapes = (
{
closed = 1;
nodes = (
(223,1296,l),
(223,1114,l),
(509,1114,l),
(129,182,l),
(0,182,l),
(0,0,l),
(526,0,l),
(526,182,l),
(329,182,l),
(416,401,l),
(916,401,l),
(1003,182,l),
(806,182,l),
(806,0,l),
(1334,0,l),
(1334,182,l),
(1209,182,l),
(758,1296,l)
);
},
{
closed = 1;
nodes = (
(844,583,l),
(492,583,l),
(666,1007,l)
);
},
{
closed = 1;
nodes = (
(567,1739,l),
(360,1549,l),
(478,1478,l),
(658,1585,l),
(861,1478,l),
(976,1549,l),
(758,1739,l)
);
}
);
width = 1334;
}
);
unicode = 194;
},
{
glyphname = Atilde;
layers = (
{
layerId = "F01671F1-619E-4C0E-98FE-F2F10EEA5364";
shapes = (
{
closed = 1;
nodes = (
(223,1296,l),
(223,1114,l),
(509,1114,l),
(129,182,l),
(0,182,l),
(0,0,l),
(526,0,l),
(526,182,l),
(329,182,l),
(416,401,l),
(916,401,l),
(1003,182,l),
(806,182,l),
(806,0,l),
(1334,0,l),
(1334,182,l),
(1209,182,l),
(758,1296,l)
);
},
{
closed = 1;
nodes = (
(844,583,l),
(492,583,l),
(666,1007,l)
);
},
{
closed = 1;
nodes = (
(905,1756,l),
(885,1705,o),
(842,1634,o),
(804,1634,q),
(787,1634,o),
(745,1652,o),
(707,1680,q),
(669,1707,o),
(585,1752,o),
(526,1752,q),
(465,1752,o),
(380,1703,o),
(325,1634,o),
(289,1552,o),
(276,1518,q),
(429,1467,l),
(431,1470,o),
(435,1483,o),
(437,1485,q),
(449,1516,o),
(490,1587,o),
(526,1587,q),
(534,1587,o),
(547,1585,o),
(567,1576,o),
(598,1556,o),
(622,1538,q),
(685,1494,o),
(762,1472,o),
(796,1472,q),
(865,1472,o),
(956,1523,o),
(1016,1599,o),
(1047,1678,o),
(1058,1710,q)
);
}
);
width = 1334;
}
);
unicode = 195;
},
{
glyphname = Adieresis;
layers = (
{
layerId = "F01671F1-619E-4C0E-98FE-F2F10EEA5364";
shapes = (
{
closed = 1;
nodes = (
(223,1296,l),
(223,1114,l),
(509,1114,l),
(129,182,l),
(0,182,l),
(0,0,l),
(526,0,l),
(526,182,l),
(329,182,l),
(416,401,l),
(916,401,l),
(1003,182,l),
(806,182,l),
(806,0,l),
(1334,0,l),
(1334,182,l),
(1209,182,l),
(758,1296,l)
);
},
{
closed = 1;
nodes = (
(844,583,l),
(492,583,l),
(666,1007,l)
);
},
{
closed = 1;
nodes = (
(396,1474,l),
(609,1474,l),
(609,1729,l),
(396,1729,l)
);
},
{
closed = 1;
nodes = (
(725,1474,l),
(938,1474,l),
(938,1729,l),
(725,1729,l)
);
}
);
width = 1334;
}
);
unicode = 196;
},
{
glyphname = Aring;
layers = (
{
layerId = "F01671F1-619E-4C0E-98FE-F2F10EEA5364";
shapes = (
{
closed = 1;
nodes = (
(223,1296,l),
(223,1114,l),
(509,1114,l),
(129,182,l),
(0,182,l),
(0,0,l),
(526,0,l),
(526,182,l),
(329,182,l),
(416,401,l),
(916,401,l),
(1003,182,l),
(806,182,l),
(806,0,l),
(1334,0,l),
(1334,182,l),
(1209,182,l),
(758,1296,l)
);
},
{
closed = 1;
nodes = (
(844,583,l),
(492,583,l),
(666,1007,l)
);
},
{
closed = 1;
nodes = (
(865,1714,o),
(749,1830,o),
(666,1830,q),
(585,1830,o),
(471,1714,o),
(471,1631,q),
(471,1549,o),
(585,1436,o),
(666,1436,q),
(749,1436,o),
(865,1549,o),
(865,1631,q)
);
},
{
closed = 1;
nodes = (
(738,1603,o),
(698,1561,o),
(666,1561,q),
(638,1561,o),
(596,1603,o),
(596,1631,q),
(596,1663,o),
(638,1703,o),
(666,1703,q),
(698,1703,o),
(738,1663,o),
(738,1631,q)
);
}
);
width = 1334;
}
);
unicode = 197;
},
{
glyphname = AE;
layers = (
{
layerId = "F01671F1-619E-4C0E-98FE-F2F10EEA5364";
shapes = (
{
closed = 1;
nodes = (
(276,1296,l),
(276,1114,l),
(473,1114,l),
(131,182,l),
(4,182,l),
(4,0,l),
(473,0,l),
(473,182,l),
(303,182,l),
(380,398,l),
(618,398,l),
(618,0,l),
(1323,0,l),
(1323,484,l),
(1165,484,l),
(1147,182,l),
(809,182,l),
(809,569,l),
(902,569,l),
(902,422,l),
(1073,422,l),
(1073,920,l),
(902,920,l),
(902,740,l),
(809,740,l),
(809,1114,l),
(1147,1114,l),
(1165,816,l),
(1323,816,l),
(1323,1296,l)
);
},
{
closed = 1;
nodes = (
(618,569,l),
(427,569,l),
(613,1080,l),
(618,1080,l)
);
}
);
width = 1334;
}
);
unicode = 198;
},
{
glyphname = Ccedilla;
layers = (
{
layerId = "F01671F1-619E-4C0E-98FE-F2F10EEA5364";
shapes = (
{
closed = 1;
nodes = (
(823,-31,l),
(916,-15,o),
(1067,38,o),
(1194,111,o),
(1305,202,o),
(1358,253,q),
(1230,396,l),
(1192,363,o),
(1094,280,o),
(971,209,o),
(825,160,o),
(738,160,q),
(630,160,o),
(471,246,o),
(369,386,o),
(320,569,o),
(320,664,q),
(320,780,o),
(386,961,o),
(500,1080,o),
(649,1143,o),
(729,1143,q),
(829,1143,o),
(946,1076,o),
(1012,976,o),
(1035,853,o),
(1045,800,q),
(1230,825,l),
(1220,882,o),
(1207,1007,o),
(1207,1103,q),
(1207,1169,o),
(1213,1276,o),
(1218,1318,q),
(1033,1318,l),
(1020,1194,l),
(991,1220,o),
(929,1269,o),
(851,1309,o),
(758,1334,o),
(698,1334,q),
(598,1334,o),
(391,1245,o),
(223,1076,o),
(115,825,o),
(115,662,q),
(115,516,o),
(198,269,o),
(344,89,o),
(545,-20,o),
(660,-31,q),
(645,-174,l),
(651,-174,o),
(681,-178,o),
(711,-182,o),
(738,-187,o),
(742,-187,q),
(770,-191,o),
(806,-206,o),
(806,-225,q),
(806,-242,o),
(780,-251,o),
(767,-251,q),
(736,-251,o),
(658,-240,o),
(585,-227,o),
(524,-214,o),
(511,-212,q),
(487,-365,l),
(545,-380,o),
(694,-407,o),
(774,-407,q),
(891,-407,o),
(989,-300,o),
(989,-227,q),
(989,-178,o),
(954,-111,o),
(905,-68,o),
(844,-47,o),
(823,-40,q)
);
}
);
width = 1334;
}
);
unicode = 199;
},
{
glyphname = Egrave;
layers = (
{
layerId = "F01671F1-619E-4C0E-98FE-F2F10EEA5364";
shapes = (
{
closed = 1;
nodes = (
(100,1296,l),
(100,1114,l),
(284,1114,l),
(284,182,l),
(100,182,l),
(100,0,l),
(1230,0,l),
(1230,482,l),
(1045,482,l),
(1033,182,l),
(478,182,l),
(478,592,l),
(740,592,l),
(740,433,l),
(925,433,l),
(925,933,l),
(740,933,l),
(740,774,l),
(478,774,l),
(478,1114,l),
(1014,1114,l),
(1033,816,l),
(1218,816,l),
(1207,1296,l)
);
},
{
closed = 1;
nodes = (
(346,1707,l),
(719,1498,l),
(912,1498,l),
(678,1716,l),
(346,1716,l)
);
}
);
width = 1334;
}
);
unicode = 200;
},
{
glyphname = Eacute;
layers = (
{
layerId = "F01671F1-619E-4C0E-98FE-F2F10EEA5364";
shapes = (
{
closed = 1;
nodes = (
(100,1296,l),
(100,1114,l),
(284,1114,l),
(284,182,l),
(100,182,l),
(100,0,l),
(1230,0,l),
(1230,482,l),
(1045,482,l),
(1033,182,l),
(478,182,l),
(478,592,l),
(740,592,l),
(740,433,l),
(925,433,l),
(925,933,l),
(740,933,l),
(740,774,l),
(478,774,l),
(478,1114,l),
(1014,1114,l),
(1033,816,l),
(1218,816,l),
(1207,1296,l)
);
},
{
closed = 1;
nodes = (
(1031,1707,l),
(1031,1716,l),
(700,1716,l),
(467,1498,l),
(660,1498,l)
);
}
);
width = 1334;
}
);
unicode = 201;
},
{
glyphname = Ecircumflex;
layers = (
{
layerId = "F01671F1-619E-4C0E-98FE-F2F10EEA5364";
shapes = (
{
closed = 1;
nodes = (
(100,1296,l),
(100,1114,l),
(284,1114,l),
(284,182,l),
(100,182,l),
(100,0,l),
(1230,0,l),
(1230,482,l),
(1045,482,l),
(1033,182,l),
(478,182,l),
(478,592,l),
(740,592,l),
(740,433,l),
(925,433,l),
(925,933,l),
(740,933,l),
(740,774,l),
(478,774,l),
(478,1114,l),
(1014,1114,l),
(1033,816,l),
(1218,816,l),
(1207,1296,l)
);
},
{
closed = 1;
nodes = (
(567,1739,l),
(360,1549,l),
(478,1478,l),
(658,1585,l),
(861,1478,l),
(976,1549,l),
(758,1739,l)
);
}
);
width = 1334;
}
);
unicode = 202;
},
{
glyphname = Edieresis;
layers = (
{
layerId = "F01671F1-619E-4C0E-98FE-F2F10EEA5364";
shapes = (
{
closed = 1;
nodes = (
(100,1296,l),
(100,1114,l),
(284,1114,l),
(284,182,l),
(100,182,l),
(100,0,l),
(1230,0,l),
(1230,482,l),
(1045,482,l),
(1033,182,l),
(478,182,l),
(478,592,l),
(740,592,l),
(740,433,l),
(925,433,l),
(925,933,l),
(740,933,l),
(740,774,l),
(478,774,l),
(478,1114,l),
(1014,1114,l),
(1033,816,l),
(1218,816,l),
(1207,1296,l)
);
},
{
closed = 1;
nodes = (
(396,1474,l),
(609,1474,l),
(609,1729,l),
(396,1729,l)
);
},
{
closed = 1;
nodes = (
(725,1474,l),
(938,1474,l),
(938,1729,l),
(725,1729,l)
);
}
);
width = 1334;
}
);
unicode = 203;
},
{
glyphname = Igrave;
layers = (
{
layerId = "F01671F1-619E-4C0E-98FE-F2F10EEA5364";
shapes = (
{
closed = 1;
nodes = (
(195,1296,l),
(195,1114,l),
(571,1114,l),
(571,182,l),
(195,182,l),
(195,0,l),
(1141,0,l),
(1141,182,l),
(765,182,l),
(765,1114,l),
(1141,1114,l),
(1141,1296,l)
);
},
{
closed = 1;
nodes = (
(346,1707,l),
(719,1498,l),
(912,1498,l),
(678,1716,l),
(346,1716,l)
);
}
);
width = 1334;
}
);
unicode = 204;
},
{
glyphname = Iacute;
layers = (
{
layerId = "F01671F1-619E-4C0E-98FE-F2F10EEA5364";
shapes = (
{
closed = 1;
nodes = (
(195,1296,l),
(195,1114,l),
(571,1114,l),
(571,182,l),
(195,182,l),
(195,0,l),
(1141,0,l),
(1141,182,l),
(765,182,l),
(765,1114,l),
(1141,1114,l),
(1141,1296,l)
);
},
{
closed = 1;
nodes = (
(1031,1707,l),
(1031,1716,l),
(700,1716,l),
(467,1498,l),
(660,1498,l)
);
}
);
width = 1334;
}
);
unicode = 205;
},
{
glyphname = Icircumflex;
layers = (
{
layerId = "F01671F1-619E-4C0E-98FE-F2F10EEA5364";
shapes = (
{
closed = 1;
nodes = (
(195,1296,l),
(195,1114,l),
(571,1114,l),
(571,182,l),
(195,182,l),
(195,0,l),
(1141,0,l),
(1141,182,l),
(765,182,l),
(765,1114,l),
(1141,1114,l),
(1141,1296,l)
);
},
{
closed = 1;
nodes = (
(567,1739,l),
(360,1549,l),
(478,1478,l),
(658,1585,l),
(861,1478,l),
(976,1549,l),
(758,1739,l)
);
}
);
width = 1334;
}
);
unicode = 206;
},
{
glyphname = Idieresis;
layers = (
{
layerId = "F01671F1-619E-4C0E-98FE-F2F10EEA5364";
shapes = (
{
closed = 1;
nodes = (
(195,1296,l),
(195,1114,l),
(571,1114,l),
(571,182,l),
(195,182,l),
(195,0,l),
(1141,0,l),
(1141,182,l),
(765,182,l),
(765,1114,l),
(1141,1114,l),
(1141,1296,l)
);
},
{
closed = 1;
nodes = (
(396,1474,l),
(609,1474,l),
(609,1729,l),
(396,1729,l)
);
},
{
closed = 1;
nodes = (
(725,1474,l),
(938,1474,l),
(938,1729,l),
(725,1729,l)
);
}
);
width = 1334;
}
);
unicode = 207;
},
{
glyphname = Eth;
layers = (
{
layerId = "F01671F1-619E-4C0E-98FE-F2F10EEA5364";
shapes = (
{
closed = 1;
nodes = (
(51,1296,l),
(51,1114,l),
(223,1114,l),
(223,762,l),
(51,762,l),
(51,575,l),
(223,575,l),
(223,182,l),
(51,182,l),
(51,0,l),
(624,0,l),
(656,0,o),
(760,4,o),
(880,29,o),
(1005,85,o),
(1058,136,q),
(1094,169,o),
(1160,269,o),
(1213,401,o),
(1247,567,o),
(1247,669,q),
(1247,700,o),
(1241,802,o),
(1213,923,o),
(1156,1056,o),
(1058,1180,o),
(949,1251,o),
(831,1287,o),
(702,1296,o),
(632,1296,q)
);
},
{
closed = 1;
nodes = (
(634,1114,l),
(694,1114,o),
(787,1107,o),
(863,1080,o),
(927,1031,o),
(956,989,q),
(993,933,o),
(1043,776,o),
(1043,666,q),
(1043,526,o),
(971,329,o),
(916,274,q),
(882,240,o),
(802,202,o),
(723,185,o),
(651,182,o),
(624,182,q),
(416,182,l),
(416,575,l),
(740,575,l),
(740,762,l),
(416,762,l),
(416,1114,l)
);
}
);
width = 1334;
}
);
unicode = 208;
},
{
glyphname = Ntilde;
layers = (
{
layerId = "F01671F1-619E-4C0E-98FE-F2F10EEA5364";
shapes = (
{
closed = 1;
nodes = (
(11,1296,l),
(11,1114,l),
(185,1114,l),
(185,182,l),
(11,182,l),
(11,0,l),
(587,0,l),
(587,182,l),
(363,182,l),
(363,952,l),
(403,952,l),
(933,-27,l),
(1171,-27,l),
(1171,1114,l),
(1321,1114,l),
(1321,1296,l),
(772,1296,l),
(772,1114,l),
(993,1114,l),
(993,333,l),
(956,333,l),
(435,1296,l)
);
},
{
closed = 1;
nodes = (
(905,1756,l),
(885,1705,o),
(842,1634,o),
(804,1634,q),
(787,1634,o),
(745,1652,o),
(707,1680,q),
(669,1707,o),
(585,1752,o),
(526,1752,q),
(465,1752,o),
(380,1703,o),
(325,1634,o),
(289,1552,o),
(276,1518,q),
(429,1467,l),
(431,1470,o),
(435,1483,o),
(437,1485,q),
(449,1516,o),
(490,1587,o),
(526,1587,q),
(534,1587,o),
(547,1585,o),
(567,1576,o),
(598,1556,o),
(622,1538,q),
(685,1494,o),
(762,1472,o),
(796,1472,q),
(865,1472,o),
(956,1523,o),
(1016,1599,o),
(1047,1678,o),
(1058,1710,q)
);
}
);
width = 1334;
}
);
unicode = 209;
},
{
glyphname = Ograve;
layers = (
{
layerId = "F01671F1-619E-4C0E-98FE-F2F10EEA5364";
shapes = (
{
closed = 1;
nodes = (
(72,505,o),
(155,256,o),
(314,72,o),
(534,-36,o),
(666,-36,q),
(802,-36,o),
(1022,72,o),
(1178,258,o),
(1262,507,o),
(1262,649,q),
(1262,789,o),
(1178,1038,o),
(1022,1224,o),
(802,1334,o),
(666,1334,q),
(531,1334,o),
(312,1224,o),
(155,1038,o),
(72,787,o),
(72,647,q)
);
},
{
closed = 1;
nodes = (
(276,745,o),
(329,925,o),
(429,1060,o),
(573,1143,o),
(666,1143,q),
(762,1143,o),
(907,1058,o),
(1007,920,o),
(1058,742,o),
(1058,649,q),
(1058,551,o),
(1005,371,o),
(905,236,o),
(760,155,o),
(666,155,q),
(575,155,o),
(429,236,o),
(329,373,o),
(276,551,o),
(276,649,q)
);
},
{
closed = 1;
nodes = (
(346,1707,l),
(719,1498,l),
(912,1498,l),
(678,1716,l),
(346,1716,l)
);
}
);
width = 1334;
}
);
unicode = 210;
},
{
glyphname = Oacute;
layers = (
{
layerId = "F01671F1-619E-4C0E-98FE-F2F10EEA5364";
shapes = (
{
closed = 1;
nodes = (
(72,505,o),
(155,256,o),
(314,72,o),
(534,-36,o),
(666,-36,q),
(802,-36,o),
(1022,72,o),
(1178,258,o),
(1262,507,o),
(1262,649,q),
(1262,789,o),
(1178,1038,o),
(1022,1224,o),
(802,1334,o),
(666,1334,q),
(531,1334,o),
(312,1224,o),
(155,1038,o),
(72,787,o),
(72,647,q)
);
},
{
closed = 1;
nodes = (
(276,745,o),
(329,925,o),
(429,1060,o),
(573,1143,o),
(666,1143,q),
(762,1143,o),
(907,1058,o),
(1007,920,o),
(1058,742,o),
(1058,649,q),
(1058,551,o),
(1005,371,o),
(905,236,o),
(760,155,o),
(666,155,q),
(575,155,o),
(429,236,o),
(329,373,o),
(276,551,o),
(276,649,q)
);
},
{
closed = 1;
nodes = (
(1031,1707,l),
(1031,1716,l),
(700,1716,l),
(467,1498,l),
(660,1498,l)
);
}
);
width = 1334;
}
);
unicode = 211;
},
{
glyphname = Ocircumflex;
layers = (
{
layerId = "F01671F1-619E-4C0E-98FE-F2F10EEA5364";
shapes = (
{
closed = 1;
nodes = (
(72,505,o),
(155,256,o),
(314,72,o),
(534,-36,o),
(666,-36,q),
(802,-36,o),
(1022,72,o),
(1178,258,o),
(1262,507,o),
(1262,649,q),
(1262,789,o),
(1178,1038,o),
(1022,1224,o),
(802,1334,o),
(666,1334,q),
(531,1334,o),
(312,1224,o),
(155,1038,o),
(72,787,o),
(72,647,q)
);
},
{
closed = 1;
nodes = (
(276,745,o),
(329,925,o),
(429,1060,o),
(573,1143,o),
(666,1143,q),
(762,1143,o),
(907,1058,o),
(1007,920,o),
(1058,742,o),
(1058,649,q),
(1058,551,o),
(1005,371,o),
(905,236,o),
(760,155,o),
(666,155,q),
(575,155,o),
(429,236,o),
(329,373,o),
(276,551,o),
(276,649,q)
);
},
{
closed = 1;
nodes = (
(567,1739,l),
(360,1549,l),
(478,1478,l),
(658,1585,l),
(861,1478,l),
(976,1549,l),
(758,1739,l)
);
}
);
width = 1334;
}
);
unicode = 212;
},
{
glyphname = Otilde;
layers = (
{
layerId = "F01671F1-619E-4C0E-98FE-F2F10EEA5364";
shapes = (
{
closed = 1;
nodes = (
(72,505,o),
(155,256,o),
(314,72,o),
(534,-36,o),
(666,-36,q),
(802,-36,o),
(1022,72,o),
(1178,258,o),
(1262,507,o),
(1262,649,q),
(1262,789,o),
(1178,1038,o),
(1022,1224,o),
(802,1334,o),
(666,1334,q),
(531,1334,o),
(312,1224,o),
(155,1038,o),
(72,787,o),
(72,647,q)
);
},
{
closed = 1;
nodes = (
(276,745,o),
(329,925,o),
(429,1060,o),
(573,1143,o),
(666,1143,q),
(762,1143,o),
(907,1058,o),
(1007,920,o),
(1058,742,o),
(1058,649,q),
(1058,551,o),
(1005,371,o),
(905,236,o),
(760,155,o),
(666,155,q),
(575,155,o),
(429,236,o),
(329,373,o),
(276,551,o),
(276,649,q)
);
},
{
closed = 1;
nodes = (
(905,1756,l),
(885,1705,o),
(842,1634,o),
(804,1634,q),
(787,1634,o),
(745,1652,o),
(707,1680,q),
(669,1707,o),
(585,1752,o),
(526,1752,q),
(465,1752,o),
(380,1703,o),
(325,1634,o),
(289,1552,o),
(276,1518,q),
(429,1467,l),
(431,1470,o),
(435,1483,o),
(437,1485,q),
(449,1516,o),
(490,1587,o),
(526,1587,q),
(534,1587,o),
(547,1585,o),
(567,1576,o),
(598,1556,o),
(622,1538,q),
(685,1494,o),
(762,1472,o),
(796,1472,q),
(865,1472,o),
(956,1523,o),
(1016,1599,o),
(1047,1678,o),
(1058,1710,q)
);
}
);
width = 1334;
}
);
unicode = 213;
},
{
glyphname = Odieresis;
layers = (
{
layerId = "F01671F1-619E-4C0E-98FE-F2F10EEA5364";
shapes = (
{
closed = 1;
nodes = (
(72,505,o),
(155,256,o),
(314,72,o),
(534,-36,o),
(666,-36,q),
(802,-36,o),
(1022,72,o),
(1178,258,o),
(1262,507,o),
(1262,649,q),
(1262,789,o),
(1178,1038,o),
(1022,1224,o),
(802,1334,o),
(666,1334,q),
(531,1334,o),
(312,1224,o),
(155,1038,o),
(72,787,o),
(72,647,q)
);
},
{
closed = 1;
nodes = (
(276,745,o),
(329,925,o),
(429,1060,o),
(573,1143,o),
(666,1143,q),
(762,1143,o),
(907,1058,o),
(1007,920,o),
(1058,742,o),
(1058,649,q),
(1058,551,o),
(1005,371,o),
(905,236,o),
(760,155,o),
(666,155,q),
(575,155,o),
(429,236,o),
(329,373,o),
(276,551,o),
(276,649,q)
);
},
{
closed = 1;
nodes = (
(396,1474,l),
(609,1474,l),
(609,1729,l),
(396,1729,l)
);
},
{
closed = 1;
nodes = (
(725,1474,l),
(938,1474,l),
(938,1729,l),
(725,1729,l)
);
}
);
width = 1334;
}
);
unicode = 214;
},
{
glyphname = multiply;
layers = (
{
layerId = "F01671F1-619E-4C0E-98FE-F2F10EEA5364";
shapes = (
{
closed = 1;
nodes = (
(804,702,l),
(1122,1020,l),
(984,1158,l),
(666,840,l),
(349,1158,l),
(212,1020,l),
(529,702,l),
(212,384,l),
(349,249,l),
(666,567,l),
(984,249,l),
(1122,384,l)
);
}
);
width = 1334;
}
);
unicode = 215;
},
{
glyphname = Oslash;
layers = (
{
layerId = "F01671F1-619E-4C0E-98FE-F2F10EEA5364";
shapes = (
{
closed = 1;
nodes = (
(1092,1325,l),
(1012,1218,l),
(993,1232,o),
(938,1271,o),
(853,1307,o),
(740,1334,o),
(664,1334,q),
(529,1334,o),
(309,1222,o),
(155,1035,o),
(72,789,o),
(72,651,q),
(72,634,o),
(76,536,o),
(102,405,o),
(160,258,o),
(214,191,q),
(98,45,l),
(242,-66,l),
(344,64,l),
(416,11,o),
(581,-36,o),
(669,-36,q),
(802,-36,o),
(1020,68,o),
(1175,253,o),
(1262,505,o),
(1262,649,q),
(1262,732,o),
(1238,865,o),
(1203,971,o),
(1156,1052,o),
(1136,1084,q),
(1236,1218,l)
);
},
{
closed = 1;
nodes = (
(1003,914,l),
(1018,880,o),
(1063,760,o),
(1063,656,q),
(1063,541,o),
(1001,356,o),
(891,225,o),
(749,155,o),
(669,155,q),
(605,155,o),
(492,193,o),
(462,218,q)
);
},
{
closed = 1;
nodes = (
(344,360,l),
(309,422,o),
(276,583,o),
(276,653,q),
(276,742,o),
(327,918,o),
(427,1058,o),
(571,1143,o),
(666,1143,q),
(760,1143,o),
(867,1084,o),
(891,1065,q)
);
}
);
width = 1334;
}
);
unicode = 216;
},
{
glyphname = Ugrave;
layers = (
{
layerId = "F01671F1-619E-4C0E-98FE-F2F10EEA5364";
shapes = (
{
closed = 1;
nodes = (
(34,1296,l),
(34,1114,l),
(187,1114,l),
(187,547,l),
(187,511,o),
(189,414,o),
(204,305,o),
(236,195,o),
(267,151,q),
(303,98,o),
(403,25,o),
(509,-17,o),
(620,-36,o),
(666,-36,q),
(742,-36,o),
(859,-17,o),
(952,25,o),
(1029,96,o),
(1067,151,q),
(1098,198,o),
(1131,307,o),
(1145,414,o),
(1147,511,o),
(1147,547,q),
(1147,1114,l),
(1300,1114,l),
(1300,1296,l),
(736,1296,l),
(736,1114,l),
(954,1114,l),
(954,547,l),
(954,475,o),
(942,335,o),
(887,225,o),
(772,155,o),
(666,155,q),
(562,155,o),
(447,225,o),
(391,335,o),
(380,475,o),
(380,547,q),
(380,1114,l),
(598,1114,l),
(598,1296,l)
);
},
{
closed = 1;
nodes = (
(346,1707,l),
(719,1498,l),
(912,1498,l),
(678,1716,l),
(346,1716,l)
);
}
);
width = 1334;
}
);
unicode = 217;
},
{
glyphname = Uacute;
layers = (
{
layerId = "F01671F1-619E-4C0E-98FE-F2F10EEA5364";
shapes = (
{
closed = 1;
nodes = (
(34,1296,l),
(34,1114,l),
(187,1114,l),
(187,547,l),
(187,511,o),
(189,414,o),
(204,305,o),
(236,195,o),
(267,151,q),
(303,98,o),
(403,25,o),
(509,-17,o),
(620,-36,o),
(666,-36,q),
(742,-36,o),
(859,-17,o),
(952,25,o),
(1029,96,o),
(1067,151,q),
(1098,198,o),
(1131,307,o),
(1145,414,o),
(1147,511,o),
(1147,547,q),
(1147,1114,l),
(1300,1114,l),
(1300,1296,l),
(736,1296,l),
(736,1114,l),
(954,1114,l),
(954,547,l),
(954,475,o),
(942,335,o),
(887,225,o),
(772,155,o),
(666,155,q),
(562,155,o),
(447,225,o),
(391,335,o),
(380,475,o),
(380,547,q),
(380,1114,l),
(598,1114,l),
(598,1296,l)
);
},
{
closed = 1;
nodes = (
(1031,1707,l),
(1031,1716,l),
(700,1716,l),
(467,1498,l),
(660,1498,l)
);
}
);
width = 1334;
}
);
unicode = 218;
},
{
glyphname = Ucircumflex;
layers = (
{
layerId = "F01671F1-619E-4C0E-98FE-F2F10EEA5364";
shapes = (
{
closed = 1;
nodes = (
(34,1296,l),
(34,1114,l),
(187,1114,l),
(187,547,l),
(187,511,o),
(189,414,o),
(204,305,o),
(236,195,o),
(267,151,q),
(303,98,o),
(403,25,o),
(509,-17,o),
(620,-36,o),
(666,-36,q),
(742,-36,o),
(859,-17,o),
(952,25,o),
(1029,96,o),
(1067,151,q),
(1098,198,o),
(1131,307,o),
(1145,414,o),
(1147,511,o),
(1147,547,q),
(1147,1114,l),
(1300,1114,l),
(1300,1296,l),
(736,1296,l),
(736,1114,l),
(954,1114,l),
(954,547,l),
(954,475,o),
(942,335,o),
(887,225,o),
(772,155,o),
(666,155,q),
(562,155,o),
(447,225,o),
(391,335,o),
(380,475,o),
(380,547,q),
(380,1114,l),
(598,1114,l),
(598,1296,l)
);
},
{
closed = 1;
nodes = (
(567,1739,l),
(360,1549,l),
(478,1478,l),
(658,1585,l),
(861,1478,l),
(976,1549,l),
(758,1739,l)
);
}
);
width = 1334;
}
);
unicode = 219;
},
{
glyphname = Udieresis;
layers = (
{
layerId = "F01671F1-619E-4C0E-98FE-F2F10EEA5364";
shapes = (
{
closed = 1;
nodes = (
(34,1296,l),
(34,1114,l),
(187,1114,l),
(187,547,l),
(187,511,o),
(189,414,o),
(204,305,o),
(236,195,o),
(267,151,q),
(303,98,o),
(403,25,o),
(509,-17,o),
(620,-36,o),
(666,-36,q),
(742,-36,o),
(859,-17,o),
(952,25,o),
(1029,96,o),
(1067,151,q),
(1098,198,o),
(1131,307,o),
(1145,414,o),
(1147,511,o),
(1147,547,q),
(1147,1114,l),
(1300,1114,l),
(1300,1296,l),
(736,1296,l),
(736,1114,l),
(954,1114,l),
(954,547,l),
(954,475,o),
(942,335,o),
(887,225,o),
(772,155,o),
(666,155,q),
(562,155,o),
(447,225,o),
(391,335,o),
(380,475,o),
(380,547,q),
(380,1114,l),
(598,1114,l),
(598,1296,l)
);
},
{
closed = 1;
nodes = (
(396,1474,l),
(609,1474,l),
(609,1729,l),
(396,1729,l)
);
},
{
closed = 1;
nodes = (
(725,1474,l),
(938,1474,l),
(938,1729,l),
(725,1729,l)
);
}
);
width = 1334;
}
);
unicode = 220;
},
{
glyphname = Yacute;
layers = (
{
layerId = "F01671F1-619E-4C0E-98FE-F2F10EEA5364";
shapes = (
{
closed = 1;
nodes = (
(47,1296,l),
(47,1114,l),
(202,1114,l),
(573,498,l),
(573,182,l),
(316,182,l),
(316,0,l),
(1018,0,l),
(1018,182,l),
(765,182,l),
(765,498,l),
(1131,1114,l),
(1287,1114,l),
(1287,1296,l),
(783,1296,l),
(783,1114,l),
(916,1114,l),
(674,702,l),
(427,1114,l),
(556,1114,l),
(556,1296,l)
);
},
{
closed = 1;
nodes = (
(1031,1707,l),
(1031,1716,l),
(700,1716,l),
(467,1498,l),
(660,1498,l)
);
}
);
width = 1334;
}
);
unicode = 221;
},
{
glyphname = Thorn;
layers = (
{
layerId = "F01671F1-619E-4C0E-98FE-F2F10EEA5364";
shapes = (
{
closed = 1;
nodes = (
(545,1022,l),
(545,1114,l),
(818,1114,l),
(818,1296,l),
(180,1296,l),
(180,1114,l),
(352,1114,l),
(352,182,l),
(180,182,l),
(180,0,l),
(818,0,l),
(818,182,l),
(545,182,l),
(545,284,l),
(622,284,l),
(736,284,o),
(887,291,o),
(989,303,o),
(1056,322,o),
(1086,335,q),
(1173,373,o),
(1258,551,o),
(1258,649,q),
(1258,742,o),
(1205,872,o),
(1116,954,o),
(1003,999,o),
(880,1018,o),
(760,1022,o),
(711,1022,q)
);
},
{
closed = 1;
nodes = (
(738,851,l),
(791,851,o),
(910,844,o),
(1009,806,o),
(1076,725,o),
(1076,649,q),
(1076,583,o),
(1022,505,o),
(923,465,o),
(778,454,o),
(689,454,q),
(545,454,l),
(545,851,l)
);
}
);
width = 1334;
}
);
unicode = 222;
},
{
glyphname = germandbls;
layers = (
{
layerId = "F01671F1-619E-4C0E-98FE-F2F10EEA5364";
shapes = (
{
closed = 1;
nodes = (
(118,182,l),
(118,0,l),
(475,0,l),
(475,996,l),
(475,1038,o),
(494,1124,o),
(538,1192,o),
(613,1234,o),
(671,1234,q),
(747,1234,o),
(823,1149,o),
(823,1078,q),
(823,1016,o),
(765,940,o),
(683,900,o),
(592,887,o),
(558,885,q),
(558,702,l),
(751,696,o),
(963,554,o),
(963,398,q),
(963,380,o),
(956,303,o),
(925,223,o),
(855,163,o),
(796,163,q),
(721,163,o),
(607,240,o),
(558,289,q),
(558,78,l),
(571,64,o),
(609,27,o),
(669,-7,o),
(755,-31,o),
(814,-31,q),
(900,-31,o),
(1033,34,o),
(1122,147,o),
(1167,300,o),
(1167,391,q),
(1167,447,o),
(1143,569,o),
(1080,683,o),
(974,783,o),
(891,816,q),
(907,829,o),
(954,867,o),
(993,929,o),
(1022,1016,o),
(1022,1076,q),
(1022,1145,o),
(976,1271,o),
(889,1370,o),
(758,1429,o),
(676,1429,q),
(592,1429,o),
(447,1370,o),
(342,1258,o),
(282,1103,o),
(282,1007,q),
(282,182,l)
);
}
);
width = 1334;
}
);
unicode = 223;
},
{
glyphname = agrave;
layers = (
{
layerId = "F01671F1-619E-4C0E-98FE-F2F10EEA5364";
shapes = (
{
closed = 1;
nodes = (
(1056,683,l),
(1056,853,o),
(861,1054,o),
(647,1054,q),
(511,1054,o),
(282,980,o),
(180,938,q),
(256,760,l),
(287,774,o),
(371,809,o),
(473,840,o),
(587,863,o),
(645,863,q),
(727,863,o),
(816,823,o),
(855,762,o),
(863,694,o),
(863,664,q),
(802,671,o),
(685,683,o),
(609,683,q),
(462,683,o),
(269,607,o),
(153,494,o),
(106,367,o),
(106,316,q),
(106,251,o),
(163,127,o),
(265,29,o),
(407,-31,o),
(496,-31,q),
(562,-31,o),
(674,-2,o),
(762,38,o),
(836,87,o),
(863,106,q),
(863,0,l),
(1247,0,l),
(1247,182,l),
(1056,182,l)
);
},
{
closed = 1;
nodes = (
(863,360,l),
(798,289,o),
(681,209,o),
(583,169,o),
(509,160,o),
(494,160,q),
(458,160,o),
(391,185,o),
(338,227,o),
(307,282,o),
(307,314,q),
(307,322,o),
(320,384,o),
(382,449,o),
(513,500,o),
(632,500,q),
(696,500,o),
(804,484,o),
(863,475,q)
);
},
{
closed = 1;
nodes = (
(346,1419,l),
(719,1209,l),
(912,1209,l),
(678,1427,l),
(346,1427,l)
);
}
);
width = 1334;
}
);
unicode = 224;
},
{
glyphname = aacute;
layers = (
{
layerId = "F01671F1-619E-4C0E-98FE-F2F10EEA5364";
shapes = (
{
closed = 1;
nodes = (
(1056,683,l),
(1056,853,o),
(861,1054,o),
(647,1054,q),
(511,1054,o),
(282,980,o),
(180,938,q),
(256,760,l),
(287,774,o),
(371,809,o),
(473,840,o),
(587,863,o),
(645,863,q),
(727,863,o),
(816,823,o),
(855,762,o),
(863,694,o),
(863,664,q),
(802,671,o),
(685,683,o),
(609,683,q),
(462,683,o),
(269,607,o),
(153,494,o),
(106,367,o),
(106,316,q),
(106,251,o),
(163,127,o),
(265,29,o),
(407,-31,o),
(496,-31,q),
(562,-31,o),
(674,-2,o),
(762,38,o),
(836,87,o),
(863,106,q),
(863,0,l),
(1247,0,l),
(1247,182,l),
(1056,182,l)
);
},
{
closed = 1;
nodes = (
(863,360,l),
(798,289,o),
(681,209,o),
(583,169,o),
(509,160,o),
(494,160,q),
(458,160,o),
(391,185,o),
(338,227,o),
(307,282,o),
(307,314,q),
(307,322,o),
(320,384,o),
(382,449,o),
(513,500,o),
(632,500,q),
(696,500,o),
(804,484,o),
(863,475,q)
);
},
{
closed = 1;
nodes = (
(1031,1419,l),
(1031,1427,l),
(700,1427,l),
(467,1209,l),
(660,1209,l)
);
}
);
width = 1334;
}
);
unicode = 225;
},
{
glyphname = acircumflex;
layers = (
{
layerId = "F01671F1-619E-4C0E-98FE-F2F10EEA5364";
shapes = (
{
closed = 1;
nodes = (
(1056,683,l),
(1056,853,o),
(861,1054,o),
(647,1054,q),
(511,1054,o),
(282,980,o),
(180,938,q),
(256,760,l),
(287,774,o),
(371,809,o),
(473,840,o),
(587,863,o),
(645,863,q),
(727,863,o),
(816,823,o),
(855,762,o),
(863,694,o),
(863,664,q),
(802,671,o),
(685,683,o),
(609,683,q),
(462,683,o),
(269,607,o),
(153,494,o),
(106,367,o),
(106,316,q),
(106,251,o),
(163,127,o),
(265,29,o),
(407,-31,o),
(496,-31,q),
(562,-31,o),
(674,-2,o),
(762,38,o),
(836,87,o),
(863,106,q),
(863,0,l),
(1247,0,l),
(1247,182,l),
(1056,182,l)
);
},
{
closed = 1;
nodes = (
(863,360,l),
(798,289,o),
(681,209,o),
(583,169,o),
(509,160,o),
(494,160,q),
(458,160,o),
(391,185,o),
(338,227,o),
(307,282,o),
(307,314,q),
(307,322,o),
(320,384,o),
(382,449,o),
(513,500,o),
(632,500,q),
(696,500,o),
(804,484,o),
(863,475,q)
);
},
{
closed = 1;
nodes = (
(567,1449,l),
(360,1260,l),
(478,1190,l),
(658,1296,l),
(861,1190,l),
(976,1260,l),
(758,1449,l)
);
}
);
width = 1334;
}
);
unicode = 226;
},
{
glyphname = atilde;
layers = (
{
layerId = "F01671F1-619E-4C0E-98FE-F2F10EEA5364";
shapes = (
{
closed = 1;
nodes = (
(1056,683,l),
(1056,853,o),
(861,1054,o),
(647,1054,q),
(511,1054,o),
(282,980,o),
(180,938,q),
(256,760,l),
(287,774,o),
(371,809,o),
(473,840,o),
(587,863,o),
(645,863,q),
(727,863,o),
(816,823,o),
(855,762,o),
(863,694,o),
(863,664,q),
(802,671,o),
(685,683,o),
(609,683,q),
(462,683,o),
(269,607,o),
(153,494,o),
(106,367,o),
(106,316,q),
(106,251,o),
(163,127,o),
(265,29,o),
(407,-31,o),
(496,-31,q),
(562,-31,o),
(674,-2,o),
(762,38,o),
(836,87,o),
(863,106,q),
(863,0,l),
(1247,0,l),
(1247,182,l),
(1056,182,l)
);
},
{
closed = 1;
nodes = (
(863,360,l),
(798,289,o),
(681,209,o),
(583,169,o),
(509,160,o),
(494,160,q),
(458,160,o),
(391,185,o),
(338,227,o),
(307,282,o),
(307,314,q),
(307,322,o),
(320,384,o),
(382,449,o),
(513,500,o),
(632,500,q),
(696,500,o),
(804,484,o),
(863,475,q)
);
},
{
closed = 1;
nodes = (
(905,1467,l),
(885,1416,o),
(842,1345,o),
(804,1345,q),
(787,1345,o),
(745,1362,o),
(707,1391,q),
(669,1419,o),
(585,1463,o),
(526,1463,q),
(465,1463,o),
(380,1414,o),
(325,1345,o),
(289,1262,o),
(276,1230,q),
(429,1178,l),
(431,1180,o),
(435,1194,o),
(437,1196,q),
(449,1227,o),
(490,1298,o),
(526,1298,q),
(534,1298,o),
(547,1296,o),
(567,1287,o),
(598,1267,o),
(622,1249,q),
(685,1205,o),
(762,1183,o),
(796,1183,q),
(865,1183,o),
(956,1234,o),
(1016,1309,o),
(1047,1389,o),
(1058,1421,q)
);
}
);
width = 1334;
}
);
unicode = 227;
},
{
glyphname = adieresis;
layers = (
{
layerId = "F01671F1-619E-4C0E-98FE-F2F10EEA5364";
shapes = (
{
closed = 1;
nodes = (
(1056,683,l),
(1056,853,o),
(861,1054,o),
(647,1054,q),
(511,1054,o),
(282,980,o),
(180,938,q),
(256,760,l),
(287,774,o),
(371,809,o),
(473,840,o),
(587,863,o),
(645,863,q),
(727,863,o),
(816,823,o),
(855,762,o),
(863,694,o),
(863,664,q),
(802,671,o),
(685,683,o),
(609,683,q),
(462,683,o),
(269,607,o),
(153,494,o),
(106,367,o),
(106,316,q),
(106,251,o),
(163,127,o),
(265,29,o),
(407,-31,o),
(496,-31,q),
(562,-31,o),
(674,-2,o),
(762,38,o),
(836,87,o),
(863,106,q),
(863,0,l),
(1247,0,l),
(1247,182,l),
(1056,182,l)
);
},
{
closed = 1;
nodes = (
(863,360,l),
(798,289,o),
(681,209,o),
(583,169,o),
(509,160,o),
(494,160,q),
(458,160,o),
(391,185,o),
(338,227,o),
(307,282,o),
(307,314,q),
(307,322,o),
(320,384,o),
(382,449,o),
(513,500,o),
(632,500,q),
(696,500,o),
(804,484,o),
(863,475,q)
);
},
{
closed = 1;
nodes = (
(396,1185,l),
(609,1185,l),
(609,1440,l),
(396,1440,l)
);
},
{
closed = 1;
nodes = (
(725,1185,l),
(938,1185,l),
(938,1440,l),
(725,1440,l)
);
}
);
width = 1334;
}
);
unicode = 228;
},
{
glyphname = aring;
layers = (
{
layerId = "F01671F1-619E-4C0E-98FE-F2F10EEA5364";
shapes = (
{
closed = 1;
nodes = (
(1056,683,l),
(1056,853,o),
(861,1054,o),
(647,1054,q),
(511,1054,o),
(282,980,o),
(180,938,q),
(256,760,l),
(287,774,o),
(371,809,o),
(473,840,o),
(587,863,o),
(645,863,q),
(727,863,o),
(816,823,o),
(855,762,o),
(863,694,o),
(863,664,q),
(802,671,o),
(685,683,o),
(609,683,q),
(462,683,o),
(269,607,o),
(153,494,o),
(106,367,o),
(106,316,q),
(106,251,o),
(163,127,o),
(265,29,o),
(407,-31,o),
(496,-31,q),
(562,-31,o),
(674,-2,o),
(762,38,o),
(836,87,o),
(863,106,q),
(863,0,l),
(1247,0,l),
(1247,182,l),
(1056,182,l)
);
},
{
closed = 1;
nodes = (
(863,360,l),
(798,289,o),
(681,209,o),
(583,169,o),
(509,160,o),
(494,160,q),
(458,160,o),
(391,185,o),
(338,227,o),
(307,282,o),
(307,314,q),
(307,322,o),
(320,384,o),
(382,449,o),
(513,500,o),
(632,500,q),
(696,500,o),
(804,484,o),
(863,475,q)
);
},
{
closed = 1;
nodes = (
(865,1425,o),
(749,1540,o),
(666,1540,q),
(585,1540,o),
(471,1425,o),
(471,1343,q),
(471,1260,o),
(585,1147,o),
(666,1147,q),
(749,1147,o),
(865,1260,o),
(865,1343,q)
);
},
{
closed = 1;
nodes = (
(738,1313,o),
(698,1271,o),
(666,1271,q),
(638,1271,o),
(596,1313,o),
(596,1343,q),
(596,1374,o),
(638,1414,o),
(666,1414,q),
(698,1414,o),
(738,1374,o),
(738,1343,q)
);
}
);
width = 1334;
}
);
unicode = 229;
},
{
glyphname = ae;
layers = (
{
layerId = "F01671F1-619E-4C0E-98FE-F2F10EEA5364";
shapes = (
{
closed = 1;
nodes = (
(1292,441,l),
(1296,465,o),
(1300,543,o),
(1300,587,q),
(1300,713,o),
(1238,891,o),
(1139,1003,o),
(1014,1054,o),
(949,1054,q),
(891,1054,o),
(802,1025,o),
(740,984,o),
(698,944,o),
(689,933,q),
(674,956,o),
(636,999,o),
(581,1031,o),
(503,1054,o),
(445,1054,q),
(331,1054,o),
(151,999,o),
(78,969,q),
(136,789,l),
(229,825,o),
(373,863,o),
(435,863,q),
(511,863,o),
(554,762,o),
(554,638,q),
(513,643,o),
(437,651,o),
(405,651,q),
(305,651,o),
(160,581,o),
(64,473,o),
(17,346,o),
(17,289,q),
(17,231,o),
(60,118,o),
(140,27,o),
(263,-31,o),
(342,-31,q),
(441,-31,o),
(598,51,o),
(671,111,q),
(709,60,o),
(796,4,o),
(876,-25,o),
(944,-31,o),
(969,-31,q),
(1071,-31,o),
(1232,13,o),
(1292,34,q),
(1296,36,o),
(1309,40,o),
(1311,42,q),
(1241,216,l),
(1190,195,o),
(1073,160,o),
(991,160,q),
(918,160,o),
(829,202,o),
(778,276,o),
(753,380,o),
(747,441,q)
);
},
{
closed = 1;
nodes = (
(554,244,l),
(494,202,o),
(389,160,o),
(329,160,q),
(265,160,o),
(218,240,o),
(218,284,q),
(218,373,o),
(316,469,o),
(409,469,q),
(447,469,o),
(520,462,o),
(554,458,q)
);
},
{
closed = 1;
nodes = (
(747,622,l),
(749,649,o),
(762,732,o),
(800,809,o),
(876,863,o),
(942,863,q),
(999,863,o),
(1063,812,o),
(1096,738,o),
(1105,656,o),
(1107,622,q)
);
}
);
width = 1334;
}
);
unicode = 230;
},
{
glyphname = ccedilla;
layers = (
{
layerId = "F01671F1-619E-4C0E-98FE-F2F10EEA5364";
shapes = (
{
closed = 1;
nodes = (
(793,-20,l),
(872,-7,o),
(1014,51,o),
(1133,120,o),
(1230,187,o),
(1260,212,q),
(1154,363,l),
(1105,329,o),
(996,258,o),
(878,200,o),
(753,163,o),
(689,163,q),
(592,163,o),
(458,229,o),
(373,329,o),
(335,452,o),
(335,509,q),
(335,545,o),
(363,660,o),
(443,772,o),
(587,851,o),
(704,851,q),
(800,851,o),
(910,806,o),
(967,732,o),
(989,634,o),
(996,583,q),
(1183,607,l),
(1178,645,o),
(1169,738,o),
(1169,802,q),
(1169,863,o),
(1178,980,o),
(1183,1025,q),
(1009,1043,l),
(989,920,l),
(905,991,o),
(758,1043,o),
(674,1043,q),
(543,1043,o),
(340,949,o),
(202,796,o),
(131,605,o),
(131,507,q),
(131,414,o),
(193,231,o),
(320,82,o),
(507,-17,o),
(632,-29,q),
(613,-174,l),
(620,-174,o),
(649,-178,o),
(681,-182,o),
(707,-187,o),
(711,-187,q),
(738,-191,o),
(776,-206,o),
(776,-225,q),
(776,-242,o),
(749,-251,o),
(736,-251,q),
(704,-251,o),
(627,-240,o),
(554,-227,o),
(494,-214,o),
(480,-212,q),
(456,-365,l),
(507,-378,o),
(660,-407,o),
(742,-407,q),
(855,-407,o),
(958,-305,o),
(958,-227,q),
(958,-142,o),
(863,-58,o),
(793,-40,q)
);
}
);
width = 1334;
}
);
unicode = 231;
},
{
glyphname = egrave;
layers = (
{
layerId = "F01671F1-619E-4C0E-98FE-F2F10EEA5364";
shapes = (
{
closed = 1;
nodes = (
(1192,320,l),
(1147,293,o),
(1033,236,o),
(907,189,o),
(770,160,o),
(700,160,q),
(592,160,o),
(458,223,o),
(380,309,o),
(346,401,o),
(340,431,q),
(1211,431,l),
(1213,447,o),
(1218,529,o),
(1218,567,q),
(1218,649,o),
(1152,816,o),
(1018,952,o),
(821,1038,o),
(689,1038,q),
(560,1038,o),
(356,949,o),
(212,800,o),
(136,605,o),
(136,498,q),
(136,393,o),
(209,202,o),
(352,55,o),
(564,-31,o),
(704,-31,q),
(836,-31,o),
(1129,62,o),
(1281,149,q)
);
},
{
closed = 1;
nodes = (
(354,613,l),
(363,636,o),
(401,713,o),
(475,791,o),
(598,847,o),
(691,847,q),
(713,847,o),
(804,838,o),
(902,793,o),
(991,700,o),
(1014,613,q)
);
},
{
closed = 1;
nodes = (
(391,1419,l),
(762,1209,l),
(956,1209,l),
(723,1427,l),
(391,1427,l)
);
}
);
width = 1334;
}
);
unicode = 232;
},
{
glyphname = eacute;
layers = (
{
layerId = "F01671F1-619E-4C0E-98FE-F2F10EEA5364";
shapes = (
{
closed = 1;
nodes = (
(1192,320,l),
(1147,293,o),
(1033,236,o),
(907,189,o),
(770,160,o),
(700,160,q),
(592,160,o),
(458,223,o),
(380,309,o),
(346,401,o),
(340,431,q),
(1211,431,l),
(1213,447,o),
(1218,529,o),
(1218,567,q),
(1218,649,o),
(1152,816,o),
(1018,952,o),
(821,1038,o),
(689,1038,q),
(560,1038,o),
(356,949,o),
(212,800,o),
(136,605,o),
(136,498,q),
(136,393,o),
(209,202,o),
(352,55,o),
(564,-31,o),
(704,-31,q),
(836,-31,o),
(1129,62,o),
(1281,149,q)
);
},
{
closed = 1;
nodes = (
(354,613,l),
(363,636,o),
(401,713,o),
(475,791,o),
(598,847,o),
(691,847,q),
(713,847,o),
(804,838,o),
(902,793,o),
(991,700,o),
(1014,613,q)
);
},
{
closed = 1;
nodes = (
(1031,1419,l),
(1031,1427,l),
(700,1427,l),
(467,1209,l),
(660,1209,l)
);
}
);
width = 1334;
}
);
unicode = 233;
},
{
glyphname = ecircumflex;
layers = (
{
layerId = "F01671F1-619E-4C0E-98FE-F2F10EEA5364";
shapes = (
{
closed = 1;
nodes = (
(1192,320,l),
(1147,293,o),
(1033,236,o),
(907,189,o),
(770,160,o),
(700,160,q),
(592,160,o),
(458,223,o),
(380,309,o),
(346,401,o),
(340,431,q),
(1211,431,l),
(1213,447,o),
(1218,529,o),
(1218,567,q),
(1218,649,o),
(1152,816,o),
(1018,952,o),
(821,1038,o),
(689,1038,q),
(560,1038,o),
(356,949,o),
(212,800,o),
(136,605,o),
(136,498,q),
(136,393,o),
(209,202,o),
(352,55,o),
(564,-31,o),
(704,-31,q),
(836,-31,o),
(1129,62,o),
(1281,149,q)
);
},
{
closed = 1;
nodes = (
(354,613,l),
(363,636,o),
(401,713,o),
(475,791,o),
(598,847,o),
(691,847,q),
(713,847,o),
(804,838,o),
(902,793,o),
(991,700,o),
(1014,613,q)
);
},
{
closed = 1;
nodes = (
(567,1449,l),
(360,1260,l),
(478,1190,l),
(658,1296,l),
(861,1190,l),
(976,1260,l),
(758,1449,l)
);
}
);
width = 1334;
}
);
unicode = 234;
},
{
glyphname = edieresis;
layers = (
{
layerId = "F01671F1-619E-4C0E-98FE-F2F10EEA5364";
shapes = (
{
closed = 1;
nodes = (
(1192,320,l),
(1147,293,o),
(1033,236,o),
(907,189,o),
(770,160,o),
(700,160,q),
(592,160,o),
(458,223,o),
(380,309,o),
(346,401,o),
(340,431,q),
(1211,431,l),
(1213,447,o),
(1218,529,o),
(1218,567,q),
(1218,649,o),
(1152,816,o),
(1018,952,o),
(821,1038,o),
(689,1038,q),
(560,1038,o),
(356,949,o),
(212,800,o),
(136,605,o),
(136,498,q),
(136,393,o),
(209,202,o),
(352,55,o),
(564,-31,o),
(704,-31,q),
(836,-31,o),
(1129,62,o),
(1281,149,q)
);
},
{
closed = 1;
nodes = (
(354,613,l),
(363,636,o),
(401,713,o),
(475,791,o),
(598,847,o),
(691,847,q),
(713,847,o),
(804,838,o),
(902,793,o),
(991,700,o),
(1014,613,q)
);
},
{
closed = 1;
nodes = (
(396,1185,l),
(609,1185,l),
(609,1440,l),
(396,1440,l)
);
},
{
closed = 1;
nodes = (
(725,1185,l),
(938,1185,l),
(938,1440,l),
(725,1440,l)
);
}
);
width = 1334;
}
);
unicode = 235;
},
{
glyphname = igrave;
layers = (
{
layerId = "F01671F1-619E-4C0E-98FE-F2F10EEA5364";
shapes = (
{
closed = 1;
nodes = (
(256,1007,l),
(256,825,l),
(573,825,l),
(573,182,l),
(195,182,l),
(195,0,l),
(1139,0,l),
(1139,182,l),
(767,182,l),
(767,1007,l)
);
},
{
closed = 1;
nodes = (
(346,1419,l),
(719,1209,l),
(912,1209,l),
(678,1427,l),
(346,1427,l)
);
}
);
width = 1334;
}
);
unicode = 236;
},
{
glyphname = iacute;
layers = (
{
layerId = "F01671F1-619E-4C0E-98FE-F2F10EEA5364";
shapes = (
{
closed = 1;
nodes = (
(256,1007,l),
(256,825,l),
(573,825,l),
(573,182,l),
(195,182,l),
(195,0,l),
(1139,0,l),
(1139,182,l),
(767,182,l),
(767,1007,l)
);
},
{
closed = 1;
nodes = (
(1031,1419,l),
(1031,1427,l),
(700,1427,l),
(467,1209,l),
(660,1209,l)
);
}
);
width = 1334;
}
);
unicode = 237;
},
{
glyphname = icircumflex;
layers = (
{
layerId = "F01671F1-619E-4C0E-98FE-F2F10EEA5364";
shapes = (
{
closed = 1;
nodes = (
(256,1007,l),
(256,825,l),
(573,825,l),
(573,182,l),
(195,182,l),
(195,0,l),
(1139,0,l),
(1139,182,l),
(767,182,l),
(767,1007,l)
);
},
{
closed = 1;
nodes = (
(567,1449,l),
(360,1260,l),
(478,1190,l),
(658,1296,l),
(861,1190,l),
(976,1260,l),
(758,1449,l)
);
}
);
width = 1334;
}
);
unicode = 238;
},
{
glyphname = idieresis;
layers = (
{
layerId = "F01671F1-619E-4C0E-98FE-F2F10EEA5364";
shapes = (
{
closed = 1;
nodes = (
(256,1007,l),
(256,825,l),
(573,825,l),
(573,182,l),
(195,182,l),
(195,0,l),
(1139,0,l),
(1139,182,l),
(767,182,l),
(767,1007,l)
);
},
{
closed = 1;
nodes = (
(396,1185,l),
(609,1185,l),
(609,1440,l),
(396,1440,l)
);
},
{
closed = 1;
nodes = (
(725,1185,l),
(938,1185,l),
(938,1440,l),
(725,1440,l)
);
}
);
width = 1334;
}
);
unicode = 239;
},
{
glyphname = eth;
layers = (
{
layerId = "F01671F1-619E-4C0E-98FE-F2F10EEA5364";
shapes = (
{
closed = 1;
nodes = (
(556,1467,l),
(452,1518,o),
(322,1563,o),
(280,1574,q),
(200,1425,l),
(284,1398,o),
(416,1343,o),
(445,1330,q),
(331,1156,l),
(480,1071,l),
(596,1256,l),
(609,1249,o),
(683,1203,o),
(778,1129,o),
(882,1031,o),
(927,971,q),
(923,967,l),
(895,984,o),
(755,1047,o),
(647,1047,q),
(538,1047,o),
(338,971,o),
(185,831,o),
(93,632,o),
(93,507,q),
(93,405,o),
(167,212,o),
(312,60,o),
(524,-31,o),
(666,-31,q),
(802,-31,o),
(1016,55,o),
(1162,202,o),
(1241,403,o),
(1241,516,q),
(1241,643,o),
(1173,885,o),
(1116,993,q),
(1076,1069,o),
(987,1178,o),
(891,1264,o),
(791,1336,o),
(738,1372,q),
(702,1394,l),
(791,1523,l),
(649,1618,l)
);
},
{
closed = 1;
nodes = (
(291,575,o),
(340,707,o),
(433,806,o),
(573,867,o),
(666,867,q),
(760,867,o),
(902,804,o),
(996,702,o),
(1043,573,o),
(1043,507,q),
(1043,441,o),
(996,312,o),
(902,209,o),
(762,147,o),
(666,147,q),
(573,147,o),
(433,206,o),
(340,307,o),
(291,437,o),
(291,507,q)
);
}
);
width = 1334;
}
);
unicode = 240;
},
{
glyphname = ntilde;
layers = (
{
layerId = "F01671F1-619E-4C0E-98FE-F2F10EEA5364";
shapes = (
{
closed = 1;
nodes = (
(51,1007,l),
(51,825,l),
(231,825,l),
(231,182,l),
(47,182,l),
(47,0,l),
(594,0,l),
(594,182,l),
(424,182,l),
(424,696,l),
(460,723,o),
(536,776,o),
(618,818,o),
(704,847,o),
(751,847,q),
(834,847,o),
(918,721,o),
(918,630,q),
(918,182,l),
(732,182,l),
(732,0,l),
(1292,0,l),
(1292,182,l),
(1111,182,l),
(1111,638,l),
(1111,725,o),
(1060,872,o),
(965,978,o),
(829,1038,o),
(747,1038,q),
(694,1038,o),
(598,1014,o),
(518,976,o),
(452,933,o),
(424,914,q),
(424,1007,l)
);
},
{
closed = 1;
nodes = (
(905,1467,l),
(885,1416,o),
(842,1345,o),
(804,1345,q),
(787,1345,o),
(745,1362,o),
(707,1391,q),
(669,1419,o),
(585,1463,o),
(526,1463,q),
(465,1463,o),
(380,1414,o),
(325,1345,o),
(289,1262,o),
(276,1230,q),
(429,1178,l),
(431,1180,o),
(435,1194,o),
(437,1196,q),
(449,1227,o),
(490,1298,o),
(526,1298,q),
(534,1298,o),
(547,1296,o),
(567,1287,o),
(598,1267,o),
(622,1249,q),
(685,1205,o),
(762,1183,o),
(796,1183,q),
(865,1183,o),
(956,1234,o),
(1016,1309,o),
(1047,1389,o),
(1058,1421,q)
);
}
);
width = 1334;
}
);
unicode = 241;
},
{
glyphname = ograve;
layers = (
{
layerId = "F01671F1-619E-4C0E-98FE-F2F10EEA5364";
shapes = (
{
closed = 1;
nodes = (
(91,407,o),
(165,212,o),
(312,60,o),
(526,-31,o),
(666,-31,q),
(812,-31,o),
(1027,62,o),
(1171,216,o),
(1243,411,o),
(1243,511,q),
(1243,615,o),
(1167,812,o),
(1022,963,o),
(806,1054,o),
(666,1054,q),
(531,1054,o),
(318,967,o),
(169,818,o),
(91,620,o),
(91,511,q)
);
},
{
closed = 1;
nodes = (
(295,581,o),
(342,707,o),
(435,804,o),
(575,863,o),
(666,863,q),
(760,863,o),
(900,802,o),
(993,702,o),
(1038,575,o),
(1038,511,q),
(1038,447,o),
(993,320,o),
(900,220,o),
(760,160,o),
(666,160,q),
(575,160,o),
(435,220,o),
(342,318,o),
(295,445,o),
(295,511,q)
);
},
{
closed = 1;
nodes = (
(346,1419,l),
(719,1209,l),
(912,1209,l),
(678,1427,l),
(346,1427,l)
);
}
);
width = 1334;
}
);
unicode = 242;
},
{
glyphname = oacute;
layers = (
{
layerId = "F01671F1-619E-4C0E-98FE-F2F10EEA5364";
shapes = (
{
closed = 1;
nodes = (
(91,407,o),
(165,212,o),
(312,60,o),
(526,-31,o),
(666,-31,q),
(812,-31,o),
(1027,62,o),
(1171,216,o),
(1243,411,o),
(1243,511,q),
(1243,615,o),
(1167,812,o),
(1022,963,o),
(806,1054,o),
(666,1054,q),
(531,1054,o),
(318,967,o),
(169,818,o),
(91,620,o),
(91,511,q)
);
},
{
closed = 1;
nodes = (
(295,581,o),
(342,707,o),
(435,804,o),
(575,863,o),
(666,863,q),
(760,863,o),
(900,802,o),
(993,702,o),
(1038,575,o),
(1038,511,q),
(1038,447,o),
(993,320,o),
(900,220,o),
(760,160,o),
(666,160,q),
(575,160,o),
(435,220,o),
(342,318,o),
(295,445,o),
(295,511,q)
);
},
{
closed = 1;
nodes = (
(1031,1419,l),
(1031,1427,l),
(700,1427,l),
(467,1209,l),
(660,1209,l)
);
}
);
width = 1334;
}
);
unicode = 243;
},
{
glyphname = ocircumflex;
layers = (
{
layerId = "F01671F1-619E-4C0E-98FE-F2F10EEA5364";
shapes = (
{
closed = 1;
nodes = (
(91,407,o),
(165,212,o),
(312,60,o),
(526,-31,o),
(666,-31,q),
(812,-31,o),
(1027,62,o),
(1171,216,o),
(1243,411,o),
(1243,511,q),
(1243,615,o),
(1167,812,o),
(1022,963,o),
(806,1054,o),
(666,1054,q),
(531,1054,o),
(318,967,o),
(169,818,o),
(91,620,o),
(91,511,q)
);
},
{
closed = 1;
nodes = (
(295,581,o),
(342,707,o),
(435,804,o),
(575,863,o),
(666,863,q),
(760,863,o),
(900,802,o),
(993,702,o),
(1038,575,o),
(1038,511,q),
(1038,447,o),
(993,320,o),
(900,220,o),
(760,160,o),
(666,160,q),
(575,160,o),
(435,220,o),
(342,318,o),
(295,445,o),
(295,511,q)
);
},
{
closed = 1;
nodes = (
(567,1449,l),
(360,1260,l),
(478,1190,l),
(658,1296,l),
(861,1190,l),
(976,1260,l),
(758,1449,l)
);
}
);
width = 1334;
}
);
unicode = 244;
},
{
glyphname = otilde;
layers = (
{
layerId = "F01671F1-619E-4C0E-98FE-F2F10EEA5364";
shapes = (
{
closed = 1;
nodes = (
(91,407,o),
(165,212,o),
(312,60,o),
(526,-31,o),
(666,-31,q),
(812,-31,o),
(1027,62,o),
(1171,216,o),
(1243,411,o),
(1243,511,q),
(1243,615,o),
(1167,812,o),
(1022,963,o),
(806,1054,o),
(666,1054,q),
(531,1054,o),
(318,967,o),
(169,818,o),
(91,620,o),
(91,511,q)
);
},
{
closed = 1;
nodes = (
(295,581,o),
(342,707,o),
(435,804,o),
(575,863,o),
(666,863,q),
(760,863,o),
(900,802,o),
(993,702,o),
(1038,575,o),
(1038,511,q),
(1038,447,o),
(993,320,o),
(900,220,o),
(760,160,o),
(666,160,q),
(575,160,o),
(435,220,o),
(342,318,o),
(295,445,o),
(295,511,q)
);
},
{
closed = 1;
nodes = (
(905,1467,l),
(885,1416,o),
(842,1345,o),
(804,1345,q),
(787,1345,o),
(745,1362,o),
(707,1391,q),
(669,1419,o),
(585,1463,o),
(526,1463,q),
(465,1463,o),
(380,1414,o),
(325,1345,o),
(289,1262,o),
(276,1230,q),
(429,1178,l),
(431,1180,o),
(435,1194,o),
(437,1196,q),
(449,1227,o),
(490,1298,o),
(526,1298,q),
(534,1298,o),
(547,1296,o),
(567,1287,o),
(598,1267,o),
(622,1249,q),
(685,1205,o),
(762,1183,o),
(796,1183,q),
(865,1183,o),
(956,1234,o),
(1016,1309,o),
(1047,1389,o),
(1058,1421,q)
);
}
);
width = 1334;
}
);
unicode = 245;
},
{
glyphname = odieresis;
layers = (
{
layerId = "F01671F1-619E-4C0E-98FE-F2F10EEA5364";
shapes = (
{
closed = 1;
nodes = (
(91,407,o),
(165,212,o),
(312,60,o),
(526,-31,o),
(666,-31,q),
(812,-31,o),
(1027,62,o),
(1171,216,o),
(1243,411,o),
(1243,511,q),
(1243,615,o),
(1167,812,o),
(1022,963,o),
(806,1054,o),
(666,1054,q),
(531,1054,o),
(318,967,o),
(169,818,o),
(91,620,o),
(91,511,q)
);
},
{
closed = 1;
nodes = (
(295,581,o),
(342,707,o),
(435,804,o),
(575,863,o),
(666,863,q),
(760,863,o),
(900,802,o),
(993,702,o),
(1038,575,o),
(1038,511,q),
(1038,447,o),
(993,320,o),
(900,220,o),
(760,160,o),
(666,160,q),
(575,160,o),
(435,220,o),
(342,318,o),
(295,445,o),
(295,511,q)
);
},
{
closed = 1;
nodes = (
(396,1185,l),
(609,1185,l),
(609,1440,l),
(396,1440,l)
);
},
{
closed = 1;
nodes = (
(725,1185,l),
(938,1185,l),
(938,1440,l),
(725,1440,l)
);
}
);
width = 1334;
}
);
unicode = 246;
},
{
glyphname = divide;
layers = (
{
layerId = "F01671F1-619E-4C0E-98FE-F2F10EEA5364";
shapes = (
{
closed = 1;
nodes = (
(605,1222,o),
(526,1139,o),
(526,1082,q),
(526,1029,o),
(602,942,o),
(666,942,q),
(729,942,o),
(806,1029,o),
(806,1082,q),
(806,1141,o),
(727,1222,o),
(666,1222,q)
);
},
{
closed = 1;
nodes = (
(120,793,l),
(120,598,l),
(1213,598,l),
(1213,793,l)
);
},
{
closed = 1;
nodes = (
(607,449,o),
(526,369,o),
(526,312,q),
(526,253,o),
(607,169,o),
(666,169,q),
(727,169,o),
(806,253,o),
(806,312,q),
(806,367,o),
(727,449,o),
(666,449,q)
);
}
);
width = 1334;
}
);
unicode = 247;
},
{
glyphname = oslash;
layers = (
{
layerId = "F01671F1-619E-4C0E-98FE-F2F10EEA5364";
shapes = (
{
closed = 1;
nodes = (
(338,60,l),
(416,9,o),
(573,-31,o),
(666,-31,q),
(812,-31,o),
(1027,62,o),
(1171,216,o),
(1243,411,o),
(1243,513,q),
(1243,704,o),
(1129,851,q),
(1222,944,l),
(1103,1065,l),
(1003,965,l),
(958,991,o),
(867,1027,o),
(778,1047,o),
(696,1054,o),
(664,1054,q),
(531,1054,o),
(318,967,o),
(169,818,o),
(91,622,o),
(91,513,q),
(91,482,o),
(100,403,o),
(127,309,o),
(174,212,o),
(212,165,q),
(111,60,l),
(229,-53,l)
);
},
{
closed = 1;
nodes = (
(982,704,l),
(991,687,o),
(1012,651,o),
(1029,609,o),
(1038,554,o),
(1038,513,q),
(1038,447,o),
(991,318,o),
(898,220,o),
(760,160,o),
(669,160,q),
(592,160,o),
(503,185,o),
(482,200,q)
);
},
{
closed = 1;
nodes = (
(356,309,l),
(333,342,o),
(309,409,o),
(297,465,o),
(295,505,o),
(295,513,q),
(295,581,o),
(342,707,o),
(435,802,o),
(573,863,o),
(664,863,q),
(747,863,o),
(834,831,o),
(863,816,q)
);
}
);
width = 1334;
}
);
unicode = 248;
},
{
glyphname = ugrave;
layers = (
{
layerId = "F01671F1-619E-4C0E-98FE-F2F10EEA5364";
shapes = (
{
closed = 1;
nodes = (
(49,1007,l),
(49,825,l),
(223,825,l),
(223,398,l),
(223,274,o),
(271,140,o),
(314,89,q),
(358,34,o),
(516,-31,o),
(600,-31,q),
(651,-31,o),
(806,9,o),
(891,68,q),
(891,0,l),
(1258,0,l),
(1258,182,l),
(1084,182,l),
(1084,1007,l),
(709,1007,l),
(709,825,l),
(891,825,l),
(891,325,l),
(861,293,o),
(800,236,o),
(729,189,o),
(649,160,o),
(598,160,q),
(536,160,o),
(465,212,o),
(427,284,o),
(416,367,o),
(416,398,q),
(416,1007,l)
);
},
{
closed = 1;
nodes = (
(346,1419,l),
(719,1209,l),
(912,1209,l),
(678,1427,l),
(346,1427,l)
);
}
);
width = 1334;
}
);
unicode = 249;
},
{
glyphname = uacute;
layers = (
{
layerId = "F01671F1-619E-4C0E-98FE-F2F10EEA5364";
shapes = (
{
closed = 1;
nodes = (
(49,1007,l),
(49,825,l),
(223,825,l),
(223,398,l),
(223,274,o),
(271,140,o),
(314,89,q),
(358,34,o),
(516,-31,o),
(600,-31,q),
(651,-31,o),
(806,9,o),
(891,68,q),
(891,0,l),
(1258,0,l),
(1258,182,l),
(1084,182,l),
(1084,1007,l),
(709,1007,l),
(709,825,l),
(891,825,l),
(891,325,l),
(861,293,o),
(800,236,o),
(729,189,o),
(649,160,o),
(598,160,q),
(536,160,o),
(465,212,o),
(427,284,o),
(416,367,o),
(416,398,q),
(416,1007,l)
);
},
{
closed = 1;
nodes = (
(1031,1419,l),
(1031,1427,l),
(700,1427,l),
(467,1209,l),
(660,1209,l)
);
}
);
width = 1334;
}
);
unicode = 250;
},
{
glyphname = ucircumflex;
layers = (
{
layerId = "F01671F1-619E-4C0E-98FE-F2F10EEA5364";
shapes = (
{
closed = 1;
nodes = (
(49,1007,l),
(49,825,l),
(223,825,l),
(223,398,l),
(223,274,o),
(271,140,o),
(314,89,q),
(358,34,o),
(516,-31,o),
(600,-31,q),
(651,-31,o),
(806,9,o),
(891,68,q),
(891,0,l),
(1258,0,l),
(1258,182,l),
(1084,182,l),
(1084,1007,l),
(709,1007,l),
(709,825,l),
(891,825,l),
(891,325,l),
(861,293,o),
(800,236,o),
(729,189,o),
(649,160,o),
(598,160,q),
(536,160,o),
(465,212,o),
(427,284,o),
(416,367,o),
(416,398,q),
(416,1007,l)
);
},
{
closed = 1;
nodes = (
(567,1449,l),
(360,1260,l),
(478,1190,l),
(658,1296,l),
(861,1190,l),
(976,1260,l),
(758,1449,l)
);
}
);
width = 1334;
}
);
unicode = 251;
},
{
glyphname = udieresis;
layers = (
{
layerId = "F01671F1-619E-4C0E-98FE-F2F10EEA5364";
shapes = (
{
closed = 1;
nodes = (
(49,1007,l),
(49,825,l),
(223,825,l),
(223,398,l),
(223,274,o),
(271,140,o),
(314,89,q),
(358,34,o),
(516,-31,o),
(600,-31,q),
(651,-31,o),
(806,9,o),
(891,68,q),
(891,0,l),
(1258,0,l),
(1258,182,l),
(1084,182,l),
(1084,1007,l),
(709,1007,l),
(709,825,l),
(891,825,l),
(891,325,l),
(861,293,o),
(800,236,o),
(729,189,o),
(649,160,o),
(598,160,q),
(536,160,o),
(465,212,o),
(427,284,o),
(416,367,o),
(416,398,q),
(416,1007,l)
);
},
{
closed = 1;
nodes = (
(396,1185,l),
(609,1185,l),
(609,1440,l),
(396,1440,l)
);
},
{
closed = 1;
nodes = (
(725,1185,l),
(938,1185,l),
(938,1440,l),
(725,1440,l)
);
}
);
width = 1334;
}
);
unicode = 252;
},
{
glyphname = yacute;
layers = (
{
layerId = "F01671F1-619E-4C0E-98FE-F2F10EEA5364";
shapes = (
{
closed = 1;
nodes = (
(31,1007,l),
(31,825,l),
(178,825,l),
(556,104,l),
(409,-147,l),
(64,-147,l),
(64,-329,l),
(798,-329,l),
(798,-147,l),
(632,-147,l),
(1190,825,l),
(1330,825,l),
(1330,1007,l),
(851,1007,l),
(851,825,l),
(967,825,l),
(669,305,l),
(398,825,l),
(518,825,l),
(518,1007,l)
);
},
{
closed = 1;
nodes = (
(1031,1419,l),
(1031,1427,l),
(700,1427,l),
(467,1209,l),
(660,1209,l)
);
}
);
width = 1334;
}
);
unicode = 253;
},
{
glyphname = thorn;
layers = (
{
layerId = "F01671F1-619E-4C0E-98FE-F2F10EEA5364";
shapes = (
{
closed = 1;
nodes = (
(-2,1381,l),
(20,1194,l),
(198,1205,l),
(198,-155,l),
(22,-155,l),
(22,-338,l),
(711,-338,l),
(711,-155,l),
(391,-155,l),
(391,106,l),
(435,68,o),
(531,20,o),
(622,-7,o),
(698,-15,o),
(725,-15,q),
(821,-15,o),
(1005,60,o),
(1152,200,o),
(1243,396,o),
(1243,516,q),
(1243,615,o),
(1169,802,o),
(1033,949,o),
(840,1038,o),
(723,1038,q),
(707,1038,o),
(638,1033,o),
(547,1014,o),
(443,965,o),
(391,923,q),
(391,1402,l)
);
},
{
closed = 1;
nodes = (
(382,587,o),
(433,704,o),
(522,793,o),
(649,847,o),
(723,847,q),
(802,847,o),
(923,787,o),
(1001,691,o),
(1038,573,o),
(1038,516,q),
(1038,443,o),
(987,318,o),
(900,227,o),
(785,176,o),
(721,176,q),
(664,176,o),
(547,220,o),
(447,307,o),
(382,435,o),
(382,520,q)
);
}
);
width = 1334;
}
);
unicode = 254;
},
{
glyphname = ydieresis;
layers = (
{
layerId = "F01671F1-619E-4C0E-98FE-F2F10EEA5364";
shapes = (
{
closed = 1;
nodes = (
(31,1007,l),
(31,825,l),
(178,825,l),
(556,104,l),
(409,-147,l),
(64,-147,l),
(64,-329,l),
(798,-329,l),
(798,-147,l),
(632,-147,l),
(1190,825,l),
(1330,825,l),
(1330,1007,l),
(851,1007,l),
(851,825,l),
(967,825,l),
(669,305,l),
(398,825,l),
(518,825,l),
(518,1007,l)
);
},
{
closed = 1;
nodes = (
(396,1185,l),
(609,1185,l),
(609,1440,l),
(396,1440,l)
);
},
{
closed = 1;
nodes = (
(725,1185,l),
(938,1185,l),
(938,1440,l),
(725,1440,l)
);
}
);
width = 1334;
}
);
unicode = 255;
},
{
glyphname = OE;
layers = (
{
layerId = "F01671F1-619E-4C0E-98FE-F2F10EEA5364";
shapes = (
{
closed = 1;
nodes = (
(1311,1296,l),
(549,1296,l),
(414,1296,o),
(212,1175,o),
(76,987,o),
(7,751,o),
(7,636,q),
(7,577,o),
(22,443,o),
(68,303,o),
(147,165,o),
(212,104,q),
(251,64,o),
(329,22,o),
(409,2,o),
(496,0,o),
(549,0,q),
(1330,0,l),
(1330,484,l),
(1162,484,l),
(1149,182,l),
(842,182,l),
(842,587,l),
(916,587,l),
(916,447,l),
(1086,447,l),
(1086,920,l),
(916,920,l),
(916,780,l),
(842,780,l),
(842,1114,l),
(1145,1114,l),
(1162,816,l),
(1321,816,l)
);
},
{
closed = 1;
nodes = (
(649,276,l),
(649,238,o),
(615,193,o),
(573,171,o),
(529,165,o),
(518,165,q),
(445,165,o),
(331,238,o),
(253,365,o),
(212,531,o),
(212,624,q),
(212,734,o),
(267,918,o),
(358,1052,o),
(473,1124,o),
(536,1124,q),
(577,1124,o),
(624,1109,o),
(647,1082,o),
(649,1050,o),
(649,1031,q)
);
}
);
width = 1334;
}
);
unicode = 338;
},
{
glyphname = oe;
layers = (
{
layerId = "F01671F1-619E-4C0E-98FE-F2F10EEA5364";
shapes = (
{
closed = 1;
nodes = (
(1269,441,l),
(1274,478,o),
(1281,541,o),
(1281,577,q),
(1281,620,o),
(1256,780,o),
(1180,938,o),
(1045,1056,o),
(933,1056,q),
(880,1056,o),
(796,1025,o),
(736,984,o),
(696,942,o),
(687,931,q),
(678,942,o),
(643,984,o),
(575,1025,o),
(478,1056,o),
(409,1056,q),
(291,1056,o),
(136,956,o),
(45,793,o),
(7,594,o),
(7,494,q),
(7,409,o),
(31,278,o),
(64,178,o),
(100,111,o),
(113,96,q),
(127,78,o),
(167,36,o),
(229,-4,o),
(322,-31,o),
(389,-31,q),
(458,-31,o),
(558,0,o),
(624,42,o),
(664,89,o),
(676,104,q),
(687,91,o),
(727,45,o),
(796,0,o),
(893,-31,o),
(963,-31,q),
(1065,-31,o),
(1220,13,o),
(1271,34,q),
(1294,42,l),
(1227,223,l),
(1216,218,o),
(1211,216,o),
(1207,216,q),
(1200,212,o),
(1154,195,o),
(1149,193,q),
(1141,189,o),
(1098,178,o),
(1045,169,o),
(989,160,o),
(967,160,q),
(878,160,o),
(787,314,o),
(778,441,q)
);
},
{
closed = 1;
nodes = (
(749,622,l),
(753,698,o),
(793,793,o),
(849,847,o),
(910,865,o),
(933,865,q),
(958,865,o),
(1009,842,o),
(1052,785,o),
(1080,691,o),
(1080,622,q)
);
},
{
closed = 1;
nodes = (
(206,678,o),
(303,865,o),
(409,865,q),
(513,865,o),
(596,702,o),
(596,511,q),
(596,447,o),
(583,320,o),
(543,220,o),
(467,160,o),
(405,160,q),
(349,160,o),
(274,214,o),
(227,307,o),
(206,431,o),
(206,505,q)
);
}
);
width = 1334;
}
);
unicode = 339;
},
{
glyphname = Scaron;
layers = (
{
layerId = "F01671F1-619E-4C0E-98FE-F2F10EEA5364";
shapes = (
{
closed = 1;
nodes = (
(967,1318,l),
(949,1194,l),
(936,1207,o),
(889,1254,o),
(816,1300,o),
(713,1334,o),
(647,1334,q),
(564,1334,o),
(401,1271,o),
(271,1162,o),
(189,1012,o),
(189,923,q),
(189,840,o),
(244,723,o),
(333,640,o),
(445,589,o),
(560,560,o),
(664,547,o),
(704,543,q),
(755,538,o),
(849,520,o),
(923,480,o),
(967,416,o),
(967,365,q),
(967,307,o),
(912,227,o),
(825,178,o),
(721,155,o),
(671,155,q),
(592,155,o),
(480,204,o),
(409,289,o),
(376,401,o),
(369,462,q),
(191,462,l),
(195,409,o),
(209,209,o),
(209,106,q),
(209,51,o),
(206,-9,o),
(202,-42,q),
(382,-42,l),
(401,91,l),
(420,68,o),
(469,25,o),
(538,-13,o),
(634,-36,o),
(700,-36,q),
(798,-36,o),
(967,27,o),
(1094,136,o),
(1167,282,o),
(1167,369,q),
(1167,478,o),
(1069,620,o),
(1009,658,q),
(942,700,o),
(793,727,o),
(683,740,q),
(647,745,o),
(547,760,o),
(454,798,o),
(389,869,o),
(389,927,q),
(389,963,o),
(420,1038,o),
(492,1101,o),
(598,1143,o),
(676,1143,q),
(774,1143,o),
(887,1069,o),
(949,963,o),
(971,844,o),
(978,800,q),
(1154,825,l),
(1154,829,o),
(1152,874,o),
(1149,878,q),
(1145,918,o),
(1136,1056,o),
(1136,1127,q),
(1136,1185,o),
(1141,1281,o),
(1145,1318,q)
);
},
{
closed = 1;
nodes = (
(767,1478,l),
(974,1667,l),
(855,1739,l),
(676,1631,l),
(473,1739,l),
(360,1667,l),
(577,1478,l)
);
}
);
width = 1334;
}
);
unicode = 352;
},
{
glyphname = scaron;
layers = (
{
layerId = "F01671F1-619E-4C0E-98FE-F2F10EEA5364";
shapes = (
{
closed = 1;
nodes = (
(925,1058,l),
(895,933,l),
(878,946,o),
(825,982,o),
(751,1016,o),
(658,1038,o),
(600,1038,q),
(538,1038,o),
(393,1003,o),
(271,927,o),
(191,812,o),
(191,729,q),
(191,651,o),
(274,522,o),
(338,484,q),
(365,469,o),
(424,445,o),
(503,429,o),
(609,416,o),
(683,411,q),
(747,407,o),
(847,398,o),
(916,378,o),
(952,340,o),
(952,307,q),
(952,236,o),
(796,160,o),
(674,160,q),
(594,160,o),
(487,195,o),
(418,256,o),
(380,338,o),
(371,382,q),
(198,363,l),
(206,327,o),
(220,253,o),
(220,189,q),
(220,118,o),
(204,17,o),
(198,-22,q),
(371,-34,l),
(398,82,l),
(420,64,o),
(473,25,o),
(547,-9,o),
(643,-31,o),
(709,-31,q),
(806,-31,o),
(969,20,o),
(1086,111,o),
(1152,231,o),
(1152,303,q),
(1152,352,o),
(1103,471,o),
(1045,516,q),
(1014,538,o),
(944,564,o),
(853,581,o),
(740,589,o),
(666,594,q),
(620,596,o),
(522,607,o),
(443,632,o),
(391,681,o),
(391,723,q),
(391,762,o),
(441,812,o),
(511,838,o),
(592,847,o),
(624,847,q),
(638,847,o),
(715,842,o),
(802,823,o),
(880,774,o),
(895,732,q),
(914,681,l),
(916,674,o),
(923,656,o),
(925,651,q),
(1098,676,l),
(1090,709,o),
(1076,783,o),
(1076,836,q),
(1076,887,o),
(1090,987,o),
(1098,1029,q)
);
},
{
closed = 1;
nodes = (
(767,1190,l),
(974,1378,l),
(855,1449,l),
(676,1343,l),
(473,1449,l),
(360,1378,l),
(577,1190,l)
);
}
);
width = 1334;
}
);
unicode = 353;
},
{
glyphname = Ydieresis;
layers = (
{
layerId = "F01671F1-619E-4C0E-98FE-F2F10EEA5364";
shapes = (
{
closed = 1;
nodes = (
(47,1296,l),
(47,1114,l),
(202,1114,l),
(573,498,l),
(573,182,l),
(316,182,l),
(316,0,l),
(1018,0,l),
(1018,182,l),
(765,182,l),
(765,498,l),
(1131,1114,l),
(1287,1114,l),
(1287,1296,l),
(783,1296,l),
(783,1114,l),
(916,1114,l),
(674,702,l),
(427,1114,l),
(556,1114,l),
(556,1296,l)
);
},
{
closed = 1;
nodes = (
(396,1474,l),
(609,1474,l),
(609,1729,l),
(396,1729,l)
);
},
{
closed = 1;
nodes = (
(725,1474,l),
(938,1474,l),
(938,1729,l),
(725,1729,l)
);
}
);
width = 1334;
}
);
unicode = 376;
},
{
glyphname = Zcaron;
layers = (
{
layerId = "F01671F1-619E-4C0E-98FE-F2F10EEA5364";
shapes = (
{
closed = 1;
nodes = (
(174,1296,l),
(174,796,l),
(367,796,l),
(367,1114,l),
(859,1114,l),
(160,155,l),
(160,0,l),
(1173,0,l),
(1173,534,l),
(980,534,l),
(980,182,l),
(418,182,l),
(1124,1149,l),
(1124,1296,l)
);
},
{
closed = 1;
nodes = (
(767,1478,l),
(974,1667,l),
(855,1739,l),
(676,1631,l),
(473,1739,l),
(360,1667,l),
(577,1478,l)
);
}
);
width = 1334;
}
);
unicode = 381;
},
{
glyphname = zcaron;
layers = (
{
layerId = "F01671F1-619E-4C0E-98FE-F2F10EEA5364";
shapes = (
{
closed = 1;
nodes = (
(225,1007,l),
(225,632,l),
(418,632,l),
(418,825,l),
(834,825,l),
(202,160,l),
(202,0,l),
(1131,0,l),
(1131,386,l),
(938,386,l),
(938,182,l),
(494,182,l),
(1131,859,l),
(1131,1007,l)
);
},
{
closed = 1;
nodes = (
(767,1190,l),
(974,1378,l),
(855,1449,l),
(676,1343,l),
(473,1449,l),
(360,1378,l),
(577,1190,l)
);
}
);
width = 1334;
}
);
unicode = 382;
},
{
glyphname = florin;
layers = (
{
layerId = "F01671F1-619E-4C0E-98FE-F2F10EEA5364";
shapes = (
{
closed = 1;
nodes = (
(1152,1498,l),
(1114,1504,o),
(1043,1514,o),
(991,1514,q),
(865,1514,o),
(640,1447,o),
(573,1376,q),
(516,1316,o),
(473,1167,o),
(473,1084,q),
(473,999,l),
(242,999,l),
(242,825,l),
(473,825,l),
(473,169,l),
(473,109,o),
(452,34,o),
(367,-9,o),
(202,-22,o),
(60,-15,q),
(38,-202,l),
(68,-206,o),
(144,-212,o),
(193,-212,q),
(276,-212,o),
(447,-185,o),
(583,-104,o),
(669,38,o),
(669,153,q),
(669,825,l),
(1047,825,l),
(1047,999,l),
(669,999,l),
(669,1073,l),
(669,1109,o),
(678,1196,o),
(732,1274,o),
(847,1327,o),
(954,1327,q),
(1007,1327,o),
(1082,1313,o),
(1118,1307,q)
);
}
);
width = 1334;
}
);
unicode = 402;
},
{
glyphname = circumflex;
layers = (
{
layerId = "F01671F1-619E-4C0E-98FE-F2F10EEA5364";
shapes = (
{
closed = 1;
nodes = (
(567,1449,l),
(360,1260,l),
(478,1190,l),
(658,1296,l),
(861,1190,l),
(976,1260,l),
(758,1449,l)
);
}
);
width = 1334;
}
);
unicode = 710;
},
{
glyphname = tilde;
layers = (
{
layerId = "F01671F1-619E-4C0E-98FE-F2F10EEA5364";
shapes = (
{
closed = 1;
nodes = (
(905,1467,l),
(885,1416,o),
(842,1345,o),
(804,1345,q),
(787,1345,o),
(745,1362,o),
(707,1391,q),
(669,1419,o),
(585,1463,o),
(526,1463,q),
(465,1463,o),
(380,1414,o),
(325,1345,o),
(289,1262,o),
(276,1230,q),
(429,1178,l),
(431,1180,o),
(435,1194,o),
(437,1196,q),
(449,1227,o),
(490,1298,o),
(526,1298,q),
(534,1298,o),
(547,1296,o),
(567,1287,o),
(598,1267,o),
(622,1249,q),
(685,1205,o),
(762,1183,o),
(796,1183,q),
(865,1183,o),
(956,1234,o),
(1016,1309,o),
(1047,1389,o),
(1058,1421,q)
);
}
);
width = 1334;
}
);
unicode = 732;
},
{
glyphname = uni1200;
layers = (
{
layerId = "F01671F1-619E-4C0E-98FE-F2F10EEA5364";
shapes = (
{
closed = 1;
nodes = (
(87,206,l),
(87,134,o),
(96,52,o),
(128,10,o),
(190,0,o),
(242,0,q),
(763,0,l),
(813,0,o),
(871,10,o),
(901,52,o),
(907,134,o),
(907,206,q),
(907,1163,l),
(907,1226,o),
(831,1293,o),
(778,1293,q),
(725,1293,o),
(646,1225,o),
(646,1163,q),
(646,207,l),
(646,171,o),
(620,123,o),
(554,98,o),
(439,87,o),
(349,87,q),
(349,1163,l),
(349,1225,o),
(270,1293,o),
(216,1293,q),
(164,1293,o),
(87,1226,o),
(87,1167,q)
);
}
);
width = 989;
}
);
unicode = 4608;
},
{
glyphname = uni1201;
layers = (
{
layerId = "F01671F1-619E-4C0E-98FE-F2F10EEA5364";
shapes = (
{
closed = 1;
nodes = (
(1007,702,l),
(1007,528,l),
(1094,528,l),
(1157,528,o),
(1225,605,o),
(1225,658,q),
(1225,713,o),
(1157,789,o),
(1094,789,q),
(906,789,l),
(906,1163,l),
(906,1226,o),
(829,1293,o),
(776,1293,q),
(723,1293,o),
(645,1225,o),
(645,1163,q),
(645,207,l),
(645,171,o),
(618,123,o),
(552,98,o),
(437,87,o),
(347,87,q),
(347,1163,l),
(347,1225,o),
(268,1293,o),
(214,1293,q),
(162,1293,o),
(85,1226,o),
(85,1167,q),
(85,206,l),
(85,134,o),
(94,52,o),
(125,10,o),
(188,0,o),
(241,0,q),
(761,0,l),
(811,0,o),
(869,10,o),
(899,52,o),
(906,134,o),
(906,206,q),
(906,702,l)
);
}
);
width = 1225;
}
);
unicode = 4609;
},
{
glyphname = uni1202;
layers = (
{
layerId = "F01671F1-619E-4C0E-98FE-F2F10EEA5364";
shapes = (
{
closed = 1;
nodes = (
(833,43,l),
(964,43,l),
(964,131,l),
(1050,131,l),
(1113,131,o),
(1181,54,o),
(1181,0,q),
(1181,-54,o),
(1113,-131,o),
(1050,-131,q),
(964,-131,l),
(964,-47,l),
(702,-47,l),
(650,-47,o),
(571,38,o),
(571,117,q),
(571,559,l),
(196,559,l),
(151,559,o),
(93,573,o),
(58,611,o),
(45,681,o),
(45,736,q),
(45,1134,l),
(45,1208,o),
(120,1291,o),
(173,1291,q),
(226,1291,o),
(304,1207,o),
(304,1128,q),
(304,648,l),
(364,648,o),
(462,655,o),
(533,681,o),
(571,733,o),
(571,776,q),
(571,1130,l),
(571,1208,o),
(650,1294,o),
(703,1294,q),
(756,1294,o),
(833,1208,o),
(833,1130,q)
);
}
);
width = 1181;
}
);
unicode = 4610;
},
{
glyphname = uni1203;
layers = (
{
layerId = "F01671F1-619E-4C0E-98FE-F2F10EEA5364";
shapes = (
{
closed = 1;
nodes = (
(831,1127,l),
(831,1205,o),
(754,1291,o),
(702,1291,q),
(648,1291,o),
(570,1205,o),
(570,1127,q),
(570,773,l),
(570,730,o),
(532,678,o),
(460,651,o),
(362,645,o),
(303,645,q),
(303,1125,l),
(303,1203,o),
(225,1287,o),
(171,1287,q),
(118,1287,o),
(43,1205,o),
(43,1130,q),
(43,733,l),
(43,678,o),
(56,608,o),
(90,570,o),
(150,555,o),
(195,555,q),
(570,555,l),
(570,106,l),
(570,45,o),
(648,-25,o),
(700,-25,q),
(754,-25,o),
(831,45,o),
(831,106,q)
);
}
);
width = 914;
}
);
unicode = 4611;
},
{
glyphname = uni1204;
layers = (
{
layerId = "F01671F1-619E-4C0E-98FE-F2F10EEA5364";
shapes = (
{
closed = 1;
nodes = (
(982,-25,l),
(1020,-25,o),
(1080,-20,o),
(1117,3,o),
(1135,52,o),
(1135,98,q),
(1135,314,l),
(1135,355,o),
(1113,404,o),
(1067,429,o),
(1003,434,o),
(961,434,q),
(831,434,l),
(831,1128,l),
(831,1207,o),
(754,1293,o),
(702,1293,q),
(648,1293,o),
(570,1207,o),
(570,1128,q),
(570,771,l),
(570,728,o),
(532,676,o),
(460,650,o),
(362,643,o),
(303,643,q),
(303,1127,l),
(303,1205,o),
(225,1289,o),
(171,1289,q),
(118,1289,o),
(43,1207,o),
(43,1132,q),
(43,731,l),
(43,676,o),
(56,606,o),
(90,568,o),
(150,554,o),
(195,554,q),
(570,554,l),
(570,106,l),
(570,73,o),
(578,25,o),
(606,-9,o),
(663,-25,o),
(714,-25,q)
);
},
{
closed = 1;
nodes = (
(944,35,l),
(902,35,o),
(857,42,o),
(836,60,o),
(831,94,o),
(831,123,q),
(831,372,l),
(871,372,o),
(916,367,o),
(939,355,o),
(944,331,o),
(944,312,q)
);
}
);
width = 1223;
}
);
unicode = 4612;
},
{
glyphname = uni1205;
layers = (
{
layerId = "F01671F1-619E-4C0E-98FE-F2F10EEA5364";
shapes = (
{
closed = 1;
nodes = (
(425,1165,l),
(425,1226,o),
(347,1294,o),
(293,1294,q),
(241,1294,o),
(164,1228,o),
(164,1168,q),
(164,838,l),
(164,793,o),
(195,753,o),
(239,753,q),
(341,753,l),
(284,743,o),
(213,705,o),
(176,646,o),
(164,566,o),
(164,514,q),
(164,206,l),
(164,134,o),
(173,52,o),
(204,10,o),
(266,0,o),
(319,0,q),
(839,0,l),
(890,0,o),
(947,10,o),
(977,52,o),
(984,134,o),
(984,206,q),
(984,1163,l),
(984,1226,o),
(907,1293,o),
(856,1293,q),
(801,1293,o),
(723,1225,o),
(723,1163,q),
(723,207,l),
(723,171,o),
(696,123,o),
(630,98,o),
(515,87,o),
(425,87,q)
);
}
);
width = 1060;
}
);
unicode = 4613;
},
{
glyphname = uni1206;
layers = (
{
layerId = "F01671F1-619E-4C0E-98FE-F2F10EEA5364";
shapes = (
{
closed = 1;
nodes = (
(43,206,l),
(43,134,o),
(52,52,o),
(83,10,o),
(146,0,o),
(198,0,q),
(719,0,l),
(770,0,o),
(827,10,o),
(857,52,o),
(864,134,o),
(864,206,q),
(864,813,l),
(1038,813,l),
(1168,813,o),
(1168,944,q),
(1168,1162,l),
(1168,1207,o),
(1148,1259,o),
(1104,1285,o),
(1038,1293,o),
(994,1293,q),
(733,1293,l),
(665,1293,o),
(603,1242,o),
(603,1162,q),
(603,207,l),
(603,171,o),
(577,123,o),
(510,98,o),
(395,87,o),
(304,87,q),
(304,1163,l),
(304,1225,o),
(226,1293,o),
(173,1293,q),
(120,1293,o),
(43,1226,o),
(43,1167,q)
);
},
{
closed = 1;
nodes = (
(977,954,l),
(977,906,o),
(921,874,o),
(864,874,q),
(864,1223,l),
(935,1223,o),
(977,1200,o),
(977,1162,q)
);
}
);
width = 1219;
}
);
unicode = 4614;
},
{
glyphname = uni1208;
layers = (
{
layerId = "F01671F1-619E-4C0E-98FE-F2F10EEA5364";
shapes = (
{
closed = 1;
nodes = (
(87,108,l),
(87,33,o),
(160,-23,o),
(218,-23,q),
(277,-23,o),
(349,33,o),
(349,108,q),
(349,799,l),
(469,799,l),
(500,799,o),
(547,796,o),
(578,781,o),
(592,743,o),
(592,711,q),
(592,108,l),
(592,33,o),
(665,-23,o),
(723,-23,q),
(782,-23,o),
(854,33,o),
(854,108,q),
(854,756,l),
(854,799,o),
(824,851,o),
(781,878,o),
(728,886,o),
(705,886,q),
(349,886,l),
(349,1165,l),
(349,1228,o),
(271,1296,o),
(218,1296,q),
(164,1296,o),
(87,1228,o),
(87,1165,q)
);
}
);
width = 941;
}
);
unicode = 4616;
},
{
glyphname = uni1209;
layers = (
{
layerId = "F01671F1-619E-4C0E-98FE-F2F10EEA5364";
shapes = (
{
closed = 1;
nodes = (
(87,103,l),
(87,28,o),
(160,-28,o),
(218,-28,q),
(277,-28,o),
(349,28,o),
(349,103,q),
(349,801,l),
(430,801,l),
(479,801,o),
(542,798,o),
(578,781,o),
(592,746,o),
(592,714,q),
(592,103,l),
(592,28,o),
(665,-28,o),
(723,-28,q),
(782,-28,o),
(854,28,o),
(854,103,q),
(854,568,l),
(958,568,l),
(958,394,l),
(1045,394,l),
(1108,394,o),
(1175,470,o),
(1175,524,q),
(1175,578,o),
(1108,655,o),
(1045,655,q),
(854,655,l),
(854,756,l),
(854,799,o),
(824,851,o),
(781,879,o),
(728,886,o),
(705,886,q),
(349,886,l),
(349,1162,l),
(349,1225,o),
(271,1293,o),
(218,1293,q),
(164,1293,o),
(87,1225,o),
(87,1162,q)
);
}
);
width = 1175;
}
);
unicode = 4617;
},
{
glyphname = uni120A;
layers = (
{
layerId = "F01671F1-619E-4C0E-98FE-F2F10EEA5364";
shapes = (
{
closed = 1;
nodes = (
(87,106,l),
(87,31,o),
(160,-25,o),
(218,-25,q),
(277,-25,o),
(349,31,o),
(349,106,q),
(349,801,l),
(427,801,l),
(480,801,o),
(547,798,o),
(582,781,o),
(592,746,o),
(592,714,q),
(592,106,l),
(592,31,o),
(667,-23,o),
(740,-23,q),
(958,-23,l),
(958,-111,l),
(1045,-111,l),
(1108,-111,o),
(1175,-35,o),
(1175,20,q),
(1175,73,o),
(1108,150,o),
(1045,150,q),
(958,150,l),
(958,66,l),
(854,66,l),
(854,756,l),
(854,799,o),
(824,851,o),
(781,879,o),
(728,886,o),
(705,886,q),
(349,886,l),
(349,1165,l),
(349,1228,o),
(271,1296,o),
(218,1296,q),
(164,1296,o),
(87,1228,o),
(87,1165,q)
);
}
);
width = 1175;
}
);
unicode = 4618;
},
{
glyphname = uni120B;
layers = (
{
layerId = "F01671F1-619E-4C0E-98FE-F2F10EEA5364";
shapes = (
{
closed = 1;
nodes = (
(87,411,l),
(87,336,o),
(160,281,o),
(218,281,q),
(277,281,o),
(349,336,o),
(349,411,q),
(349,801,l),
(441,801,l),
(487,801,o),
(547,798,o),
(580,782,o),
(592,748,o),
(592,714,q),
(592,106,l),
(592,31,o),
(665,-25,o),
(723,-25,q),
(782,-25,o),
(854,31,o),
(854,106,q),
(854,756,l),
(854,799,o),
(827,851,o),
(784,879,o),
(731,886,o),
(705,886,q),
(349,886,l),
(349,1162,l),
(349,1225,o),
(271,1293,o),
(218,1293,q),
(164,1293,o),
(87,1225,o),
(87,1162,q)
);
}
);
width = 941;
}
);
unicode = 4619;
},
{
glyphname = uni120C;
layers = (
{
layerId = "F01671F1-619E-4C0E-98FE-F2F10EEA5364";
shapes = (
{
closed = 1;
nodes = (
(87,106,l),
(87,31,o),
(160,-25,o),
(218,-25,q),
(277,-25,o),
(349,31,o),
(349,106,q),
(349,801,l),
(437,801,l),
(489,801,o),
(550,798,o),
(583,782,o),
(592,748,o),
(592,716,q),
(592,106,l),
(592,63,o),
(613,10,o),
(646,-15,o),
(688,-25,o),
(709,-25,q),
(1069,-25,l),
(1125,-25,o),
(1162,38,o),
(1162,108,q),
(1162,315,l),
(1162,354,o),
(1135,397,o),
(1089,418,o),
(1024,422,o),
(987,422,q),
(854,422,l),
(854,756,l),
(854,799,o),
(824,851,o),
(778,878,o),
(723,886,o),
(696,886,q),
(349,886,l),
(349,1162,l),
(349,1225,o),
(271,1293,o),
(218,1293,q),
(164,1293,o),
(87,1225,o),
(87,1162,q)
);
},
{
closed = 1;
nodes = (
(970,117,l),
(970,90,o),
(964,60,o),
(939,42,o),
(894,37,o),
(857,37,q),
(857,364,l),
(929,364,o),
(970,341,o),
(970,303,q)
);
}
);
width = 1162;
}
);
unicode = 4620;
},
{
glyphname = uni120D;
layers = (
{
layerId = "F01671F1-619E-4C0E-98FE-F2F10EEA5364";
shapes = (
{
closed = 1;
nodes = (
(87,1162,l),
(87,1225,o),
(164,1293,o),
(218,1293,q),
(271,1293,o),
(349,1225,o),
(349,1162,q),
(349,886,l),
(876,886,l),
(899,886,o),
(951,878,o),
(994,851,o),
(1024,799,o),
(1024,756,q),
(1024,108,l),
(1024,33,o),
(952,-23,o),
(894,-23,q),
(836,-23,o),
(763,33,o),
(763,108,q),
(763,714,l),
(763,748,o),
(758,782,o),
(731,798,o),
(676,801,o),
(623,801,q),
(349,801,l),
(349,517,l),
(479,517,l),
(528,517,o),
(594,510,o),
(636,475,o),
(653,406,o),
(653,343,q),
(653,108,l),
(653,-23,o),
(522,-23,q),
(218,-23,l),
(160,-23,o),
(87,33,o),
(87,108,q)
);
},
{
closed = 1;
nodes = (
(462,343,l),
(462,376,o),
(452,414,o),
(430,432,o),
(385,437,o),
(349,437,q),
(349,38,l),
(385,38,o),
(429,43,o),
(452,60,o),
(462,90,o),
(462,118,q)
);
}
);
width = 1132;
}
);
unicode = 4621;
},
{
glyphname = uni120E;
layers = (
{
layerId = "F01671F1-619E-4C0E-98FE-F2F10EEA5364";
shapes = (
{
closed = 1;
nodes = (
(87,1165,l),
(87,1228,o),
(164,1296,o),
(218,1296,q),
(271,1296,o),
(349,1228,o),
(349,1165,q),
(349,886,l),
(705,886,l),
(728,886,o),
(781,878,o),
(824,851,o),
(854,799,o),
(854,756,q),
(854,683,l),
(1132,683,l),
(1195,683,o),
(1263,651,o),
(1263,595,q),
(1263,447,l),
(1263,397,o),
(1214,361,o),
(1175,361,q),
(1002,361,l),
(951,361,o),
(914,401,o),
(914,447,q),
(914,622,l),
(854,622,l),
(854,106,l),
(854,31,o),
(782,-25,o),
(723,-25,q),
(665,-25,o),
(592,31,o),
(592,106,q),
(592,714,l),
(592,775,o),
(535,801,o),
(484,801,q),
(349,801,l),
(349,106,l),
(349,31,o),
(277,-25,o),
(218,-25,q),
(160,-25,o),
(87,31,o),
(87,106,q)
);
},
{
closed = 1;
nodes = (
(1132,595,l),
(1132,628,o),
(1089,628,q),
(1072,628,o),
(1045,611,o),
(1045,595,q),
(1045,447,l),
(1045,432,o),
(1073,414,o),
(1089,414,q),
(1106,414,o),
(1132,432,o),
(1132,447,q)
);
}
);
width = 1263;
}
);
unicode = 4622;
},
{
glyphname = uni120F;
layers = (
{
layerId = "F01671F1-619E-4C0E-98FE-F2F10EEA5364";
shapes = (
{
closed = 1;
nodes = (
(854,131,l),
(854,756,l),
(854,799,o),
(824,851,o),
(781,878,o),
(728,886,o),
(705,886,q),
(349,886,l),
(349,1162,l),
(349,1225,o),
(271,1293,o),
(218,1293,q),
(164,1293,o),
(87,1225,o),
(87,1162,q),
(87,392,l),
(87,317,o),
(160,258,o),
(218,258,q),
(277,258,o),
(349,317,o),
(349,392,q),
(349,798,l),
(495,798,l),
(526,798,o),
(565,794,o),
(585,776,o),
(592,742,o),
(592,713,q),
(592,131,l),
(282,131,l),
(282,-66,l),
(282,-98,o),
(336,-131,o),
(374,-131,q),
(414,-131,o),
(484,-98,o),
(500,-66,q),
(543,43,l),
(897,43,l),
(941,-65,l),
(956,-96,o),
(1027,-129,o),
(1066,-129,q),
(1104,-129,o),
(1158,-96,o),
(1158,-65,q),
(1158,131,l)
);
}
);
width = 1158;
}
);
unicode = 4623;
},
{
glyphname = uni1210;
layers = (
{
layerId = "F01671F1-619E-4C0E-98FE-F2F10EEA5364";
shapes = (
{
closed = 1;
nodes = (
(784,822,l),
(784,1162,l),
(784,1225,o),
(707,1293,o),
(653,1293,q),
(600,1293,o),
(522,1225,o),
(522,1162,q),
(522,822,l),
(218,822,l),
(196,822,o),
(151,817,o),
(113,791,o),
(87,738,o),
(87,691,q),
(87,106,l),
(87,31,o),
(160,-25,o),
(218,-25,q),
(277,-25,o),
(349,31,o),
(349,106,q),
(349,662,l),
(349,711,o),
(379,735,o),
(435,735,q),
(522,735,l),
(522,106,l),
(522,31,o),
(595,-25,o),
(653,-25,q),
(713,-25,o),
(784,31,o),
(784,106,q),
(784,735,l),
(843,735,o),
(912,733,o),
(947,718,o),
(958,686,o),
(958,657,q),
(958,106,l),
(958,31,o),
(1031,-25,o),
(1089,-25,q),
(1148,-25,o),
(1219,31,o),
(1219,106,q),
(1219,691,l),
(1219,735,o),
(1190,786,o),
(1151,813,o),
(1117,822,o),
(1113,822,q)
);
}
);
width = 1306;
}
);
unicode = 4624;
},
{
glyphname = uni1211;
layers = (
{
layerId = "F01671F1-619E-4C0E-98FE-F2F10EEA5364";
shapes = (
{
closed = 1;
nodes = (
(1219,519,l),
(1219,106,l),
(1219,31,o),
(1148,-25,o),
(1089,-25,q),
(1031,-25,o),
(958,31,o),
(958,106,q),
(958,658,l),
(958,709,o),
(914,735,o),
(856,735,q),
(784,735,l),
(784,106,l),
(784,31,o),
(713,-25,o),
(653,-25,q),
(595,-25,o),
(522,31,o),
(522,106,q),
(522,735,l),
(418,735,l),
(372,735,o),
(349,709,o),
(349,658,q),
(349,106,l),
(349,31,o),
(277,-25,o),
(218,-25,q),
(160,-25,o),
(87,31,o),
(87,106,q),
(87,693,l),
(87,740,o),
(113,793,o),
(151,819,o),
(196,824,o),
(218,824,q),
(522,824,l),
(522,1160,l),
(522,1223,o),
(600,1291,o),
(653,1291,q),
(707,1291,o),
(784,1223,o),
(784,1160,q),
(784,824,l),
(1113,824,l),
(1140,824,o),
(1181,817,o),
(1207,791,o),
(1219,738,o),
(1219,693,q),
(1219,606,l),
(1393,606,l),
(1468,606,o),
(1543,532,o),
(1543,475,q),
(1543,422,o),
(1475,345,o),
(1413,345,q),
(1326,345,l),
(1326,519,l)
);
}
);
width = 1543;
}
);
unicode = 4625;
},
{
glyphname = uni1212;
layers = (
{
layerId = "F01671F1-619E-4C0E-98FE-F2F10EEA5364";
shapes = (
{
closed = 1;
nodes = (
(1089,-25,l),
(1031,-25,o),
(958,31,o),
(958,106,q),
(958,658,l),
(958,685,o),
(951,716,o),
(934,731,o),
(897,735,o),
(869,735,q),
(784,735,l),
(784,106,l),
(784,31,o),
(713,-25,o),
(653,-25,q),
(595,-25,o),
(522,31,o),
(522,106,q),
(522,735,l),
(430,735,l),
(406,735,o),
(372,731,o),
(355,716,o),
(349,685,o),
(349,658,q),
(349,106,l),
(349,31,o),
(277,-25,o),
(218,-25,q),
(160,-25,o),
(87,31,o),
(87,106,q),
(87,691,l),
(87,738,o),
(111,791,o),
(150,817,o),
(195,822,o),
(218,822,q),
(522,822,l),
(522,1162,l),
(522,1225,o),
(600,1293,o),
(653,1293,q),
(707,1293,o),
(784,1225,o),
(784,1162,q),
(784,822,l),
(1113,822,l),
(1135,822,o),
(1174,813,o),
(1203,786,o),
(1219,735,o),
(1219,691,q),
(1219,63,l),
(1350,63,l),
(1350,150,l),
(1437,150,l),
(1499,150,o),
(1567,73,o),
(1567,20,q),
(1567,-35,o),
(1499,-111,o),
(1437,-111,q),
(1350,-111,l),
(1350,-25,l)
);
}
);
width = 1569;
}
);
unicode = 4626;
},
{
glyphname = uni1213;
layers = (
{
layerId = "F01671F1-619E-4C0E-98FE-F2F10EEA5364";
shapes = (
{
closed = 1;
nodes = (
(784,822,l),
(1113,822,l),
(1130,822,o),
(1168,813,o),
(1200,786,o),
(1219,735,o),
(1219,691,q),
(1219,106,l),
(1219,31,o),
(1148,-25,o),
(1089,-25,q),
(1031,-25,o),
(958,31,o),
(958,106,q),
(958,658,l),
(958,685,o),
(951,714,o),
(930,730,o),
(890,735,o),
(857,735,q),
(784,735,l),
(784,314,l),
(784,239,o),
(713,183,o),
(653,183,q),
(595,183,o),
(522,239,o),
(522,314,q),
(522,735,l),
(407,735,l),
(366,735,o),
(349,703,o),
(349,658,q),
(349,314,l),
(349,239,o),
(277,183,o),
(218,183,q),
(160,183,o),
(87,239,o),
(87,314,q),
(87,691,l),
(87,736,o),
(115,789,o),
(164,815,o),
(230,822,o),
(270,822,q),
(522,822,l),
(522,1162,l),
(522,1225,o),
(600,1293,o),
(653,1293,q),
(707,1293,o),
(784,1225,o),
(784,1162,q)
);
}
);
width = 1306;
}
);
unicode = 4627;
},
{
glyphname = uni1214;
layers = (
{
layerId = "F01671F1-619E-4C0E-98FE-F2F10EEA5364";
shapes = (
{
closed = 1;
nodes = (
(1437,-23,l),
(1492,-23,o),
(1529,40,o),
(1529,110,q),
(1529,299,l),
(1529,338,o),
(1503,382,o),
(1456,402,o),
(1391,406,o),
(1355,406,q),
(1221,406,l),
(1221,693,l),
(1221,736,o),
(1190,787,o),
(1151,815,o),
(1117,824,o),
(1113,824,q),
(784,824,l),
(784,1162,l),
(784,1225,o),
(707,1293,o),
(653,1293,q),
(600,1293,o),
(522,1225,o),
(522,1162,q),
(522,824,l),
(218,824,l),
(196,824,o),
(151,819,o),
(113,793,o),
(87,740,o),
(87,693,q),
(87,108,l),
(87,33,o),
(160,-23,o),
(218,-23,q),
(277,-23,o),
(349,33,o),
(349,108,q),
(349,655,l),
(349,683,o),
(354,716,o),
(371,731,o),
(402,735,o),
(430,735,q),
(522,735,l),
(522,108,l),
(522,33,o),
(595,-23,o),
(653,-23,q),
(713,-23,o),
(784,33,o),
(784,108,q),
(784,735,l),
(864,735,l),
(894,735,o),
(930,730,o),
(951,714,o),
(958,685,o),
(958,658,q),
(958,106,l),
(958,63,o),
(979,10,o),
(1014,-15,o),
(1055,-23,o),
(1077,-23,q)
);
},
{
closed = 1;
nodes = (
(1338,118,l),
(1338,93,o),
(1331,61,o),
(1306,43,o),
(1261,38,o),
(1225,38,q),
(1225,349,l),
(1296,349,o),
(1338,326,o),
(1338,287,q)
);
}
);
width = 1529;
}
);
unicode = 4628;
},
{
glyphname = uni1215;
layers = (
{
layerId = "F01671F1-619E-4C0E-98FE-F2F10EEA5364";
shapes = (
{
closed = 1;
nodes = (
(784,1031,l),
(784,1062,o),
(763,1099,o),
(735,1115,o),
(705,1118,o),
(696,1118,q),
(479,1118,l),
(479,1202,l),
(479,1263,o),
(401,1331,o),
(347,1331,q),
(294,1331,o),
(218,1265,o),
(218,1205,q),
(218,1031,l),
(522,1031,l),
(522,786,l),
(218,786,l),
(196,786,o),
(151,781,o),
(113,754,o),
(87,702,o),
(87,655,q),
(87,106,l),
(87,31,o),
(160,-25,o),
(218,-25,q),
(277,-25,o),
(349,31,o),
(349,106,q),
(349,641,l),
(349,681,o),
(374,698,o),
(420,698,q),
(522,698,l),
(522,106,l),
(522,31,o),
(595,-25,o),
(653,-25,q),
(713,-25,o),
(784,31,o),
(784,106,q),
(784,698,l),
(844,698,l),
(881,698,o),
(927,695,o),
(951,685,o),
(958,662,o),
(958,643,q),
(958,106,l),
(958,31,o),
(1031,-25,o),
(1089,-25,q),
(1148,-25,o),
(1219,31,o),
(1219,106,q),
(1219,655,l),
(1219,698,o),
(1205,749,o),
(1179,776,o),
(1139,786,o),
(1113,786,q),
(784,786,l)
);
}
);
width = 1306;
}
);
unicode = 4629;
},
{
glyphname = uni1216;
layers = (
{
layerId = "F01671F1-619E-4C0E-98FE-F2F10EEA5364";
shapes = (
{
closed = 1;
nodes = (
(522,822,l),
(522,1162,l),
(522,1225,o),
(600,1293,o),
(653,1293,q),
(707,1293,o),
(784,1225,o),
(784,1162,q),
(784,822,l),
(1045,822,l),
(1092,822,o),
(1158,815,o),
(1200,789,o),
(1219,735,o),
(1219,688,q),
(1219,369,l),
(1219,294,o),
(1148,239,o),
(1089,239,q),
(1031,239,o),
(958,294,o),
(958,369,q),
(958,657,l),
(958,685,o),
(951,716,o),
(932,731,o),
(894,735,o),
(862,735,q),
(784,735,l),
(784,369,l),
(784,294,o),
(713,239,o),
(653,239,q),
(595,239,o),
(522,294,o),
(522,369,q),
(522,735,l),
(423,735,l),
(374,735,o),
(349,707,o),
(349,657,q),
(349,108,l),
(349,33,o),
(277,-23,o),
(218,-23,q),
(160,-23,o),
(87,33,o),
(87,108,q),
(87,691,l),
(87,738,o),
(113,791,o),
(151,817,o),
(196,822,o),
(218,822,q)
);
}
);
width = 1306;
}
);
unicode = 4630;
},
{
glyphname = uni1217;
layers = (
{
layerId = "F01671F1-619E-4C0E-98FE-F2F10EEA5364";
shapes = (
{
closed = 1;
nodes = (
(918,129,l),
(918,657,l),
(918,686,o),
(909,718,o),
(886,733,o),
(850,735,o),
(822,735,q),
(743,735,l),
(743,352,l),
(743,277,o),
(673,221,o),
(613,221,q),
(555,221,o),
(482,277,o),
(482,352,q),
(482,735,l),
(392,735,l),
(336,735,o),
(308,705,o),
(308,657,q),
(308,352,l),
(308,277,o),
(237,221,o),
(178,221,q),
(120,221,o),
(47,277,o),
(47,352,q),
(47,691,l),
(47,775,o),
(125,822,o),
(195,822,q),
(482,822,l),
(482,1162,l),
(482,1225,o),
(559,1293,o),
(613,1293,q),
(667,1293,o),
(743,1225,o),
(743,1162,q),
(743,822,l),
(1073,822,l),
(1077,822,o),
(1111,813,o),
(1150,786,o),
(1179,735,o),
(1179,691,q),
(1179,129,l),
(1464,129,l),
(1464,-66,l),
(1464,-98,o),
(1411,-131,o),
(1373,-131,q),
(1334,-131,o),
(1263,-98,o),
(1247,-66,q),
(1203,42,l),
(850,42,l),
(806,-68,l),
(791,-99,o),
(721,-133,o),
(681,-133,q),
(643,-133,o),
(588,-99,o),
(588,-68,q),
(588,129,l)
);
}
);
width = 1464;
}
);
unicode = 4631;
},
{
glyphname = uni1218;
layers = (
{
layerId = "F01671F1-619E-4C0E-98FE-F2F10EEA5364";
shapes = (
{
closed = 1;
nodes = (
(784,1075,l),
(784,1135,o),
(850,1205,o),
(894,1205,q),
(937,1205,o),
(1002,1135,o),
(1002,1075,q),
(1002,173,l),
(1002,118,o),
(1007,50,o),
(1032,14,o),
(1085,0,o),
(1130,0,q),
(1554,0,l),
(1604,0,o),
(1662,14,o),
(1691,50,o),
(1698,118,o),
(1698,173,q),
(1698,1118,l),
(1698,1183,o),
(1662,1254,o),
(1609,1287,o),
(1549,1293,o),
(1524,1293,q),
(261,1293,l),
(233,1293,o),
(173,1283,o),
(120,1250,o),
(87,1181,o),
(87,1118,q),
(87,173,l),
(87,117,o),
(101,50,o),
(131,12,o),
(178,0,o),
(211,0,q),
(650,0,l),
(688,0,o),
(740,12,o),
(771,50,o),
(784,117,o),
(784,173,q)
);
},
{
closed = 1;
nodes = (
(1263,1223,l),
(1350,1223,l),
(1388,1223,o),
(1437,1150,o),
(1437,1075,q),
(1437,75,l),
(1350,75,l),
(1313,75,o),
(1263,141,o),
(1263,216,q)
);
},
{
closed = 1;
nodes = (
(522,216,l),
(522,141,o),
(474,75,o),
(435,75,q),
(349,75,l),
(349,1064,l),
(349,1139,o),
(401,1223,o),
(437,1223,q),
(522,1223,l)
);
}
);
width = 1785;
}
);
unicode = 4632;
},
{
glyphname = uni1219;
layers = (
{
layerId = "F01671F1-619E-4C0E-98FE-F2F10EEA5364";
shapes = (
{
closed = 1;
nodes = (
(1698,1117,l),
(1698,1181,o),
(1662,1253,o),
(1609,1285,o),
(1549,1291,o),
(1524,1291,q),
(261,1291,l),
(226,1291,o),
(164,1283,o),
(117,1250,o),
(87,1179,o),
(87,1117,q),
(87,174,l),
(87,122,o),
(94,56,o),
(120,15,o),
(171,0,o),
(213,0,q),
(646,0,l),
(693,0,o),
(749,17,o),
(776,58,o),
(784,123,o),
(784,174,q),
(784,1073,l),
(784,1134,o),
(850,1203,o),
(894,1203,q),
(937,1203,o),
(1002,1134,o),
(1002,1073,q),
(1002,174,l),
(1002,123,o),
(1010,58,o),
(1037,17,o),
(1089,0,o),
(1132,0,q),
(1552,0,l),
(1602,0,o),
(1660,15,o),
(1690,56,o),
(1698,123,o),
(1698,174,q),
(1698,804,l),
(1798,804,l),
(1798,630,l),
(1884,630,l),
(1947,630,o),
(2015,707,o),
(2015,761,q),
(2015,815,o),
(1947,892,o),
(1884,892,q),
(1698,892,l)
);
},
{
closed = 1;
nodes = (
(522,218,l),
(522,143,o),
(474,77,o),
(435,77,q),
(349,77,l),
(349,1062,l),
(349,1117,o),
(357,1179,o),
(378,1212,o),
(411,1221,o),
(437,1221,q),
(522,1221,l)
);
},
{
closed = 1;
nodes = (
(1263,1221,l),
(1350,1221,l),
(1374,1221,o),
(1407,1212,o),
(1428,1181,o),
(1437,1122,o),
(1437,1073,q),
(1437,77,l),
(1350,77,l),
(1313,77,o),
(1263,143,o),
(1263,218,q)
);
}
);
width = 2015;
}
);
unicode = 4633;
},
{
glyphname = uni121A;
layers = (
{
layerId = "F01671F1-619E-4C0E-98FE-F2F10EEA5364";
shapes = (
{
closed = 1;
nodes = (
(1657,0,l),
(1657,-88,l),
(1743,-88,l),
(1806,-88,o),
(1874,-12,o),
(1874,42,q),
(1874,96,o),
(1806,173,o),
(1743,173,q),
(1657,173,l),
(1657,88,l),
(1569,88,l),
(1569,1118,l),
(1569,1183,o),
(1532,1254,o),
(1481,1287,o),
(1419,1293,o),
(1395,1293,q),
(239,1293,l),
(207,1293,o),
(139,1283,o),
(82,1248,o),
(45,1179,o),
(45,1118,q),
(45,770,l),
(45,691,o),
(145,595,o),
(239,595,q),
(480,595,l),
(617,595,o),
(742,676,o),
(742,770,q),
(742,1085,l),
(742,1162,o),
(763,1216,o),
(808,1216,q),
(854,1216,o),
(873,1162,o),
(873,1085,q),
(873,770,l),
(873,714,o),
(884,646,o),
(921,610,o),
(986,595,o),
(1040,595,q),
(1308,595,l),
(1308,123,l),
(1308,63,o),
(1348,0,o),
(1411,0,q)
);
},
{
closed = 1;
nodes = (
(1243,673,l),
(1174,673,o),
(1134,738,o),
(1134,813,q),
(1134,1219,l),
(1191,1219,o),
(1261,1212,o),
(1298,1186,o),
(1308,1135,o),
(1308,1092,q),
(1308,673,l)
);
},
{
closed = 1;
nodes = (
(306,1092,l),
(306,1134,o),
(319,1183,o),
(355,1208,o),
(425,1216,o),
(480,1216,q),
(480,822,l),
(480,771,o),
(463,713,o),
(422,681,o),
(355,673,o),
(306,673,q)
);
}
);
width = 1878;
}
);
unicode = 4634;
},
{
glyphname = uni121B;
layers = (
{
layerId = "F01671F1-619E-4C0E-98FE-F2F10EEA5364";
shapes = (
{
closed = 1;
nodes = (
(235,1293,l),
(196,1293,o),
(128,1283,o),
(73,1248,o),
(42,1179,o),
(42,1118,q),
(42,770,l),
(42,691,o),
(150,595,o),
(235,595,q),
(477,595,l),
(613,595,o),
(738,676,o),
(738,770,q),
(738,1085,l),
(738,1162,o),
(759,1216,o),
(804,1216,q),
(850,1216,o),
(869,1162,o),
(869,1085,q),
(869,770,l),
(869,718,o),
(884,650,o),
(930,611,o),
(1015,595,o),
(1083,595,q),
(1305,595,l),
(1305,131,l),
(1305,70,o),
(1383,0,o),
(1435,0,q),
(1489,0,o),
(1566,70,o),
(1566,131,q),
(1566,1118,l),
(1566,1183,o),
(1529,1254,o),
(1477,1287,o),
(1416,1293,o),
(1391,1293,q)
);
},
{
closed = 1;
nodes = (
(1240,673,l),
(1170,673,o),
(1130,738,o),
(1130,813,q),
(1130,1219,l),
(1188,1219,o),
(1258,1212,o),
(1294,1186,o),
(1305,1135,o),
(1305,1092,q),
(1305,673,l)
);
},
{
closed = 1;
nodes = (
(303,1092,l),
(303,1134,o),
(315,1183,o),
(352,1208,o),
(422,1216,o),
(477,1216,q),
(477,822,l),
(477,771,o),
(460,713,o),
(418,681,o),
(352,673,o),
(303,673,q)
);
}
);
width = 1658;
}
);
unicode = 4635;
},
{
glyphname = uni121C;
layers = (
{
layerId = "F01671F1-619E-4C0E-98FE-F2F10EEA5364";
shapes = (
{
closed = 1;
nodes = (
(1688,-20,l),
(1726,-20,o),
(1795,-12,o),
(1846,15,o),
(1876,66,o),
(1876,111,q),
(1876,291,l),
(1876,376,o),
(1785,439,o),
(1702,439,q),
(1571,439,l),
(1571,1117,l),
(1571,1181,o),
(1534,1253,o),
(1482,1285,o),
(1421,1291,o),
(1396,1291,q),
(241,1291,l),
(204,1291,o),
(136,1283,o),
(80,1250,o),
(47,1181,o),
(47,1118,q),
(47,768,l),
(47,690,o),
(133,595,o),
(241,595,q),
(482,595,l),
(618,595,o),
(743,674,o),
(743,768,q),
(743,1083,l),
(743,1160,o),
(765,1214,o),
(810,1214,q),
(856,1214,o),
(874,1160,o),
(874,1083,q),
(874,768,l),
(874,702,o),
(902,632,o),
(967,600,o),
(1072,594,o),
(1146,594,q),
(1310,594,l),
(1310,111,l),
(1310,78,o),
(1318,30,o),
(1346,-3,o),
(1404,-20,o),
(1454,-20,q)
);
},
{
closed = 1;
nodes = (
(1245,670,l),
(1175,670,o),
(1135,736,o),
(1135,811,q),
(1135,1218,l),
(1193,1218,o),
(1263,1210,o),
(1299,1185,o),
(1310,1134,o),
(1310,1090,q),
(1310,670,l)
);
},
{
closed = 1;
nodes = (
(308,1090,l),
(308,1132,o),
(321,1181,o),
(357,1207,o),
(427,1214,o),
(482,1214,q),
(482,821,l),
(482,770,o),
(465,711,o),
(423,679,o),
(357,670,o),
(308,670,q)
);
},
{
closed = 1;
nodes = (
(1684,40,l),
(1642,40,o),
(1597,47,o),
(1576,65,o),
(1571,99,o),
(1571,129,q),
(1571,378,l),
(1611,378,o),
(1657,372,o),
(1679,361,o),
(1684,336,o),
(1684,317,q)
);
}
);
width = 1876;
}
);
unicode = 4636;
},
{
glyphname = uni121D;
layers = (
{
layerId = "F01671F1-619E-4C0E-98FE-F2F10EEA5364";
shapes = (
{
closed = 1;
nodes = (
(1437,1293,l),
(1461,1293,o),
(1522,1285,o),
(1574,1250,o),
(1611,1181,o),
(1611,1118,q),
(1611,771,l),
(1611,678,o),
(1486,597,o),
(1350,597,q),
(1175,597,l),
(1032,597,o),
(914,693,o),
(914,771,q),
(914,1085,l),
(914,1162,o),
(895,1216,o),
(850,1216,q),
(804,1216,o),
(782,1162,o),
(782,1085,q),
(782,714,l),
(782,653,o),
(753,605,o),
(743,595,q),
(479,261,l),
(479,131,l),
(479,70,o),
(402,0,o),
(349,0,q),
(296,0,o),
(218,70,o),
(218,131,q),
(218,261,l),
(479,597,l),
(281,597,l),
(219,597,o),
(143,627,o),
(101,674,o),
(87,736,o),
(87,771,q),
(87,1118,l),
(87,1181,o),
(122,1250,o),
(178,1283,o),
(246,1293,o),
(279,1293,q)
);
},
{
closed = 1;
nodes = (
(349,678,l),
(397,678,o),
(463,686,o),
(505,718,o),
(522,776,o),
(522,827,q),
(522,1219,l),
(467,1219,o),
(397,1212,o),
(361,1186,o),
(349,1137,o),
(349,1095,q)
);
},
{
closed = 1;
nodes = (
(1351,676,l),
(1351,1094,l),
(1351,1137,o),
(1339,1188,o),
(1303,1214,o),
(1233,1221,o),
(1175,1221,q),
(1175,817,l),
(1175,742,o),
(1218,676,o),
(1287,676,q)
);
}
);
width = 1639;
}
);
unicode = 4637;
},
{
glyphname = uni121E;
layers = (
{
layerId = "F01671F1-619E-4C0E-98FE-F2F10EEA5364";
shapes = (
{
closed = 1;
nodes = (
(1437,1293,l),
(1461,1293,o),
(1522,1287,o),
(1574,1254,o),
(1611,1183,o),
(1611,1118,q),
(1611,770,l),
(1611,676,o),
(1486,595,o),
(1350,595,q),
(1175,595,l),
(1094,595,o),
(992,620,o),
(935,665,o),
(914,730,o),
(914,770,q),
(914,1085,l),
(914,1162,o),
(895,1216,o),
(850,1216,q),
(804,1216,o),
(784,1162,o),
(784,1085,q),
(784,131,l),
(784,70,o),
(707,0,o),
(653,0,q),
(601,0,o),
(522,70,o),
(522,131,q),
(522,595,l),
(349,595,l),
(266,595,o),
(166,620,o),
(108,665,o),
(87,730,o),
(87,770,q),
(87,1118,l),
(87,1183,o),
(123,1253,o),
(181,1285,o),
(254,1293,o),
(289,1293,q)
);
},
{
closed = 1;
nodes = (
(1350,673,l),
(1350,1092,l),
(1350,1135,o),
(1339,1186,o),
(1303,1212,o),
(1233,1219,o),
(1175,1219,q),
(1175,813,l),
(1175,738,o),
(1216,673,o),
(1285,673,q)
);
},
{
closed = 1;
nodes = (
(349,673,l),
(406,673,o),
(474,683,o),
(510,714,o),
(522,775,o),
(522,826,q),
(522,1219,l),
(467,1219,o),
(397,1212,o),
(361,1186,o),
(349,1137,o),
(349,1095,q)
);
}
);
width = 1639;
}
);
unicode = 4638;
},
{
glyphname = uni121F;
layers = (
{
layerId = "F01671F1-619E-4C0E-98FE-F2F10EEA5364";
shapes = (
{
closed = 1;
nodes = (
(1571,131,l),
(1571,1118,l),
(1571,1183,o),
(1534,1254,o),
(1482,1287,o),
(1421,1293,o),
(1396,1293,q),
(241,1293,l),
(216,1293,o),
(148,1285,o),
(88,1254,o),
(47,1185,o),
(47,1122,q),
(47,770,l),
(47,691,o),
(133,595,o),
(241,595,q),
(482,595,l),
(618,595,o),
(743,676,o),
(743,770,q),
(743,1085,l),
(743,1162,o),
(765,1216,o),
(810,1216,q),
(856,1216,o),
(874,1162,o),
(874,1085,q),
(874,770,l),
(874,703,o),
(899,634,o),
(959,601,o),
(1059,595,o),
(1134,595,q),
(1310,595,l),
(1310,131,l),
(1000,131,l),
(1000,-66,l),
(1000,-98,o),
(1054,-131,o),
(1092,-131,q),
(1132,-131,o),
(1202,-98,o),
(1218,-66,q),
(1261,43,l),
(1614,43,l),
(1658,-65,l),
(1674,-96,o),
(1745,-129,o),
(1783,-129,q),
(1822,-129,o),
(1876,-96,o),
(1876,-65,q),
(1876,131,l)
);
},
{
closed = 1;
nodes = (
(1245,673,l),
(1175,673,o),
(1135,738,o),
(1135,813,q),
(1135,1219,l),
(1193,1219,o),
(1263,1212,o),
(1299,1186,o),
(1310,1135,o),
(1310,1092,q),
(1310,673,l)
);
},
{
closed = 1;
nodes = (
(308,1092,l),
(308,1134,o),
(321,1183,o),
(357,1208,o),
(427,1216,o),
(482,1216,q),
(482,822,l),
(482,771,o),
(465,713,o),
(423,681,o),
(357,673,o),
(308,673,q)
);
}
);
width = 1876;
}
);
unicode = 4639;
},
{
glyphname = uni1220;
layers = (
{
layerId = "F01671F1-619E-4C0E-98FE-F2F10EEA5364";
shapes = (
{
closed = 1;
nodes = (
(282,0,l),
(251,0,o),
(181,9,o),
(123,50,o),
(85,138,o),
(85,214,q),
(85,1132,l),
(85,1210,o),
(164,1296,o),
(216,1296,q),
(270,1296,o),
(347,1210,o),
(347,1132,q),
(347,237,l),
(347,186,o),
(367,123,o),
(404,88,o),
(451,77,o),
(477,77,q),
(590,77,l),
(590,1132,l),
(590,1207,o),
(668,1293,o),
(721,1293,q),
(775,1293,o),
(851,1207,o),
(851,1132,q),
(851,77,l),
(965,77,l),
(991,77,o),
(1040,88,o),
(1075,123,o),
(1095,186,o),
(1095,237,q),
(1095,1132,l),
(1095,1210,o),
(1170,1296,o),
(1223,1296,q),
(1275,1296,o),
(1356,1210,o),
(1356,1132,q),
(1356,214,l),
(1356,136,o),
(1316,48,o),
(1258,9,o),
(1186,0,o),
(1153,0,q)
);
}
);
width = 1444;
}
);
unicode = 4640;
},
{
glyphname = uni1221;
layers = (
{
layerId = "F01671F1-619E-4C0E-98FE-F2F10EEA5364";
shapes = (
{
closed = 1;
nodes = (
(1452,703,l),
(1452,530,l),
(1539,530,l),
(1602,530,o),
(1670,606,o),
(1670,660,q),
(1670,714,o),
(1602,791,o),
(1539,791,q),
(1358,791,l),
(1358,1130,l),
(1358,1208,o),
(1276,1294,o),
(1225,1294,q),
(1172,1294,o),
(1097,1208,o),
(1097,1130,q),
(1097,237,l),
(1097,186,o),
(1077,123,o),
(1042,88,o),
(992,77,o),
(967,77,q),
(854,77,l),
(854,1130,l),
(854,1205,o),
(776,1291,o),
(723,1291,q),
(670,1291,o),
(592,1205,o),
(592,1130,q),
(592,77,l),
(479,77,l),
(452,77,o),
(406,88,o),
(369,123,o),
(349,186,o),
(349,237,q),
(349,1130,l),
(349,1208,o),
(271,1294,o),
(218,1294,q),
(166,1294,o),
(87,1208,o),
(87,1130,q),
(87,214,l),
(87,138,o),
(125,50,o),
(183,9,o),
(253,0,o),
(284,0,q),
(1155,0,l),
(1188,0,o),
(1259,9,o),
(1318,48,o),
(1358,136,o),
(1358,214,q),
(1358,703,l)
);
}
);
width = 1670;
}
);
unicode = 4641;
},
{
glyphname = uni1222;
layers = (
{
layerId = "F01671F1-619E-4C0E-98FE-F2F10EEA5364";
shapes = (
{
closed = 1;
nodes = (
(1177,87,l),
(1177,1162,l),
(1177,1190,o),
(1155,1240,o),
(1117,1275,o),
(1067,1296,o),
(1043,1296,q),
(992,1296,o),
(916,1219,o),
(916,1162,q),
(916,811,l),
(916,763,o),
(901,707,o),
(861,679,o),
(793,673,o),
(742,673,q),
(742,1175,l),
(742,1223,o),
(663,1293,o),
(611,1293,q),
(587,1293,o),
(540,1273,o),
(503,1242,o),
(480,1198,o),
(480,1175,q),
(480,673,l),
(387,673,o),
(306,730,o),
(306,813,q),
(306,1175,l),
(306,1225,o),
(228,1296,o),
(176,1296,q),
(123,1296,o),
(45,1225,o),
(45,1175,q),
(45,793,l),
(45,725,o),
(61,648,o),
(90,608,o),
(134,600,o),
(162,600,q),
(916,600,l),
(916,129,l),
(916,68,o),
(994,0,o),
(1049,0,q),
(1308,0,l),
(1308,-87,l),
(1395,-87,l),
(1458,-87,o),
(1526,-10,o),
(1526,43,q),
(1526,98,o),
(1458,174,o),
(1395,174,q),
(1308,174,l),
(1308,87,l)
);
}
);
width = 1522;
}
);
unicode = 4642;
},
{
glyphname = uni1223;
layers = (
{
layerId = "F01671F1-619E-4C0E-98FE-F2F10EEA5364";
shapes = (
{
closed = 1;
nodes = (
(1097,-25,o),
(1175,43,o),
(1175,106,q),
(1175,1162,l),
(1175,1190,o),
(1153,1240,o),
(1115,1275,o),
(1066,1296,o),
(1042,1296,q),
(991,1296,o),
(914,1219,o),
(914,1162,q),
(914,811,l),
(914,763,o),
(899,707,o),
(859,679,o),
(791,673,o),
(740,673,q),
(740,1175,l),
(740,1223,o),
(662,1293,o),
(610,1293,q),
(585,1293,o),
(538,1273,o),
(502,1242,o),
(479,1198,o),
(479,1175,q),
(479,673,l),
(385,673,o),
(304,730,o),
(304,813,q),
(304,1175,l),
(304,1225,o),
(226,1296,o),
(174,1296,q),
(122,1296,o),
(43,1225,o),
(43,1175,q),
(43,793,l),
(43,725,o),
(65,648,o),
(101,608,o),
(148,600,o),
(176,600,q),
(914,600,l),
(914,106,l),
(914,43,o),
(991,-25,o),
(1045,-25,q)
);
}
);
width = 1306;
}
);
unicode = 4643;
},
{
glyphname = uni1224;
layers = (
{
layerId = "F01671F1-619E-4C0E-98FE-F2F10EEA5364";
shapes = (
{
closed = 1;
nodes = (
(1327,-25,l),
(1366,-25,o),
(1424,-20,o),
(1461,3,o),
(1481,52,o),
(1481,98,q),
(1481,314,l),
(1481,355,o),
(1458,404,o),
(1413,429,o),
(1348,434,o),
(1306,434,q),
(1175,434,l),
(1175,1162,l),
(1175,1190,o),
(1153,1240,o),
(1115,1275,o),
(1066,1296,o),
(1042,1296,q),
(991,1296,o),
(914,1219,o),
(914,1162,q),
(914,811,l),
(914,763,o),
(899,707,o),
(859,679,o),
(791,673,o),
(740,673,q),
(740,1175,l),
(740,1223,o),
(662,1293,o),
(610,1293,q),
(585,1293,o),
(538,1273,o),
(502,1242,o),
(479,1198,o),
(479,1175,q),
(479,673,l),
(385,673,o),
(304,730,o),
(304,813,q),
(304,1175,l),
(304,1225,o),
(226,1296,o),
(174,1296,q),
(122,1296,o),
(43,1225,o),
(43,1175,q),
(43,793,l),
(43,725,o),
(61,648,o),
(94,608,o),
(139,600,o),
(168,600,q),
(914,600,l),
(914,106,l),
(914,73,o),
(923,25,o),
(951,-9,o),
(1009,-25,o),
(1059,-25,q)
);
},
{
closed = 1;
nodes = (
(1289,35,l),
(1247,35,o),
(1202,42,o),
(1181,60,o),
(1175,94,o),
(1175,123,q),
(1175,372,l),
(1216,372,o),
(1261,367,o),
(1283,355,o),
(1289,331,o),
(1289,312,q)
);
}
);
width = 1479;
}
);
unicode = 4644;
},
{
glyphname = uni1225;
layers = (
{
layerId = "F01671F1-619E-4C0E-98FE-F2F10EEA5364";
shapes = (
{
closed = 1;
nodes = (
(952,668,l),
(859,668,o),
(778,726,o),
(778,810,q),
(778,1172,l),
(778,1221,o),
(700,1293,o),
(648,1293,q),
(595,1293,o),
(517,1226,o),
(517,1177,q),
(517,810,l),
(517,768,o),
(510,713,o),
(477,679,o),
(409,667,o),
(350,667,q),
(350,1127,l),
(350,1205,o),
(274,1291,o),
(219,1291,q),
(168,1291,o),
(88,1205,o),
(88,1127,q),
(88,131,l),
(88,56,o),
(166,-25,o),
(216,-25,q),
(270,-25,o),
(347,61,o),
(347,139,q),
(347,595,l),
(1130,595,l),
(1168,595,o),
(1214,628,o),
(1214,696,q),
(1214,1172,l),
(1214,1219,o),
(1135,1289,o),
(1083,1289,q),
(1059,1289,o),
(1012,1270,o),
(975,1238,o),
(952,1195,o),
(952,1172,q)
);
}
);
width = 1253;
}
);
unicode = 4645;
},
{
glyphname = uni1226;
layers = (
{
layerId = "F01671F1-619E-4C0E-98FE-F2F10EEA5364";
shapes = (
{
closed = 1;
nodes = (
(662,-25,o),
(740,43,o),
(740,106,q),
(740,600,l),
(1077,600,l),
(1094,600,o),
(1128,606,o),
(1158,638,o),
(1175,700,o),
(1175,754,q),
(1175,1162,l),
(1175,1190,o),
(1153,1240,o),
(1115,1275,o),
(1066,1296,o),
(1042,1296,q),
(991,1296,o),
(914,1219,o),
(914,1162,q),
(914,811,l),
(914,763,o),
(899,707,o),
(859,679,o),
(791,673,o),
(740,673,q),
(740,1175,l),
(740,1223,o),
(662,1293,o),
(610,1293,q),
(585,1293,o),
(538,1273,o),
(502,1242,o),
(479,1198,o),
(479,1175,q),
(479,673,l),
(385,673,o),
(304,730,o),
(304,813,q),
(304,1175,l),
(304,1225,o),
(226,1296,o),
(174,1296,q),
(122,1296,o),
(45,1225,o),
(45,1175,q),
(45,756,l),
(45,709,o),
(56,648,o),
(78,613,o),
(117,600,o),
(145,600,q),
(479,600,l),
(479,106,l),
(479,43,o),
(555,-25,o),
(610,-25,q)
);
}
);
width = 1235;
}
);
unicode = 4646;
},
{
glyphname = uni1227;
layers = (
{
layerId = "F01671F1-619E-4C0E-98FE-F2F10EEA5364";
shapes = (
{
closed = 1;
nodes = (
(916,125,l),
(588,125,l),
(588,-71,l),
(588,-103,o),
(643,-136,o),
(681,-136,q),
(721,-136,o),
(791,-103,o),
(806,-71,q),
(850,38,l),
(1203,38,l),
(1247,-70,l),
(1263,-101,o),
(1334,-134,o),
(1373,-134,q),
(1411,-134,o),
(1464,-101,o),
(1464,-70,q),
(1464,125,l),
(1177,125,l),
(1177,1160,l),
(1177,1188,o),
(1155,1238,o),
(1117,1273,o),
(1067,1294,o),
(1043,1294,q),
(992,1294,o),
(916,1218,o),
(916,1160,q),
(916,810,l),
(916,761,o),
(901,705,o),
(861,678,o),
(793,670,o),
(742,670,q),
(742,1174,l),
(742,1221,o),
(663,1291,o),
(611,1291,q),
(587,1291,o),
(540,1271,o),
(503,1240,o),
(480,1197,o),
(480,1174,q),
(480,670,l),
(387,670,o),
(306,728,o),
(306,811,q),
(306,1174,l),
(306,1223,o),
(228,1294,o),
(176,1294,q),
(123,1294,o),
(45,1223,o),
(45,1174,q),
(45,791,l),
(45,723,o),
(66,646,o),
(103,606,o),
(150,597,o),
(178,597,q),
(916,597,l)
);
}
);
width = 1464;
}
);
unicode = 4647;
},
{
glyphname = uni1228;
layers = (
{
layerId = "F01671F1-619E-4C0E-98FE-F2F10EEA5364";
shapes = (
{
closed = 1;
nodes = (
(696,869,l),
(458,678,l),
(429,653,o),
(387,617,o),
(361,583,o),
(349,545,o),
(349,519,q),
(349,156,l),
(349,123,o),
(354,87,o),
(372,68,o),
(411,65,o),
(446,65,q),
(628,65,l),
(628,185,l),
(628,207,o),
(653,244,o),
(691,268,o),
(738,282,o),
(761,282,q),
(782,282,o),
(829,270,o),
(866,244,o),
(890,207,o),
(890,185,q),
(890,63,l),
(890,33,o),
(871,0,o),
(839,-17,o),
(799,-23,o),
(778,-23,q),
(304,-23,l),
(246,-23,o),
(162,-15,o),
(110,20,o),
(87,88,o),
(87,151,q),
(87,543,l),
(87,566,o),
(94,603,o),
(111,636,o),
(146,670,o),
(173,691,q),
(435,907,l),
(435,1165,l),
(435,1226,o),
(514,1296,o),
(566,1296,q),
(620,1296,o),
(696,1228,o),
(696,1165,q)
);
}
);
width = 958;
}
);
unicode = 4648;
},
{
glyphname = uni1229;
layers = (
{
layerId = "F01671F1-619E-4C0E-98FE-F2F10EEA5364";
shapes = (
{
closed = 1;
nodes = (
(676,304,l),
(676,0,l),
(676,-47,o),
(600,-98,o),
(545,-98,q),
(493,-98,o),
(414,-47,o),
(414,0,q),
(414,304,l),
(201,304,l),
(181,304,o),
(141,324,o),
(108,366,o),
(87,432,o),
(87,479,q),
(87,728,l),
(87,751,o),
(94,787,o),
(113,819,o),
(148,851,o),
(174,874,q),
(435,1092,l),
(435,1186,l),
(435,1247,o),
(514,1316,o),
(566,1316,q),
(620,1316,o),
(696,1248,o),
(696,1186,q),
(696,1054,l),
(451,854,l),
(434,839,o),
(397,813,o),
(367,784,o),
(349,753,o),
(349,735,q),
(349,479,l),
(349,432,o),
(372,392,o),
(412,392,q),
(763,392,l),
(763,575,l),
(912,575,l),
(967,568,o),
(1024,495,o),
(1024,446,q),
(1024,395,o),
(958,314,o),
(895,304,q)
);
}
);
width = 1111;
}
);
unicode = 4649;
},
{
glyphname = uni122A;
layers = (
{
layerId = "F01671F1-619E-4C0E-98FE-F2F10EEA5364";
shapes = (
{
closed = 1;
nodes = (
(87,555,l),
(87,578,o),
(94,615,o),
(113,650,o),
(148,685,o),
(174,707,q),
(435,924,l),
(435,1183,l),
(435,1243,o),
(514,1313,o),
(566,1313,q),
(620,1313,o),
(696,1245,o),
(696,1183,q),
(696,886,l),
(429,658,l),
(394,634,o),
(349,575,o),
(349,528,q),
(349,183,l),
(349,156,o),
(361,125,o),
(389,110,o),
(435,105,o),
(470,105,q),
(696,105,l),
(696,500,l),
(696,545,o),
(765,611,o),
(810,611,q),
(854,611,o),
(914,547,o),
(914,500,q),
(914,105,l),
(914,70,o),
(907,30,o),
(886,7,o),
(846,0,o),
(815,0,q),
(284,0,l),
(226,0,o),
(150,7,o),
(106,40,o),
(87,110,o),
(87,173,q)
);
}
);
width = 1002;
}
);
unicode = 4650;
},
{
glyphname = uni122B;
layers = (
{
layerId = "F01671F1-619E-4C0E-98FE-F2F10EEA5364";
shapes = (
{
closed = 1;
nodes = (
(435,1165,l),
(435,1226,o),
(514,1296,o),
(566,1296,q),
(620,1296,o),
(696,1228,o),
(696,1165,q),
(696,904,l),
(394,688,l),
(376,674,o),
(347,650,o),
(324,620,o),
(312,580,o),
(312,552,q),
(312,174,l),
(312,148,o),
(319,115,o),
(357,94,o),
(437,87,o),
(510,87,q),
(510,435,l),
(510,477,o),
(537,528,o),
(590,554,o),
(673,563,o),
(728,563,q),
(1026,563,l),
(1097,563,o),
(1142,542,o),
(1142,509,q),
(1142,345,l),
(1142,279,o),
(1064,216,o),
(1012,216,q),
(959,216,o),
(881,282,o),
(881,345,q),
(881,475,l),
(803,475,l),
(768,475,o),
(751,452,o),
(751,429,q),
(751,85,l),
(751,56,o),
(726,23,o),
(691,5,o),
(648,0,o),
(630,0,q),
(268,0,l),
(216,0,o),
(134,9,o),
(80,42,o),
(50,111,o),
(50,174,q),
(50,543,l),
(50,566,o),
(58,603,o),
(77,634,o),
(111,667,o),
(138,686,q),
(435,904,l)
);
}
);
width = 1198;
}
);
unicode = 4651;
},
{
glyphname = uni122C;
layers = (
{
layerId = "F01671F1-619E-4C0E-98FE-F2F10EEA5364";
shapes = (
{
closed = 1;
nodes = (
(937,0,l),
(1000,0,o),
(1049,31,o),
(1049,87,q),
(1049,347,l),
(1049,397,o),
(1012,434,o),
(974,434,q),
(688,434,l),
(632,434,o),
(570,423,o),
(537,402,o),
(528,369,o),
(528,347,q),
(528,87,l),
(452,87,l),
(418,87,o),
(382,90,o),
(364,110,o),
(361,146,o),
(361,179,q),
(361,515,l),
(361,542,o),
(372,580,o),
(399,613,o),
(441,650,o),
(470,674,q),
(709,866,l),
(709,1162,l),
(709,1225,o),
(632,1293,o),
(578,1293,q),
(526,1293,o),
(447,1223,o),
(447,1162,q),
(447,904,l),
(185,688,l),
(158,667,o),
(123,632,o),
(106,600,o),
(99,563,o),
(99,540,q),
(99,174,l),
(99,111,o),
(122,42,o),
(174,7,o),
(258,0,o),
(317,0,q)
);
},
{
closed = 1;
nodes = (
(831,87,l),
(831,54,o),
(787,54,q),
(770,54,o),
(743,71,o),
(743,87,q),
(743,347,l),
(743,362,o),
(771,379,o),
(787,379,q),
(804,379,o),
(831,362,o),
(831,347,q)
);
}
);
width = 1049;
}
);
unicode = 4652;
},
{
glyphname = uni122D;
layers = (
{
layerId = "F01671F1-619E-4C0E-98FE-F2F10EEA5364";
shapes = (
{
closed = 1;
nodes = (
(87,174,l),
(87,113,o),
(110,45,o),
(143,9,o),
(185,0,o),
(204,0,q),
(844,0,l),
(866,0,o),
(906,5,o),
(937,23,o),
(956,56,o),
(956,85,q),
(956,207,l),
(956,230,o),
(932,266,o),
(892,293,o),
(844,304,o),
(824,304,q),
(801,304,o),
(756,291,o),
(719,266,o),
(696,230,o),
(696,207,q),
(696,87,l),
(435,87,l),
(394,87,o),
(349,117,o),
(349,174,q),
(349,1122,l),
(349,1151,o),
(354,1186,o),
(372,1203,o),
(406,1208,o),
(432,1208,q),
(696,1208,l),
(696,1078,l),
(696,1017,o),
(773,947,o),
(827,947,q),
(879,947,o),
(958,1017,o),
(958,1078,q),
(958,1208,l),
(958,1238,o),
(947,1273,o),
(916,1291,o),
(861,1296,o),
(817,1296,q),
(218,1296,l),
(173,1296,o),
(120,1283,o),
(94,1243,o),
(87,1170,o),
(87,1108,q)
);
}
);
width = 1045;
}
);
unicode = 4653;
},
{
glyphname = uni122E;
layers = (
{
layerId = "F01671F1-619E-4C0E-98FE-F2F10EEA5364";
shapes = (
{
closed = 1;
nodes = (
(883,0,l),
(904,0,o),
(944,5,o),
(975,23,o),
(994,56,o),
(994,85,q),
(994,207,l),
(994,230,o),
(970,266,o),
(930,293,o),
(883,304,o),
(862,304,q),
(839,304,o),
(794,291,o),
(758,266,o),
(735,230,o),
(735,207,q),
(735,87,l),
(435,87,l),
(399,87,o),
(349,105,o),
(349,131,q),
(349,1148,l),
(349,1188,o),
(372,1208,o),
(411,1208,q),
(474,1208,l),
(474,901,l),
(474,866,o),
(480,811,o),
(502,776,o),
(542,759,o),
(575,759,q),
(890,759,l),
(958,759,o),
(996,826,o),
(996,901,q),
(996,1208,l),
(996,1231,o),
(987,1265,o),
(961,1285,o),
(911,1296,o),
(867,1296,q),
(193,1296,l),
(186,1296,o),
(151,1287,o),
(115,1254,o),
(87,1185,o),
(87,1122,q),
(87,174,l),
(87,117,o),
(98,48,o),
(133,12,o),
(191,0,o),
(242,0,q)
);
},
{
closed = 1;
nodes = (
(796,861,l),
(796,844,o),
(759,827,o),
(735,827,q),
(711,827,o),
(674,844,o),
(674,861,q),
(674,1172,l),
(674,1188,o),
(711,1205,o),
(735,1205,q),
(761,1205,o),
(796,1188,o),
(796,1172,q)
);
}
);
width = 1135;
}
);
unicode = 4654;
},
{
glyphname = uni122F;
layers = (
{
layerId = "F01671F1-619E-4C0E-98FE-F2F10EEA5364";
shapes = (
{
closed = 1;
nodes = (
(437,954,l),
(139,711,l),
(85,670,o),
(52,588,o),
(52,543,q),
(52,174,l),
(52,111,o),
(82,42,o),
(136,9,o),
(218,0,o),
(270,0,q),
(632,0,l),
(650,0,o),
(693,5,o),
(728,23,o),
(753,56,o),
(753,85,q),
(753,429,l),
(753,452,o),
(770,475,o),
(804,475,q),
(883,475,l),
(883,345,l),
(883,282,o),
(961,216,o),
(1014,216,q),
(1066,216,o),
(1145,279,o),
(1145,345,q),
(1145,509,l),
(1145,542,o),
(1099,563,o),
(1027,563,q),
(730,563,l),
(674,563,o),
(592,554,o),
(538,528,o),
(512,477,o),
(512,435,q),
(512,87,l),
(439,87,o),
(359,94,o),
(321,115,o),
(314,148,o),
(314,174,q),
(314,552,l),
(314,580,o),
(326,620,o),
(349,650,o),
(378,674,o),
(395,688,q),
(698,904,l),
(698,1128,l),
(1003,1128,l),
(1003,1323,l),
(1003,1355,o),
(949,1388,o),
(911,1388,q),
(873,1388,o),
(801,1355,o),
(786,1323,q),
(742,1216,l),
(389,1216,l),
(345,1326,l),
(329,1356,o),
(259,1390,o),
(219,1390,q),
(181,1390,o),
(128,1356,o),
(128,1326,q),
(128,1128,l),
(437,1128,l)
);
}
);
width = 1198;
}
);
unicode = 4655;
},
{
glyphname = uni1230;
layers = (
{
layerId = "F01671F1-619E-4C0E-98FE-F2F10EEA5364";
shapes = (
{
closed = 1;
nodes = (
(87,890,l),
(87,935,o),
(98,986,o),
(120,1010,o),
(153,1015,o),
(174,1015,q),
(349,1015,l),
(349,1165,l),
(349,1226,o),
(427,1296,o),
(479,1296,q),
(533,1296,o),
(610,1228,o),
(610,1165,q),
(610,1015,l),
(784,1015,l),
(803,1015,o),
(834,1009,o),
(859,982,o),
(871,929,o),
(871,879,q),
(871,103,l),
(871,43,o),
(794,-23,o),
(742,-23,q),
(688,-23,o),
(610,45,o),
(610,106,q),
(610,851,l),
(610,879,o),
(605,911,o),
(588,927,o),
(560,929,o),
(537,929,q),
(349,929,l),
(349,106,l),
(349,45,o),
(270,-23,o),
(216,-23,q),
(164,-23,o),
(87,45,o),
(87,106,q)
);
}
);
width = 958;
}
);
unicode = 4656;
},
{
glyphname = uni1231;
layers = (
{
layerId = "F01671F1-619E-4C0E-98FE-F2F10EEA5364";
shapes = (
{
closed = 1;
nodes = (
(87,890,l),
(87,935,o),
(111,986,o),
(143,1010,o),
(171,1015,o),
(174,1015,q),
(349,1015,l),
(349,1165,l),
(349,1226,o),
(427,1296,o),
(479,1296,q),
(533,1296,o),
(610,1228,o),
(610,1165,q),
(610,1015,l),
(784,1015,l),
(789,1015,o),
(817,1009,o),
(846,982,o),
(871,929,o),
(871,879,q),
(871,673,l),
(1064,673,l),
(1127,673,o),
(1195,595,o),
(1195,542,q),
(1195,487,o),
(1127,411,o),
(1064,411,q),
(977,411,l),
(977,585,l),
(871,585,l),
(871,103,l),
(871,43,o),
(794,-23,o),
(742,-23,q),
(688,-23,o),
(610,45,o),
(610,106,q),
(610,851,l),
(610,878,o),
(606,907,o),
(592,923,o),
(565,929,o),
(540,929,q),
(349,929,l),
(349,106,l),
(349,45,o),
(270,-23,o),
(216,-23,q),
(164,-23,o),
(87,45,o),
(87,106,q)
);
}
);
width = 1195;
}
);
unicode = 4657;
},
{
glyphname = uni1232;
layers = (
{
layerId = "F01671F1-619E-4C0E-98FE-F2F10EEA5364";
shapes = (
{
closed = 1;
nodes = (
(742,2,l),
(688,2,o),
(610,70,o),
(610,131,q),
(610,854,l),
(610,879,o),
(605,911,o),
(590,924,o),
(563,929,o),
(540,929,q),
(349,929,l),
(349,131,l),
(349,70,o),
(270,2,o),
(216,2,q),
(164,2,o),
(87,70,o),
(87,131,q),
(87,890,l),
(87,935,o),
(111,986,o),
(143,1010,o),
(171,1015,o),
(174,1015,q),
(349,1015,l),
(349,1163,l),
(349,1225,o),
(427,1294,o),
(479,1294,q),
(533,1294,o),
(610,1226,o),
(610,1163,q),
(610,1015,l),
(784,1015,l),
(789,1015,o),
(817,1009,o),
(846,982,o),
(871,929,o),
(871,879,q),
(871,87,l),
(1003,87,l),
(1003,174,l),
(1090,174,l),
(1153,168,o),
(1221,98,o),
(1221,43,q),
(1221,-10,o),
(1153,-87,o),
(1090,-87,q),
(1003,-87,l),
(1003,0,l)
);
}
);
width = 1221;
}
);
unicode = 4658;
},
{
glyphname = uni1233;
layers = (
{
layerId = "F01671F1-619E-4C0E-98FE-F2F10EEA5364";
shapes = (
{
closed = 1;
nodes = (
(784,1015,l),
(789,1015,o),
(817,1009,o),
(846,982,o),
(871,929,o),
(871,879,q),
(871,103,l),
(871,43,o),
(794,-23,o),
(742,-23,q),
(688,-23,o),
(610,45,o),
(610,106,q),
(610,851,l),
(610,907,o),
(571,929,o),
(524,929,q),
(349,929,l),
(349,409,l),
(349,349,o),
(270,281,o),
(216,281,q),
(164,281,o),
(87,349,o),
(87,409,q),
(87,890,l),
(87,935,o),
(111,986,o),
(143,1010,o),
(171,1015,o),
(174,1015,q),
(349,1015,l),
(349,1163,l),
(349,1225,o),
(427,1294,o),
(479,1294,q),
(533,1294,o),
(610,1226,o),
(610,1163,q),
(610,1015,l)
);
}
);
width = 958;
}
);
unicode = 4659;
},
{
glyphname = uni1234;
layers = (
{
layerId = "F01671F1-619E-4C0E-98FE-F2F10EEA5364";
shapes = (
{
closed = 1;
nodes = (
(1022,-12,l),
(1060,-12,o),
(1120,-7,o),
(1157,15,o),
(1175,65,o),
(1175,110,q),
(1175,326,l),
(1175,367,o),
(1153,416,o),
(1108,441,o),
(1043,446,o),
(1002,446,q),
(871,446,l),
(871,879,l),
(871,929,o),
(846,982,o),
(817,1009,o),
(789,1015,o),
(784,1015,q),
(610,1015,l),
(610,1163,l),
(610,1226,o),
(533,1294,o),
(479,1294,q),
(427,1294,o),
(349,1225,o),
(349,1163,q),
(349,1015,l),
(174,1015,l),
(171,1015,o),
(143,1010,o),
(111,986,o),
(87,935,o),
(87,890,q),
(87,106,l),
(87,45,o),
(164,-23,o),
(216,-23,q),
(270,-23,o),
(349,45,o),
(349,106,q),
(349,929,l),
(542,929,l),
(578,929,o),
(610,907,o),
(610,854,q),
(610,118,l),
(610,85,o),
(618,37,o),
(646,3,o),
(703,-12,o),
(754,-12,q)
);
},
{
closed = 1;
nodes = (
(984,47,l),
(942,47,o),
(897,54,o),
(876,71,o),
(871,106,o),
(871,136,q),
(871,385,l),
(911,385,o),
(956,379,o),
(979,367,o),
(984,343,o),
(984,324,q)
);
}
);
width = 1175;
}
);
unicode = 4660;
},
{
glyphname = uni1235;
layers = (
{
layerId = "F01671F1-619E-4C0E-98FE-F2F10EEA5364";
shapes = (
{
closed = 1;
nodes = (
(258,1207,l),
(261,1258,o),
(324,1305,o),
(390,1318,q),
(457,1318,o),
(492,1247,q),
(610,1015,l),
(784,1015,l),
(789,1015,o),
(817,1009,o),
(846,982,o),
(871,929,o),
(871,879,q),
(871,99,l),
(871,40,o),
(794,-26,o),
(742,-26,q),
(688,-26,o),
(610,42,o),
(610,103,q),
(610,856,l),
(610,909,o),
(577,929,o),
(542,929,q),
(349,929,l),
(349,103,l),
(349,42,o),
(270,-26,o),
(216,-26,q),
(164,-26,o),
(87,42,o),
(87,103,q),
(87,890,l),
(87,935,o),
(111,986,o),
(143,1010,o),
(171,1015,o),
(174,1015,q),
(349,1015,l)
);
}
);
width = 958;
}
);
unicode = 4661;
},
{
glyphname = uni1236;
layers = (
{
layerId = "F01671F1-619E-4C0E-98FE-F2F10EEA5364";
shapes = (
{
closed = 1;
nodes = (
(784,1015,l),
(789,1015,o),
(817,1009,o),
(846,982,o),
(871,929,o),
(871,879,q),
(871,361,l),
(871,301,o),
(793,235,o),
(740,235,q),
(688,235,o),
(610,301,o),
(610,364,q),
(610,851,l),
(610,906,o),
(577,929,o),
(542,929,q),
(349,929,l),
(349,105,l),
(349,43,o),
(270,-25,o),
(216,-25,q),
(164,-25,o),
(87,43,o),
(87,105,q),
(87,890,l),
(87,935,o),
(111,986,o),
(143,1010,o),
(171,1015,o),
(174,1015,q),
(349,1015,l),
(349,1163,l),
(349,1225,o),
(427,1294,o),
(479,1294,q),
(533,1294,o),
(610,1226,o),
(610,1163,q),
(610,1015,l)
);
}
);
width = 958;
}
);
unicode = 4662;
},
{
glyphname = uni1237;
layers = (
{
layerId = "F01671F1-619E-4C0E-98FE-F2F10EEA5364";
shapes = (
{
closed = 1;
nodes = (
(871,131,l),
(871,879,l),
(871,929,o),
(846,982,o),
(817,1009,o),
(789,1015,o),
(784,1015,q),
(610,1015,l),
(610,1163,l),
(610,1226,o),
(533,1294,o),
(479,1294,q),
(427,1294,o),
(349,1225,o),
(349,1163,q),
(349,1015,l),
(174,1015,l),
(171,1015,o),
(143,1010,o),
(111,986,o),
(87,935,o),
(87,890,q),
(87,434,l),
(87,372,o),
(164,304,o),
(216,304,q),
(270,304,o),
(349,372,o),
(349,434,q),
(349,929,l),
(560,929,l),
(590,929,o),
(610,907,o),
(610,854,q),
(610,131,l),
(299,131,l),
(299,-66,l),
(299,-98,o),
(354,-131,o),
(392,-131,q),
(432,-131,o),
(502,-98,o),
(517,-66,q),
(560,43,l),
(914,43,l),
(958,-65,l),
(974,-96,o),
(1045,-129,o),
(1083,-129,q),
(1122,-129,o),
(1175,-96,o),
(1175,-65,q),
(1175,131,l)
);
}
);
width = 1179;
}
);
unicode = 4663;
},
{
glyphname = uni1238;
layers = (
{
layerId = "F01671F1-619E-4C0E-98FE-F2F10EEA5364";
shapes = (
{
closed = 1;
nodes = (
(866,103,l),
(866,43,o),
(789,-23,o),
(736,-23,q),
(683,-23,o),
(605,43,o),
(603,106,q),
(603,874,l),
(603,912,o),
(582,929,o),
(543,929,q),
(385,929,l),
(385,106,l),
(385,45,o),
(306,-23,o),
(253,-23,q),
(201,-23,o),
(123,45,o),
(123,106,q),
(123,890,l),
(123,935,o),
(148,986,o),
(179,1010,o),
(207,1015,o),
(211,1015,q),
(385,1015,l),
(385,1174,l),
(298,1174,l),
(298,1108,l),
(207,1108,l),
(158,1108,o),
(87,1175,o),
(87,1218,q),
(87,1259,o),
(158,1326,o),
(207,1326,q),
(299,1326,l),
(299,1261,l),
(695,1261,l),
(695,1326,l),
(787,1326,l),
(836,1326,o),
(907,1259,o),
(907,1218,q),
(907,1175,o),
(836,1108,o),
(787,1108,q),
(696,1108,l),
(696,1174,l),
(603,1174,l),
(603,1015,l),
(799,1015,l),
(801,1014,o),
(822,1005,o),
(846,975,o),
(866,923,o),
(866,879,q)
);
}
);
width = 994;
}
);
unicode = 4664;
},
{
glyphname = uni1239;
layers = (
{
layerId = "F01671F1-619E-4C0E-98FE-F2F10EEA5364";
shapes = (
{
closed = 1;
nodes = (
(864,103,l),
(864,40,o),
(789,-26,o),
(736,-26,q),
(683,-26,o),
(603,33,o),
(603,103,q),
(603,876,l),
(603,916,o),
(582,929,o),
(557,929,q),
(385,929,l),
(385,103,l),
(385,42,o),
(306,-26,o),
(253,-26,q),
(201,-26,o),
(123,42,o),
(123,103,q),
(123,890,l),
(123,935,o),
(148,986,o),
(179,1010,o),
(207,1015,o),
(211,1015,q),
(385,1015,l),
(385,1170,l),
(298,1170,l),
(298,1104,l),
(207,1104,l),
(158,1104,o),
(87,1172,o),
(87,1214,q),
(87,1256,o),
(158,1322,o),
(207,1322,q),
(299,1322,l),
(299,1258,l),
(695,1258,l),
(695,1322,l),
(787,1322,l),
(836,1322,o),
(907,1256,o),
(907,1214,q),
(907,1172,o),
(836,1104,o),
(787,1104,q),
(696,1104,l),
(696,1170,l),
(603,1170,l),
(603,1015,l),
(799,1015,l),
(801,1015,o),
(822,1007,o),
(844,979,o),
(864,929,o),
(864,884,q),
(864,668,l),
(1038,668,l),
(1100,668,o),
(1168,592,o),
(1168,538,q),
(1168,484,o),
(1100,407,o),
(1038,407,q),
(951,407,l),
(951,582,l),
(864,582,l)
);
}
);
width = 1170;
}
);
unicode = 4665;
},
{
glyphname = uni123A;
layers = (
{
layerId = "F01671F1-619E-4C0E-98FE-F2F10EEA5364";
shapes = (
{
closed = 1;
nodes = (
(864,65,l),
(994,65,l),
(994,151,l),
(1082,151,l),
(1145,151,o),
(1212,75,o),
(1212,21,q),
(1212,-33,o),
(1145,-110,o),
(1082,-110,q),
(994,-110,l),
(994,-23,l),
(733,-23,l),
(681,-23,o),
(603,48,o),
(603,110,q),
(603,871,l),
(603,912,o),
(575,929,o),
(537,929,q),
(385,929,l),
(385,108,l),
(385,47,o),
(306,-21,o),
(253,-21,q),
(201,-21,o),
(123,47,o),
(123,108,q),
(123,890,l),
(123,935,o),
(148,986,o),
(179,1010,o),
(207,1015,o),
(211,1015,q),
(385,1015,l),
(385,1175,l),
(298,1175,l),
(298,1110,l),
(207,1110,l),
(158,1110,o),
(87,1177,o),
(87,1219,q),
(87,1261,o),
(158,1327,o),
(207,1327,q),
(299,1327,l),
(299,1263,l),
(695,1263,l),
(695,1327,l),
(787,1327,l),
(836,1327,o),
(907,1261,o),
(907,1219,q),
(907,1177,o),
(836,1110,o),
(787,1110,q),
(696,1110,l),
(696,1175,l),
(603,1175,l),
(603,1015,l),
(799,1015,l),
(801,1015,o),
(822,1007,o),
(844,979,o),
(864,929,o),
(864,884,q)
);
}
);
width = 1212;
}
);
unicode = 4666;
},
{
glyphname = uni123B;
layers = (
{
layerId = "F01671F1-619E-4C0E-98FE-F2F10EEA5364";
shapes = (
{
closed = 1;
nodes = (
(866,101,l),
(866,42,o),
(789,-25,o),
(736,-25,q),
(683,-25,o),
(603,43,o),
(603,105,q),
(603,876,l),
(603,914,o),
(580,929,o),
(535,929,q),
(385,929,l),
(385,407,l),
(385,347,o),
(306,279,o),
(253,279,q),
(201,279,o),
(123,347,o),
(123,407,q),
(123,890,l),
(123,935,o),
(139,986,o),
(164,1010,o),
(195,1015,o),
(211,1015,q),
(385,1015,l),
(385,1172,l),
(298,1172,l),
(298,1106,l),
(207,1106,l),
(158,1106,o),
(87,1174,o),
(87,1216,q),
(87,1258,o),
(158,1323,o),
(207,1323,q),
(299,1323,l),
(299,1259,l),
(695,1259,l),
(695,1323,l),
(787,1323,l),
(836,1323,o),
(907,1258,o),
(907,1216,q),
(907,1174,o),
(836,1106,o),
(787,1106,q),
(696,1106,l),
(696,1172,l),
(603,1172,l),
(603,1015,l),
(799,1015,l),
(817,1015,o),
(841,1005,o),
(857,977,o),
(866,923,o),
(866,879,q)
);
}
);
width = 994;
}
);
unicode = 4667;
},
